<svg width="24" height="24" viewBox="0 0 24 24" fill="none" xmlns="http://www.w3.org/2000/svg">
<path d="M17.575 7C17.575 6.68244 17.3176 6.425 17 6.425C16.6824 6.425 16.425 6.68244 16.425 7H17.575ZM16.425 9C16.425 9.31756 16.6824 9.575 17 9.575C17.3176 9.575 17.575 9.31756 17.575 9H16.425ZM17.575 14C17.575 13.6824 17.3176 13.425 17 13.425C16.6824 13.425 16.425 13.6824 16.425 14H17.575ZM16.425 16C16.425 16.3176 16.6824 16.575 17 16.575C17.3176 16.575 17.575 16.3176 17.575 16H16.425ZM20 10H19.425V13H20H20.575V10H20ZM4 13H4.575V10H4H3.425V13H4ZM12 21V20.425C10.0981 20.425 8.72957 20.4238 7.68753 20.2837C6.66204 20.1458 6.0393 19.883 5.57816 19.4218L5.17157 19.8284L4.76499 20.235C5.47542 20.9454 6.38128 21.2684 7.5343 21.4234C8.67077 21.5762 10.1306 21.575 12 21.575V21ZM4 13H3.425C3.425 14.8694 3.42378 16.3292 3.57657 17.4657C3.73159 18.6187 4.05456 19.5246 4.76499 20.235L5.17157 19.8284L5.57816 19.4218C5.11702 18.9607 4.85419 18.338 4.71632 17.3125C4.57622 16.2704 4.575 14.9019 4.575 13H4ZM20 13H19.425C19.425 14.9019 19.4238 16.2704 19.2837 17.3125C19.1458 18.338 18.883 18.9607 18.4218 19.4218L18.8284 19.8284L19.235 20.235C19.9454 19.5246 20.2684 18.6187 20.4234 17.4657C20.5762 16.3292 20.575 14.8694 20.575 13H20ZM12 21V21.575C13.8694 21.575 15.3292 21.5762 16.4657 21.4234C17.6187 21.2684 18.5246 20.9454 19.235 20.235L18.8284 19.8284L18.4218 19.4218C17.9607 19.883 17.338 20.1458 16.3125 20.2837C15.2704 20.4238 13.9019 20.425 12 20.425V21ZM12 2V2.575C13.9019 2.575 15.2704 2.57622 16.3125 2.71632C17.338 2.85419 17.9607 3.11702 18.4218 3.57816L18.8284 3.17157L19.235 2.76499C18.5246 2.05456 17.6187 1.73159 16.4657 1.57657C15.3292 1.42378 13.8694 1.425 12 1.425V2ZM20 10H20.575C20.575 8.13064 20.5762 6.67077 20.4234 5.5343C20.2684 4.38128 19.9454 3.47542 19.235 2.76499L18.8284 3.17157L18.4218 3.57816C18.883 4.0393 19.1458 4.66204 19.2837 5.68753C19.4238 6.72957 19.425 8.09813 19.425 10H20ZM12 2V1.425C10.1306 1.425 8.67077 1.42378 7.5343 1.57657C6.38128 1.73159 5.47542 2.05456 4.76499 2.76499L5.17157 3.17157L5.57816 3.57816C6.0393 3.11702 6.66204 2.85419 7.68753 2.71632C8.72957 2.57622 10.0981 2.575 12 2.575V2ZM4 10H4.575C4.575 8.09813 4.57622 6.72957 4.71632 5.68753C4.85419 4.66204 5.11702 4.0393 5.57816 3.57816L5.17157 3.17157L4.76499 2.76499C4.05456 3.47542 3.73159 4.38128 3.57657 5.5343C3.42378 6.67077 3.425 8.13064 3.425 10H4ZM17 7H16.425V9H17H17.575V7H17ZM17 14H16.425V16H17H17.575V14H17Z" fill="#130E14"/>
</svg>
