<svg width="24" height="24" viewBox="0 0 24 24" fill="none" xmlns="http://www.w3.org/2000/svg">
<path d="M21.4688 5C21.4688 3 20.4687 2 18.4687 2H14.4688C12.4688 2 11.4688 3 11.4688 5V19C11.4688 21 12.4688 22 14.4688 22H18.4687C20.4687 22 21.4688 21 21.4688 19V5Z" stroke="#130E14" stroke-width="1.15" stroke-linecap="round"/>
<path d="M2.53125 4.95V17.91C2.53125 18.36 2.72125 19.04 2.95125 19.43L3.77125 20.79C4.71125 22.36 6.26125 22.36 7.20125 20.79L8.02125 19.43C8.25125 19.04 8.44125 18.36 8.44125 17.91V4.95C8.44125 3.33 7.11125 2 5.49125 2C3.86125 2 2.53125 3.33 2.53125 4.95Z" stroke="#130E14" stroke-width="1.15" stroke-linecap="round"/>
</svg>
