<svg width="24" height="24" viewBox="0 0 24 24" fill="none" xmlns="http://www.w3.org/2000/svg">
<path d="M18.18 8.03933L17.7734 7.63274L17.7734 7.63274L18.18 8.03933ZM18.6435 7.57589L19.0501 7.98248L19.0501 7.98248L18.6435 7.57589ZM21.4241 10.3565L21.8307 10.7631L21.8307 10.7631L21.4241 10.3565ZM12.0272 16.3021L12.5727 16.4839L12.5727 16.4839L12.0272 16.3021ZM12.7078 14.2604L13.2533 14.4422L13.2533 14.4422L12.7078 14.2604ZM13.9194 12.2999L14.326 12.7065L13.9194 12.2999ZM16.7001 15.0806L17.1066 15.4872L17.1066 15.4872L16.7001 15.0806ZM14.7396 16.2922L14.5578 15.7467L14.5578 15.7467L14.7396 16.2922ZM12.6979 16.9728L12.5161 16.4273L12.5161 16.4273L12.6979 16.9728ZM16.1081 15.6376L15.7544 15.1842L15.7544 15.1842L16.1081 15.6376ZM15.5025 16.0118L15.2551 15.4928L15.2551 15.4928L15.5025 16.0118ZM12.9882 13.4975L12.4691 13.2501L12.4691 13.2501L12.9882 13.4975ZM13.3624 12.8919L13.8158 13.2456L13.8158 13.2456L13.3624 12.8919ZM13.099 16.8391L13.2808 17.3846L13.2808 17.3846L13.099 16.8391ZM12.1609 15.901L11.6154 15.7192L11.6154 15.7192L12.1609 15.901ZM8 12.425C7.68244 12.425 7.425 12.6824 7.425 13C7.425 13.3176 7.68244 13.575 8 13.575V12.425ZM10.5 13.575C10.8176 13.575 11.075 13.3176 11.075 13C11.075 12.6824 10.8176 12.425 10.5 12.425V13.575ZM8 8.425C7.68244 8.425 7.425 8.68244 7.425 9C7.425 9.31756 7.68244 9.575 8 9.575V8.425ZM14.5 9.575C14.8176 9.575 15.075 9.31756 15.075 9C15.075 8.68244 14.8176 8.425 14.5 8.425V9.575ZM8 16.425C7.68244 16.425 7.425 16.6824 7.425 17C7.425 17.3176 7.68244 17.575 8 17.575V16.425ZM9.5 17.575C9.81756 17.575 10.075 17.3176 10.075 17C10.075 16.6824 9.81756 16.425 9.5 16.425V17.575ZM18.18 8.03933L18.5866 8.44592L19.0501 7.98248L18.6435 7.57589L18.2369 7.1693L17.7734 7.63274L18.18 8.03933ZM21.4241 10.3565L21.0175 9.94994L20.5541 10.4134L20.9607 10.82L21.3673 11.2266L21.8307 10.7631L21.4241 10.3565ZM18.18 8.03933C17.606 8.07309 17.606 8.07333 17.6061 8.07357C17.6061 8.07365 17.6061 8.0739 17.6061 8.07407C17.6061 8.07441 17.6061 8.07477 17.6061 8.07514C17.6062 8.07588 17.6062 8.07669 17.6063 8.07755C17.6064 8.07929 17.6066 8.08127 17.6067 8.08349C17.607 8.08794 17.6075 8.09335 17.608 8.09971C17.6091 8.11241 17.6107 8.12888 17.613 8.14882C17.6175 8.18869 17.6249 8.24263 17.6367 8.30836C17.6603 8.43961 17.7017 8.61935 17.7744 8.82882C17.9197 9.24781 18.1923 9.79161 18.7003 10.2997L19.1069 9.89309L19.5135 9.4865C19.1526 9.12562 18.9617 8.74254 18.8609 8.45188C18.8104 8.30654 18.7831 8.18576 18.7686 8.1052C18.7614 8.06503 18.7575 8.03525 18.7555 8.01786C18.7545 8.00918 18.754 8.00364 18.7538 8.0015C18.7537 8.00042 18.7537 8.0002 18.7537 8.00087C18.7538 8.0012 18.7538 8.00176 18.7539 8.00254C18.7539 8.00293 18.7539 8.00338 18.7539 8.00388C18.754 8.00413 18.754 8.0044 18.754 8.00468C18.754 8.00482 18.754 8.00504 18.754 8.00511C18.754 8.00534 18.754 8.00556 18.18 8.03933ZM19.1069 9.89309L18.7003 10.2997C19.2084 10.8077 19.7522 11.0803 20.1712 11.2256C20.3807 11.2983 20.5604 11.3397 20.6916 11.3633C20.7574 11.3751 20.8113 11.3825 20.8512 11.387C20.8711 11.3893 20.8876 11.3909 20.9003 11.392C20.9066 11.3925 20.9121 11.393 20.9165 11.3933C20.9187 11.3934 20.9207 11.3936 20.9224 11.3937C20.9233 11.3938 20.9241 11.3938 20.9249 11.3939C20.9252 11.3939 20.9256 11.3939 20.9259 11.3939C20.9261 11.3939 20.9263 11.3939 20.9264 11.3939C20.9267 11.394 20.9269 11.394 20.9607 10.82C20.9944 10.246 20.9947 10.246 20.9949 10.246C20.995 10.246 20.9952 10.246 20.9953 10.246C20.9956 10.246 20.9959 10.246 20.9961 10.2461C20.9966 10.2461 20.9971 10.2461 20.9975 10.2461C20.9982 10.2462 20.9988 10.2462 20.9991 10.2463C20.9998 10.2463 20.9996 10.2463 20.9985 10.2462C20.9964 10.246 20.9908 10.2455 20.9821 10.2445C20.9648 10.2425 20.935 10.2386 20.8948 10.2314C20.8142 10.2169 20.6935 10.1896 20.5481 10.1391C20.2575 10.0383 19.8744 9.84739 19.5135 9.4865L19.1069 9.89309ZM13.9194 12.2999L14.326 12.7065L18.5866 8.44592L18.18 8.03933L17.7734 7.63274L13.5128 11.8934L13.9194 12.2999ZM20.9607 10.82L20.5541 10.4134L16.2935 14.674L16.7001 15.0806L17.1066 15.4872L21.3673 11.2266L20.9607 10.82ZM16.7001 15.0806L16.2935 14.674C15.9953 14.9722 15.8792 15.0868 15.7544 15.1842L16.1081 15.6376L16.4617 16.0909C16.6551 15.9401 16.8276 15.7662 17.1066 15.4872L16.7001 15.0806ZM14.7396 16.2922L14.9214 16.8377C15.2957 16.7129 15.5285 16.6364 15.7499 16.5309L15.5025 16.0118L15.2551 15.4928C15.1122 15.5609 14.9578 15.6134 14.5578 15.7467L14.7396 16.2922ZM16.1081 15.6376L15.7544 15.1842C15.5997 15.3049 15.4323 15.4083 15.2551 15.4928L15.5025 16.0118L15.7499 16.5309C16.0024 16.4105 16.2411 16.263 16.4617 16.0909L16.1081 15.6376ZM12.1553 16.8447L12.5619 16.4381C12.5739 16.4501 12.5781 16.4678 12.5727 16.4839L12.0272 16.3021L11.4817 16.1202C11.3493 16.5174 11.4527 16.9553 11.7487 17.2513L12.1553 16.8447ZM12.7078 14.2604L13.2533 14.4422C13.3866 14.0422 13.4391 13.8878 13.5072 13.7449L12.9882 13.4975L12.4691 13.2501C12.3636 13.4715 12.2871 13.7043 12.1623 14.0786L12.7078 14.2604ZM13.9194 12.2999L13.5128 11.8934C13.2338 12.1724 13.0599 12.3449 12.9091 12.5383L13.3624 12.8919L13.8158 13.2456C13.9132 13.1208 14.0278 13.0047 14.326 12.7065L13.9194 12.2999ZM12.9882 13.4975L13.5072 13.7449C13.5917 13.5677 13.6951 13.4003 13.8158 13.2456L13.3624 12.8919L12.9091 12.5383C12.737 12.7589 12.5895 12.9976 12.4691 13.2501L12.9882 13.4975ZM12.1553 16.8447L11.7487 17.2513C12.0447 17.5473 12.4826 17.6507 12.8798 17.5183L12.6979 16.9728L12.5161 16.4273C12.5322 16.4219 12.5499 16.4261 12.5619 16.4381L12.1553 16.8447ZM21.4241 7.57589L21.0175 7.98248C21.5608 8.52578 21.5608 9.40664 21.0175 9.94994L21.4241 10.3565L21.8307 10.7631C22.8231 9.77071 22.8231 8.16171 21.8307 7.1693L21.4241 7.57589ZM21.4241 7.57589L21.8307 7.1693C20.8383 6.1769 19.2293 6.1769 18.2369 7.1693L18.6435 7.57589L19.0501 7.98248C19.5934 7.43917 20.4742 7.43917 21.0175 7.98248L21.4241 7.57589ZM13.099 16.8391L12.9171 16.2936L12.5161 16.4273L12.6979 16.9728L12.8798 17.5183L13.2808 17.3846L13.099 16.8391ZM12.0272 16.3021L12.5727 16.4839L12.7064 16.0829L12.1609 15.901L11.6154 15.7192L11.4817 16.1202L12.0272 16.3021ZM13.099 16.8391L13.5055 16.4325L12.5675 15.4945L12.1609 15.901L11.7543 16.3076L12.6924 17.2457L13.099 16.8391ZM8 13V13.575H10.5V13V12.425H8V13ZM8 9V9.575H14.5V9V8.425H8V9ZM8 17V17.575H9.5V17V16.425H8V17ZM14.7396 16.2922L14.5578 15.7467L12.9171 16.2936L13.099 16.8391L13.2808 17.3846L14.9214 16.8377L14.7396 16.2922ZM12.1609 15.901L12.7064 16.0829L13.2533 14.4422L12.7078 14.2604L12.1623 14.0786L11.6154 15.7192L12.1609 15.901Z" fill="#130E14"/>
</svg>
