<svg width="24" height="24" viewBox="0 0 24 24" fill="none" xmlns="http://www.w3.org/2000/svg">
<path d="M19 11.5C19 12.3284 18.3284 13 17.5 13C16.6716 13 16 12.3284 16 11.5C16 10.6716 16.6716 9.99998 17.5 9.99998C18.3284 9.99998 19 10.6716 19 11.5Z" stroke="#4958F2" stroke-width="1.15"/>
<path d="M8 11.5C8 12.3284 7.32843 13 6.5 13C5.67157 13 5 12.3284 5 11.5C5 10.6716 5.67157 9.99998 6.5 9.99998C7.32843 9.99998 8 10.6716 8 11.5Z" stroke="#4958F2" stroke-width="1.15"/>
<path d="M11 6.99976C11 7.82818 10.3285 8.49976 9.50004 8.49976C8.67161 8.49976 8.00004 7.82818 8.00004 6.99976C8.00004 6.17133 8.67161 5.49976 9.50004 5.49976C10.3285 5.49976 11 6.17133 11 6.99976Z" stroke="#4958F2" stroke-width="1.15"/>
<path d="M16 6.99998C16 7.82841 15.3284 8.49998 14.5 8.49998C13.6716 8.49998 13 7.82841 13 6.99998C13 6.17156 13.6716 5.49998 14.5 5.49998C15.3284 5.49998 16 6.17156 16 6.99998Z" stroke="#4958F2" stroke-width="1.15"/>
</svg>
