<svg width="24" height="24" viewBox="0 0 24 24" fill="none" xmlns="http://www.w3.org/2000/svg">
<path d="M4.19792 21.6782L5 21.4108L7.47918 20.5844C8.25352 20.3263 8.6407 20.1973 9.00498 20.0237C9.43469 19.8189 9.84082 19.5679 10.2162 19.2751C10.5344 19.0269 10.8229 18.7383 11.4001 18.1612L19.9213 9.63993L20.8482 8.71306C22.3839 7.17735 22.3839 4.68748 20.8482 3.15178C19.3125 1.61607 16.8226 1.61607 15.2869 3.15178L14.3601 4.07866L5.83882 12.5999C5.26166 13.1771 4.97308 13.4656 4.7249 13.7838C4.43213 14.1592 4.18114 14.5653 3.97634 14.995C3.80273 15.3593 3.67368 15.7465 3.41556 16.5208L2.58917 19L2.32181 19.8021M4.19792 21.6782L3.39584 21.9456C3.01478 22.0726 2.59466 21.9734 2.31063 21.6894C2.0266 21.4053 1.92743 20.9852 2.05445 20.6042L2.32181 19.8021M4.19792 21.6782L2.32181 19.8021" stroke="#130E14" stroke-width="1.15"/>
</svg>
