<svg width="24" height="24" viewBox="0 0 24 24" fill="none" xmlns="http://www.w3.org/2000/svg">
<path d="M5.49167 4.04537L5.08508 3.63879L5.08508 3.63879L5.49167 4.04537ZM4.04537 5.49167L4.45196 5.89825L4.45196 5.89825L4.04537 5.49167ZM11.2769 4.04537L11.6834 4.45196C11.7913 4.34412 11.8519 4.19787 11.8519 4.04537C11.8519 3.89287 11.7913 3.74662 11.6834 3.63878L11.2769 4.04537ZM19.9546 12.7231L20.3612 12.3166C20.2534 12.2087 20.1071 12.1481 19.9546 12.1481C19.8021 12.1481 19.6559 12.2087 19.548 12.3166L19.9546 12.7231ZM8.45977 6.04928C8.23522 6.27383 8.23522 6.6379 8.45977 6.86245C8.68433 7.087 9.0484 7.087 9.27295 6.86245L8.45977 6.04928ZM17.1376 14.7271C16.913 14.9516 16.913 15.3157 17.1376 15.5402C17.3621 15.7648 17.7262 15.7648 17.9507 15.5402L17.1376 14.7271ZM16.2131 7.78564L16.6197 7.37906L16.2131 7.78564ZM5.49167 4.04537L5.08508 3.63879L3.63879 5.08508L4.04537 5.49167L4.45196 5.89825L5.89825 4.45196L5.49167 4.04537ZM18.5083 19.9546L18.9149 20.3612L20.3612 18.9149L19.9546 18.5083L19.548 18.1017L18.1017 19.548L18.5083 19.9546ZM12.7231 19.9546L12.3166 20.3612C12.9869 21.0315 13.5296 21.576 14.0143 21.9458C14.5122 22.3257 15.0159 22.575 15.6157 22.575V22V21.425C15.3684 21.425 15.1075 21.3334 14.7119 21.0315C14.3029 20.7195 13.823 20.2413 13.1297 19.548L12.7231 19.9546ZM18.5083 19.9546L18.1017 19.548C17.4085 20.2413 16.9285 20.7195 16.5196 21.0315C16.124 21.3334 15.8631 21.425 15.6157 21.425V22V22.575C16.2156 22.575 16.7192 22.3257 17.2172 21.9458C17.7019 21.576 18.2446 21.0315 18.9149 20.3612L18.5083 19.9546ZM4.04537 5.49167L3.63879 5.08508C2.96849 5.75538 2.424 6.29814 2.05421 6.78281C1.67429 7.28076 1.425 7.78438 1.425 8.38426H2H2.575C2.575 8.13692 2.66661 7.87603 2.96848 7.48038C3.28048 7.07146 3.75867 6.59154 4.45196 5.89825L4.04537 5.49167ZM4.04537 11.2769L4.45196 10.8703C3.75868 10.177 3.28048 9.69706 2.96848 9.28814C2.66661 8.89249 2.575 8.6316 2.575 8.38426H2H1.425C1.425 8.98414 1.67429 9.48776 2.05421 9.98571C2.42401 10.4704 2.96849 11.0131 3.63879 11.6834L4.04537 11.2769ZM11.2769 4.04537L11.6834 3.63878C11.0131 2.96849 10.4704 2.424 9.98571 2.05421C9.48776 1.67429 8.98414 1.425 8.38426 1.425V2V2.575C8.6316 2.575 8.89249 2.66661 9.28814 2.96848C9.69706 3.28048 10.177 3.75867 10.8703 4.45196L11.2769 4.04537ZM5.49167 4.04537L5.89825 4.45196C6.59154 3.75867 7.07146 3.28048 7.48038 2.96848C7.87603 2.66661 8.13692 2.575 8.38426 2.575V2V1.425C7.78438 1.425 7.28076 1.67429 6.78282 2.05421C6.29814 2.424 5.75538 2.96849 5.08508 3.63879L5.49167 4.04537ZM19.9546 12.7231L19.548 13.1297C20.2413 13.823 20.7195 14.3029 21.0315 14.7119C21.3334 15.1075 21.425 15.3684 21.425 15.6157H22H22.575C22.575 15.0159 22.3257 14.5122 21.9458 14.0143C21.576 13.5296 21.0315 12.9869 20.3612 12.3166L19.9546 12.7231ZM19.9546 18.5083L20.3612 18.9149C21.0315 18.2446 21.576 17.7019 21.9458 17.2172C22.3257 16.7192 22.575 16.2156 22.575 15.6157H22H21.425C21.425 15.8631 21.3334 16.124 21.0315 16.5196C20.7195 16.9285 20.2413 17.4085 19.548 18.1017L19.9546 18.5083ZM11.2769 4.04537L10.8703 3.63878L8.45977 6.04928L8.86636 6.45586L9.27295 6.86245L11.6834 4.45196L11.2769 4.04537ZM19.9546 12.7231L19.548 12.3166L17.1376 14.7271L17.5441 15.1336L17.9507 15.5402L20.3612 13.1297L19.9546 12.7231ZM14.3594 4.07812C13.7854 4.11189 13.7854 4.11213 13.7854 4.11238C13.7854 4.11247 13.7854 4.11273 13.7854 4.11291C13.7855 4.11328 13.7855 4.11368 13.7855 4.11411C13.7856 4.11498 13.7856 4.11596 13.7857 4.11707C13.7858 4.11928 13.786 4.12197 13.7862 4.12514C13.7867 4.13147 13.7873 4.13971 13.7882 4.14977C13.7899 4.1699 13.7926 4.19737 13.7965 4.23163C13.8043 4.30012 13.8174 4.39593 13.8387 4.51461C13.8812 4.75176 13.9571 5.08176 14.0913 5.46864C14.3598 6.24245 14.864 7.24969 15.8065 8.19223L16.2131 7.78564L16.6197 7.37906C15.8244 6.5837 15.4017 5.73718 15.1778 5.0917C15.0658 4.76895 15.0041 4.49792 14.9706 4.31145C14.9539 4.21833 14.9443 4.14668 14.939 4.10067C14.9364 4.07768 14.9348 4.06114 14.934 4.05156C14.9336 4.04678 14.9334 4.04374 14.9333 4.04252C14.9332 4.04191 14.9332 4.04175 14.9332 4.04205C14.9333 4.0422 14.9333 4.04247 14.9333 4.04286C14.9333 4.04305 14.9333 4.04327 14.9333 4.04352C14.9333 4.04365 14.9334 4.04386 14.9334 4.04392C14.9334 4.04413 14.9334 4.04436 14.3594 4.07812ZM16.2131 7.78564L15.8065 8.19223C16.7491 9.13477 17.7563 9.63901 18.5301 9.90747C18.917 10.0417 19.247 10.1175 19.4842 10.1601C19.6028 10.1814 19.6987 10.1944 19.7671 10.2023C19.8014 10.2062 19.8289 10.2089 19.849 10.2106C19.8591 10.2114 19.8673 10.2121 19.8736 10.2125C19.8768 10.2128 19.8795 10.2129 19.8817 10.2131C19.8828 10.2132 19.8838 10.2132 19.8847 10.2133C19.8851 10.2133 19.8855 10.2133 19.8859 10.2133C19.8861 10.2134 19.8863 10.2134 19.8864 10.2134C19.8866 10.2134 19.8869 10.2134 19.9207 9.6394C19.9544 9.06539 19.9546 9.06541 19.9549 9.06542C19.9549 9.06542 19.9551 9.06544 19.9553 9.06544C19.9555 9.06546 19.9557 9.06547 19.9559 9.06549C19.9563 9.06551 19.9566 9.06553 19.9567 9.06554C19.957 9.06556 19.9569 9.06555 19.9563 9.0655C19.955 9.06541 19.952 9.06519 19.9472 9.06478C19.9376 9.06396 19.9211 9.06241 19.8981 9.05977C19.8521 9.0545 19.7804 9.0449 19.6873 9.02819C19.5009 8.99472 19.2298 8.93298 18.9071 8.821C18.2616 8.59706 17.4151 8.17442 16.6197 7.37906L16.2131 7.78564Z" fill="#4958F2"/>
</svg>
