<svg width="24" height="24" viewBox="0 0 24 24" fill="none" xmlns="http://www.w3.org/2000/svg">
<path d="M19.3505 15.9794L19.9216 15.9123L19.3505 15.9794ZM19.4289 21.5672C19.466 21.8826 19.7518 22.1082 20.0672 22.0711C20.3826 22.034 20.6082 21.7482 20.5711 21.4328L19.4289 21.5672ZM2.38197 7.52786L2.9398 7.38841L2.38197 7.52786ZM2.55783 5.86054C2.48081 5.55246 2.16862 5.36515 1.86054 5.44217C1.55246 5.51919 1.36515 5.83137 1.44217 6.13946L2.55783 5.86054ZM8 13V13.575H16V13V12.425H8V13ZM19.3505 15.9794L18.7795 16.0466L19.4289 21.5672L20 21.5L20.5711 21.4328L19.9216 15.9123L19.3505 15.9794ZM16 13V13.575C17.4191 13.575 18.6136 14.6372 18.7795 16.0466L19.3505 15.9794L19.9216 15.9123C19.6876 13.9237 18.0023 12.425 16 12.425V13ZM2.38197 7.52786L2.9398 7.38841L2.55783 5.86054L2 6L1.44217 6.13946L1.82413 7.66732L2.38197 7.52786ZM8 13V12.425C5.40585 12.425 3.60355 10.0434 2.9398 7.38841L2.38197 7.52786L1.82413 7.66732C2.53079 10.494 4.59415 13.575 8 13.575V13ZM16 6H15.425C15.425 7.89158 13.8916 9.425 12 9.425V10V10.575C14.5267 10.575 16.575 8.5267 16.575 6H16ZM12 10V9.425C10.1084 9.425 8.575 7.89158 8.575 6H8H7.425C7.425 8.5267 9.4733 10.575 12 10.575V10ZM8 6H8.575C8.575 4.10842 10.1084 2.575 12 2.575V2V1.425C9.4733 1.425 7.425 3.4733 7.425 6H8ZM12 2V2.575C13.8916 2.575 15.425 4.10842 15.425 6H16H16.575C16.575 3.4733 14.5267 1.425 12 1.425V2Z" fill="#4958F2"/>
</svg>
