<svg width="24" height="24" viewBox="0 0 24 24" fill="none" xmlns="http://www.w3.org/2000/svg">
<path d="M20.7251 8.70433L20.2695 9.05506L20.7251 8.70433ZM20.7251 15.2957L20.2695 14.9449L20.7251 15.2957ZM22 12H21.425H22ZM3.27489 8.70433L3.73054 9.05506L3.27489 8.70433ZM3.27489 15.2957L3.73054 14.9449L3.27489 15.2957ZM3.27489 8.70433L3.73054 9.05506C5.37575 6.91767 8.07284 4.575 12 4.575V4V3.425C7.56339 3.425 4.56818 6.08145 2.81924 8.35361L3.27489 8.70433ZM12 4V4.575C15.9272 4.575 18.6243 6.91767 20.2695 9.05506L20.7251 8.70433L21.1808 8.3536C19.4318 6.08145 16.4366 3.425 12 3.425V4ZM20.7251 15.2957L20.2695 14.9449C18.6243 17.0823 15.9272 19.425 12 19.425V20V20.575C16.4366 20.575 19.4318 17.9186 21.1808 15.6464L20.7251 15.2957ZM12 20V19.425C8.07284 19.425 5.37575 17.0823 3.73054 14.9449L3.27489 15.2957L2.81924 15.6464C4.56818 17.9186 7.56339 20.575 12 20.575V20ZM20.7251 8.70433L20.2695 9.05506C20.7049 9.62072 20.9762 9.97836 21.1553 10.3838C21.326 10.7701 21.425 11.2329 21.425 12H22H22.575C22.575 11.1277 22.4615 10.4948 22.2072 9.91912C21.9614 9.36264 21.5953 8.89214 21.1808 8.3536L20.7251 8.70433ZM20.7251 15.2957L21.1808 15.6464C21.5953 15.1079 21.9614 14.6374 22.2072 14.0809C22.4615 13.5052 22.575 12.8723 22.575 12H22H21.425C21.425 12.7671 21.326 13.2299 21.1553 13.6162C20.9762 14.0216 20.7049 14.3793 20.2695 14.9449L20.7251 15.2957ZM3.27489 8.70433L2.81924 8.35361C2.40472 8.89214 2.0386 9.36264 1.79276 9.91912C1.53845 10.4948 1.425 11.1277 1.425 12H2H2.575C2.575 11.2329 2.67403 10.7701 2.84468 10.3838C3.02381 9.97836 3.29514 9.62072 3.73054 9.05506L3.27489 8.70433ZM3.27489 15.2957L3.73054 14.9449C3.29514 14.3793 3.02381 14.0216 2.84468 13.6162C2.67403 13.2299 2.575 12.7671 2.575 12H2H1.425C1.425 12.8723 1.53845 13.5052 1.79276 14.0809C2.0386 14.6374 2.40472 15.1079 2.81924 15.6464L3.27489 15.2957ZM15 12H14.425C14.425 13.3393 13.3393 14.425 12 14.425V15V15.575C13.9744 15.575 15.575 13.9744 15.575 12H15ZM12 15V14.425C10.6607 14.425 9.575 13.3393 9.575 12H9H8.425C8.425 13.9744 10.0256 15.575 12 15.575V15ZM9 12H9.575C9.575 10.6607 10.6607 9.575 12 9.575V9V8.425C10.0256 8.425 8.425 10.0256 8.425 12H9ZM12 9V9.575C13.3393 9.575 14.425 10.6607 14.425 12H15H15.575C15.575 10.0256 13.9744 8.425 12 8.425V9Z" fill="#130E14"/>
</svg>
