<svg width="24" height="24" viewBox="0 0 24 24" fill="none" xmlns="http://www.w3.org/2000/svg">
<path d="M2.52851 8.7735C2.40341 8.48161 2.06538 8.3464 1.7735 8.47149C1.48161 8.59659 1.3464 8.93462 1.47149 9.2265L2.52851 8.7735ZM15.5872 15.3287L15.3766 14.7937L15.5872 15.3287ZM8.89477 15.6423C9.06796 15.3761 8.99259 15.0199 8.72641 14.8467C8.46023 14.6735 8.10405 14.7489 7.93085 15.0151L8.89477 15.6423ZM6.51804 17.1864C6.34485 17.4526 6.42023 17.8088 6.6864 17.982C6.95258 18.1552 7.30876 18.0798 7.48196 17.8136L6.51804 17.1864ZM22.5285 9.2265C22.6536 8.93462 22.5184 8.59659 22.2265 8.47149C21.9346 8.3464 21.5966 8.48161 21.4715 8.7735L22.5285 9.2265ZM19 13.1288L18.6065 12.7096V12.7096L19 13.1288ZM20.0934 15.0354C20.318 15.26 20.682 15.26 20.9066 15.0354C21.1311 14.8109 21.1311 14.4468 20.9066 14.2223L20.0934 15.0354ZM11.425 18.5C11.425 18.8176 11.6824 19.075 12 19.075C12.3176 19.075 12.575 18.8176 12.575 18.5H11.425ZM16.518 17.8136C16.6912 18.0798 17.0474 18.1552 17.3136 17.982C17.5798 17.8088 17.6552 17.4526 17.482 17.1864L16.518 17.8136ZM5.40659 13.5354C5.63114 13.3109 5.63114 12.9468 5.40659 12.7223C5.18203 12.4977 4.81797 12.4977 4.59341 12.7223L5.40659 13.5354ZM3.09341 14.2223C2.86886 14.4468 2.86886 14.8109 3.09341 15.0354C3.31797 15.26 3.68203 15.26 3.90659 15.0354L3.09341 14.2223ZM12 16V15.425C8.71168 15.425 6.35368 13.7859 4.79636 12.1087C4.01786 11.2704 3.44753 10.4302 3.07222 9.79965C2.88489 9.48493 2.74703 9.22395 2.65687 9.04363C2.61182 8.95352 2.57874 8.88368 2.5574 8.8375C2.54674 8.81441 2.53902 8.79725 2.53421 8.78644C2.53181 8.78103 2.53013 8.77722 2.52918 8.77504C2.52871 8.77395 2.52842 8.77328 2.5283 8.77302C2.52825 8.77289 2.52824 8.77286 2.52827 8.77294C2.52829 8.77298 2.52835 8.77312 2.52836 8.77314C2.52843 8.7733 2.52851 8.7735 2 9C1.47149 9.2265 1.4716 9.22675 1.47171 9.22702C1.47177 9.22715 1.4719 9.22745 1.472 9.2277C1.47222 9.2282 1.47249 9.22881 1.4728 9.22953C1.47342 9.23097 1.47422 9.23283 1.47522 9.23511C1.47721 9.23966 1.47994 9.24588 1.48343 9.25372C1.4904 9.2694 1.50038 9.29155 1.5134 9.31973C1.53943 9.37609 1.57764 9.45664 1.62828 9.55793C1.72953 9.76042 1.88074 10.0463 2.08403 10.3879C2.48997 11.0698 3.10714 11.9796 3.95364 12.8913C5.64632 14.7141 8.28832 16.575 12 16.575V16ZM15.5872 15.3287L15.3766 14.7937C14.3867 15.1833 13.2646 15.425 12 15.425V16V16.575C13.4153 16.575 14.68 16.3037 15.7978 15.8637L15.5872 15.3287ZM8.41281 15.3287L7.93085 15.0151L6.51804 17.1864L7 17.5L7.48196 17.8136L8.89477 15.6423L8.41281 15.3287ZM22 9C21.4715 8.7735 21.4715 8.77338 21.4716 8.77328C21.4716 8.77325 21.4716 8.77316 21.4717 8.77311C21.4717 8.77301 21.4717 8.77295 21.4717 8.77292C21.4718 8.77286 21.4717 8.77293 21.4716 8.77313C21.4715 8.77353 21.4711 8.77446 21.4704 8.7759C21.4692 8.77878 21.467 8.78371 21.4639 8.79062C21.4578 8.80444 21.4479 8.82616 21.4344 8.85519C21.4073 8.91327 21.3655 9.00051 21.3085 9.11218C21.1945 9.33563 21.0205 9.65608 20.784 10.0358C20.3098 10.7967 19.59 11.7865 18.6065 12.7096L19 13.1288L19.3935 13.5481C20.4686 12.539 21.2488 11.4643 21.76 10.6439C22.0161 10.2329 22.2061 9.88344 22.333 9.63465C22.3964 9.51019 22.4442 9.41073 22.4767 9.34113C22.4929 9.30632 22.5053 9.27896 22.5139 9.25966C22.5182 9.25001 22.5216 9.24237 22.524 9.23682C22.5252 9.23405 22.5262 9.23179 22.527 9.23007C22.5273 9.22921 22.5277 9.22848 22.5279 9.22788C22.528 9.22759 22.5282 9.22732 22.5283 9.22709C22.5283 9.22698 22.5284 9.22683 22.5284 9.22677C22.5285 9.22663 22.5285 9.2265 22 9ZM19 13.1288L18.6065 12.7096C17.7349 13.5276 16.6627 14.2874 15.3766 14.7937L15.5872 15.3287L15.7978 15.8637C17.2466 15.2935 18.4394 14.4436 19.3935 13.5481L19 13.1288ZM19 13.1288L18.5934 13.5354L20.0934 15.0354L20.5 14.6288L20.9066 14.2223L19.4066 12.7223L19 13.1288ZM12 16H11.425V18.5H12H12.575V16H12ZM15.5872 15.3287L15.1052 15.6423L16.518 17.8136L17 17.5L17.482 17.1864L16.0691 15.0151L15.5872 15.3287ZM5 13.1288L4.59341 12.7223L3.09341 14.2223L3.5 14.6288L3.90659 15.0354L5.40659 13.5354L5 13.1288Z" fill="#130E14"/>
</svg>
