<svg width="24" height="24" viewBox="0 0 24 24" fill="none" xmlns="http://www.w3.org/2000/svg">
<path d="M4.97883 9.68508C2.99294 8.89073 2 8.49355 2 8C2 7.50645 2.99294 7.10927 4.97883 6.31492L7.7873 5.19153C9.77318 4.39718 10.7661 4 12 4C13.2339 4 14.2268 4.39718 16.2127 5.19153L19.0212 6.31492C21.0071 7.10927 22 7.50645 22 8C22 8.49355 21.0071 8.89073 19.0212 9.68508L16.2127 10.8085C14.2268 11.6028 13.2339 12 12 12C10.7661 12 9.77318 11.6028 7.7873 10.8085L4.97883 9.68508Z" stroke="#130E14" stroke-width="1.15"/>
</svg>
