<svg width="24" height="24" viewBox="0 0 24 24" fill="none" xmlns="http://www.w3.org/2000/svg">
<path d="M11.425 21C11.425 21.3176 11.6824 21.575 12 21.575C12.3176 21.575 12.575 21.3176 12.575 21H11.425ZM12.575 2C12.575 1.68244 12.3176 1.425 12 1.425C11.6824 1.425 11.425 1.68244 11.425 2H12.575ZM2 14.425C1.68244 14.425 1.425 14.6824 1.425 15C1.425 15.3176 1.68244 15.575 2 15.575V14.425ZM22 15.575C22.3176 15.575 22.575 15.3176 22.575 15C22.575 14.6824 22.3176 14.425 22 14.425V15.575ZM12 21H12.575V2H12H11.425V21H12ZM10 2V2.575H14V2V1.425H10V2ZM22 10H21.425V13H22H22.575V10H22ZM14 21V20.425H10V21V21.575H14V21ZM2 13H2.575V10H2H1.425V13H2ZM10 21V20.425C8.09813 20.425 6.72957 20.4238 5.68753 20.2837C4.66204 20.1458 4.0393 19.883 3.57816 19.4218L3.17157 19.8284L2.76499 20.235C3.47542 20.9454 4.38128 21.2684 5.5343 21.4234C6.67077 21.5762 8.13064 21.575 10 21.575V21ZM2 13H1.425C1.425 14.8694 1.42378 16.3292 1.57657 17.4657C1.73159 18.6187 2.05456 19.5246 2.76499 20.235L3.17157 19.8284L3.57816 19.4218C3.11702 18.9607 2.85419 18.338 2.71632 17.3125C2.57622 16.2704 2.575 14.9019 2.575 13H2ZM22 13H21.425C21.425 14.9019 21.4238 16.2704 21.2837 17.3125C21.1458 18.338 20.883 18.9607 20.4218 19.4218L20.8284 19.8284L21.235 20.235C21.9454 19.5246 22.2684 18.6187 22.4234 17.4657C22.5762 16.3292 22.575 14.8694 22.575 13H22ZM14 21V21.575C15.8694 21.575 17.3292 21.5762 18.4657 21.4234C19.6187 21.2684 20.5246 20.9454 21.235 20.235L20.8284 19.8284L20.4218 19.4218C19.9607 19.883 19.338 20.1458 18.3125 20.2837C17.2704 20.4238 15.9019 20.425 14 20.425V21ZM14 2V2.575C15.9019 2.575 17.2704 2.57622 18.3125 2.71632C19.338 2.85419 19.9607 3.11702 20.4218 3.57816L20.8284 3.17157L21.235 2.76499C20.5246 2.05456 19.6187 1.73159 18.4657 1.57657C17.3292 1.42378 15.8694 1.425 14 1.425V2ZM22 10H22.575C22.575 8.13064 22.5762 6.67077 22.4234 5.5343C22.2684 4.38128 21.9454 3.47542 21.235 2.76499L20.8284 3.17157L20.4218 3.57816C20.883 4.0393 21.1458 4.66204 21.2837 5.68753C21.4238 6.72957 21.425 8.09813 21.425 10H22ZM10 2V1.425C8.13064 1.425 6.67077 1.42378 5.5343 1.57657C4.38128 1.73159 3.47542 2.05456 2.76499 2.76499L3.17157 3.17157L3.57816 3.57816C4.0393 3.11702 4.66204 2.85419 5.68753 2.71632C6.72957 2.57622 8.09813 2.575 10 2.575V2ZM2 10H2.575C2.575 8.09813 2.57622 6.72957 2.71632 5.68753C2.85419 4.66204 3.11702 4.0393 3.57816 3.57816L3.17157 3.17157L2.76499 2.76499C2.05456 3.47542 1.73159 4.38128 1.57657 5.5343C1.42378 6.67077 1.425 8.13064 1.425 10H2ZM2 15V15.575H22V15V14.425H2V15Z" fill="#130E14"/>
</svg>
