<svg width="24" height="24" viewBox="0 0 24 24" fill="none" xmlns="http://www.w3.org/2000/svg">
<path fill-rule="evenodd" clip-rule="evenodd" d="M17.1902 1.42499C19.2953 1.42499 20.9495 3.24058 20.7436 5.34436L20.2643 14.0416C20.2553 14.2049 20.1772 14.3566 20.0496 14.4588C19.922 14.561 19.7569 14.604 19.5956 14.5772L19.5944 14.577C19.5921 14.5767 19.5865 14.5762 19.5759 14.5758C19.5582 14.5751 19.5376 14.575 19.5002 14.575H4.50015C4.46269 14.575 4.44206 14.5751 4.42438 14.5758C4.40879 14.5764 4.40468 14.5772 4.40468 14.5772C4.24341 14.604 4.07832 14.561 3.9507 14.4588C3.82309 14.3566 3.74502 14.2049 3.73602 14.0416L3.25672 5.34435C3.0508 3.24058 4.70501 1.42499 6.81015 1.42499H17.1902ZM6.81015 2.57499C5.3799 2.57499 4.25674 3.81145 4.4022 5.24181C4.4031 5.25064 4.40379 5.25949 4.40428 5.26835L4.85379 13.425H19.1465L19.596 5.26835C19.5965 5.25949 19.5972 5.25064 19.5981 5.24181C19.7436 3.81145 18.6204 2.57499 17.1902 2.57499H12.575V3.99999C12.575 4.31755 12.3176 4.57499 12 4.57499C11.6824 4.57499 11.425 4.31755 11.425 3.99999V2.57499H8.56522V6.99999C8.56522 7.31755 8.30779 7.57499 7.99022 7.57499C7.67266 7.57499 7.41522 7.31755 7.41522 6.99999V2.57499H6.81015Z" fill="#4958F2"/>
</svg>
