<svg width="24" height="24" viewBox="0 0 24 24" fill="none" xmlns="http://www.w3.org/2000/svg">
<path d="M12.0033 16.8986C12.4451 16.8987 12.8031 17.2566 12.8031 17.6984C12.8031 18.1402 12.4451 18.4981 12.0033 18.4982C11.5615 18.4982 11.2035 18.1402 11.2035 17.6984C11.2035 17.2566 11.5615 16.8986 12.0033 16.8986ZM12.0004 9.92497C13.1462 9.92517 14.0756 10.8543 14.0756 12.0002C14.0755 12.7615 13.6649 13.4269 13.056 13.7873C12.8973 13.8812 12.7642 13.9845 12.6771 14.0871C12.5928 14.1866 12.5756 14.2552 12.5756 14.3V15.3C12.5755 15.6173 12.3177 15.875 12.0004 15.8752C11.6829 15.8752 11.4253 15.6175 11.4252 15.3V14.3C11.4252 13.903 11.5996 13.5804 11.8012 13.3429C12.0003 13.1083 12.2487 12.928 12.4701 12.797C12.7436 12.6351 12.9251 12.3384 12.9252 12.0002C12.9252 11.4894 12.5111 11.0756 12.0004 11.0754C11.4895 11.0754 11.0756 11.4893 11.0756 12.0002C11.0755 12.3175 10.8177 12.5752 10.5004 12.5754C10.1829 12.5754 9.92528 12.3176 9.92519 12.0002C9.92519 10.8542 10.8544 9.92497 12.0004 9.92497ZM15.2602 1.42497C15.505 1.42497 15.674 1.4241 15.8187 1.43961L16.0609 1.4777C17.2491 1.72028 18.1209 2.77005 18.1185 4.00504C19.4601 4.33771 20.3804 5.66673 20.1293 7.09977L18.9965 6.90055C19.1632 5.94799 18.4303 5.07571 17.4633 5.07536H6.53945C5.57219 5.07536 4.83858 5.94783 5.00527 6.90055L3.87246 7.09977C3.62136 5.66678 4.54172 4.33776 5.8832 4.00504C5.88069 2.68744 6.87382 1.58022 8.18398 1.43961L8.42519 1.42692C8.51608 1.42519 8.62008 1.42497 8.74257 1.42497H15.2602ZM8.44667 2.57633L8.30605 2.58317C7.60714 2.65831 7.07278 3.23062 7.03652 3.92497H16.9662C16.9299 3.23065 16.3946 2.65836 15.6957 2.58317C15.6278 2.57592 15.5354 2.57536 15.2602 2.57536H8.74257C8.60504 2.57536 8.51261 2.57522 8.44667 2.57633Z" fill="#4958F2"/>
</svg>
