<svg width="24" height="24" viewBox="0 0 24 24" fill="none" xmlns="http://www.w3.org/2000/svg">
<path d="M16.5568 7.02219L16.5285 6.44788L16.5568 7.02219ZM14.7 7.27128L14.5464 6.71717L14.5464 6.71717L14.7 7.27128ZM12.5219 8.2709L12.234 7.77321V7.77321L12.5219 8.2709ZM7.48717 7.0614L7.44518 7.63486L7.48717 7.0614ZM9 7.27128L8.86352 7.82985L9 7.27128ZM11.4646 8.29367L11.1974 8.80279L11.4646 8.29367ZM12.5074 16.7228L12.7755 17.2315H12.7755L12.5074 16.7228ZM15 15.6857L14.8635 15.1271H14.8635L15 15.6857ZM16.4901 15.4775L16.5328 16.0509H16.5328L16.4901 15.4775ZM11.4926 16.7228L11.2245 17.2315H11.2245L11.4926 16.7228ZM9 15.6857L9.13648 15.1271L9 15.6857ZM7.50991 15.4775L7.46715 16.0509H7.46715L7.50991 15.4775ZM6 13.9113H6.575V8.49698H6H5.425V13.9113H6ZM18 13.9113H18.575V8.45203H18H17.425V13.9113H18ZM16.5568 7.02219L16.5285 6.44788C15.9021 6.47865 15.1501 6.54982 14.5464 6.71717L14.7 7.27128L14.8536 7.82538C15.3307 7.69313 15.979 7.62626 16.585 7.5965L16.5568 7.02219ZM14.7 7.27128L14.5464 6.71717C13.7377 6.94134 12.789 7.4521 12.234 7.77321L12.5219 8.2709L12.8099 8.7686C13.3615 8.44942 14.1993 8.00675 14.8536 7.82538L14.7 7.27128ZM7.48717 7.0614L7.44518 7.63486C7.94771 7.67166 8.46627 7.73278 8.86352 7.82985L9 7.27128L9.13648 6.71271C8.64557 6.59276 8.05162 6.52619 7.52916 6.48793L7.48717 7.0614ZM9 7.27128L8.86352 7.82985C9.61241 8.01282 10.5846 8.48114 11.1974 8.80279L11.4646 8.29367L11.7318 7.78454C11.1174 7.46203 10.0354 6.93235 9.13648 6.71271L9 7.27128ZM12.5074 16.7228L12.7755 17.2315C13.3851 16.9103 14.3756 16.4301 15.1365 16.2442L15 15.6857L14.8635 15.1271C13.9513 15.35 12.8498 15.8925 12.2394 16.2141L12.5074 16.7228ZM15 15.6857L15.1365 16.2442C15.5277 16.1487 16.0368 16.0879 16.5328 16.0509L16.4901 15.4775L16.4473 14.9041C15.931 14.9426 15.3474 15.0089 14.8635 15.1271L15 15.6857ZM11.4926 16.7228L11.7606 16.2141C11.1502 15.8925 10.0487 15.35 9.13648 15.1271L9 15.6857L8.86352 16.2442C9.62437 16.4301 10.6149 16.9103 11.2245 17.2315L11.4926 16.7228ZM9 15.6857L9.13648 15.1271C8.65264 15.0089 8.06898 14.9426 7.55267 14.9041L7.50991 15.4775L7.46715 16.0509C7.96318 16.0879 8.47231 16.1487 8.86352 16.2442L9 15.6857ZM18 13.9113H17.425C17.425 14.4161 17.0056 14.8624 16.4473 14.9041L16.4901 15.4775L16.5328 16.0509C17.6357 15.9686 18.575 15.0723 18.575 13.9113H18ZM18 8.45203H18.575C18.575 7.34808 17.6919 6.39074 16.5285 6.44788L16.5568 7.02219L16.585 7.5965C17.0319 7.57455 17.425 7.94375 17.425 8.45203H18ZM6 13.9113H5.425C5.425 15.0723 6.36426 15.9686 7.46715 16.0509L7.50991 15.4775L7.55267 14.9041C6.99442 14.8624 6.575 14.4161 6.575 13.9113H6ZM12.5074 16.7228L12.2394 16.2141C12.0903 16.2926 11.9097 16.2926 11.7606 16.2141L11.4926 16.7228L11.2245 17.2315C11.7091 17.4868 12.2909 17.4868 12.7755 17.2315L12.5074 16.7228ZM12.5219 8.2709L12.234 7.77321C12.0794 7.86264 11.8878 7.86642 11.7318 7.78454L11.4646 8.29367L11.1974 8.80279C11.705 9.06925 12.3157 9.05453 12.8099 8.7686L12.5219 8.2709ZM6 8.49698H6.575C6.575 7.97754 6.98538 7.60119 7.44518 7.63486L7.48717 7.0614L7.52916 6.48793C6.34539 6.40125 5.425 7.36845 5.425 8.49698H6ZM12 8.58594H11.425V17.0003H12H12.575V8.58594H12Z" fill="#4958F2"/>
</svg>
