<svg width="24" height="24" viewBox="0 0 24 24" fill="none" xmlns="http://www.w3.org/2000/svg">
<path d="M10.52 3.56055C6.71 4.01055 3.75 7.24053 3.75 11.1705M20.2495 11.1705C20.2495 7.25053 17.3095 4.03055 13.5195 3.56055M11.5195 5C10.9695 5 10.5195 4.55 10.5195 4V3C10.5195 2.45 10.9695 2 11.5195 2H12.5195C13.0695 2 13.5195 2.45 13.5195 3V4C13.5195 4.55 13.0695 5 12.5195 5H11.5195ZM4.26953 14.17C4.81953 14.17 5.26953 13.72 5.26953 13.17V12.17C5.26953 11.62 4.81953 11.1699 4.26953 11.1699H3.26953C2.71953 11.1699 2.26953 11.62 2.26953 12.17V13.17C2.26953 13.72 2.71953 14.17 3.26953 14.17H4.26953ZM19.7305 14.17C19.1805 14.17 18.7305 13.72 18.7305 13.17V12.17C18.7305 11.62 19.1805 11.1699 19.7305 11.1699H20.7305C21.2805 11.1699 21.7305 11.62 21.7305 12.17V13.17C21.7305 13.72 21.2805 14.17 20.7305 14.17H19.7305Z" stroke="#4958F2" stroke-width="1.15" stroke-linecap="round" stroke-linejoin="round"/>
</svg>
