<svg width="24" height="24" viewBox="0 0 24 24" fill="none" xmlns="http://www.w3.org/2000/svg">
<path d="M10.8468 21.9863L10.9125 21.415H10.9125L10.8468 21.9863ZM12.2619 16.9268L12.7487 17.2329L12.2619 16.9268ZM12.8168 21.2333L12.4097 20.8272H12.4097L12.8168 21.2333ZM12.8168 18.8607L12.4097 19.2668H12.4097L12.8168 18.8607ZM12 12.7747L11.6186 12.3444C11.4963 12.4528 11.4259 12.6082 11.425 12.7716C11.4241 12.9351 11.4929 13.0912 11.614 13.2009L12 12.7747ZM12.6583 9.99557L12.5068 9.4409C12.349 9.48403 12.217 9.59234 12.1439 9.73873C12.0708 9.88511 12.0635 10.0557 12.1239 10.2078L12.6583 9.99557ZM14.325 8.50391L14.4757 7.94902C14.1933 7.8723 13.8984 8.01992 13.7905 8.29195L14.325 8.50391ZM10.8468 21.9863L10.9125 21.415C6.22093 20.8749 2.575 16.878 2.575 12.0261H2H1.425C1.425 17.4666 5.51333 21.9511 10.781 22.5575L10.8468 21.9863ZM2 12.0261H2.575C2.575 6.80499 6.79613 2.575 12 2.575V2V1.425C6.15818 1.425 1.425 6.17269 1.425 12.0261H2ZM12 2V2.575C17.2039 2.575 21.425 6.80499 21.425 12.0261H22H22.575C22.575 6.17269 17.8418 1.425 12 1.425V2ZM22 12.0261H21.425C21.425 13.9819 20.9354 14.9433 20.3362 15.4331C19.7183 15.9382 18.8344 16.0707 17.7497 16.0187C17.2164 15.9932 16.6661 15.9253 16.1096 15.8534C15.5624 15.7827 15.0009 15.707 14.4834 15.6756C13.9691 15.6444 13.449 15.6529 12.9866 15.7746C12.5099 15.9 12.0687 16.1539 11.7751 16.6208L12.2619 16.9268L12.7487 17.2329C12.8493 17.0729 13.008 16.9581 13.2793 16.8867C13.5651 16.8115 13.9413 16.7948 14.4138 16.8235C14.8832 16.852 15.3991 16.9212 15.9623 16.9939C16.5162 17.0654 17.1092 17.1393 17.6947 17.1674C18.8475 17.2227 20.1024 17.1097 21.0641 16.3235C22.0444 15.522 22.575 14.1463 22.575 12.0261H22ZM12.8168 21.2333L13.2239 21.6393C14.1012 20.7597 14.1012 19.3343 13.2239 18.4547L12.8168 18.8607L12.4097 19.2668C12.8393 19.6975 12.8393 20.3965 12.4097 20.8272L12.8168 21.2333ZM12.2619 16.9268L11.7751 16.6208C11.4564 17.1276 11.4915 17.6766 11.6545 18.1278C11.8143 18.5701 12.1095 18.9658 12.4097 19.2668L12.8168 18.8607L13.2239 18.4547C13.0011 18.2313 12.8216 17.9737 12.7361 17.737C12.6538 17.5092 12.6729 17.3534 12.7487 17.2329L12.2619 16.9268ZM10.8468 21.9863L10.781 22.5575C11.7246 22.6661 12.6034 22.2615 13.2239 21.6393L12.8168 21.2333L12.4097 20.8272C11.9842 21.2538 11.4385 21.4756 10.9125 21.415L10.8468 21.9863ZM13.6667 13.4164V12.8414C13.1727 12.8414 12.7257 12.6562 12.386 12.3485L12 12.7747L11.614 13.2009C12.1577 13.6933 12.8773 13.9914 13.6667 13.9914V13.4164ZM12 12.7747L12.3814 13.2051C13.0133 12.6451 13.4083 11.8234 13.4083 10.9164H12.8333H12.2583C12.2583 11.4844 12.0117 11.9961 11.6186 12.3444L12 12.7747ZM12.8333 10.9164H13.4083C13.4083 10.5178 13.3317 10.1333 13.1927 9.78338L12.6583 9.99557L12.1239 10.2078C12.21 10.4245 12.2583 10.665 12.2583 10.9164H12.8333ZM12.6583 9.99557L12.8099 10.5502C13.7482 10.2939 14.5059 9.60768 14.8595 8.71587L14.325 8.50391L13.7905 8.29195C13.5691 8.85013 13.0935 9.2806 12.5068 9.4409L12.6583 9.99557ZM14.325 8.50391L14.1743 9.0588C14.9882 9.27991 15.5917 10.0321 15.5917 10.9164H16.1667H16.7417C16.7417 9.50067 15.7784 8.3029 14.4757 7.94902L14.325 8.50391ZM16.1667 10.9164H15.5917C15.5917 11.978 14.7283 12.8414 13.6667 12.8414V13.4164V13.9914C15.3634 13.9914 16.7417 12.6131 16.7417 10.9164H16.1667Z" fill="#130E14"/>
</svg>
