<svg width="24" height="24" viewBox="0 0 24 24" fill="none" xmlns="http://www.w3.org/2000/svg">
<path d="M12.0026 12.7747C11.5609 13.1747 10.9776 13.4164 10.3359 13.4164C8.95677 13.4164 7.83594 12.2956 7.83594 10.9164C7.83594 9.76641 8.61927 8.79141 9.6776 8.50391C9.9651 9.22891 10.5818 9.78724 11.3443 9.99557C11.5526 10.0539 11.7734 10.0831 12.0026 10.0831C12.2318 10.0831 12.4526 10.0539 12.6609 9.99557C12.7734 10.2789 12.8359 10.5914 12.8359 10.9164C12.8359 11.6539 12.5151 12.3206 12.0026 12.7747Z" stroke="#4958F2" stroke-width="1.15" stroke-linecap="round" stroke-linejoin="round"/>
<path d="M14.327 8.50482C14.0395 9.22982 13.4228 9.78815 12.6603 9.99648C12.452 10.0548 12.2311 10.084 12.002 10.084C11.7728 10.084 11.552 10.0548 11.3436 9.99648C10.5811 9.78815 9.96445 9.22982 9.67695 8.50482C9.56445 8.22148 9.50195 7.90898 9.50195 7.58398C9.50195 6.20482 10.6228 5.08398 12.002 5.08398C13.3811 5.08398 14.502 6.20482 14.502 7.58398C14.502 7.90898 14.4395 8.22148 14.327 8.50482Z" stroke="#4958F2" stroke-width="1.15" stroke-linecap="round" stroke-linejoin="round"/>
</svg>
