<svg width="24" height="24" viewBox="0 0 24 24" fill="none" xmlns="http://www.w3.org/2000/svg">
<path d="M11.425 20C11.425 20.3176 11.6824 20.575 12 20.575C12.3176 20.575 12.575 20.3176 12.575 20H11.425ZM12.575 2C12.575 1.68244 12.3176 1.425 12 1.425C11.6824 1.425 11.425 1.68244 11.425 2H12.575ZM12 20H12.575V2H12H11.425V20H12ZM10 2V2.575H14V2V1.425H10V2ZM22 10H21.425V12H22H22.575V10H22ZM14 20V19.425H10V20V20.575H14V20ZM2 12H2.575V10H2H1.425V12H2ZM10 20V19.425C8.09813 19.425 6.72957 19.4238 5.68753 19.2837C4.66204 19.1458 4.0393 18.883 3.57816 18.4218L3.17157 18.8284L2.76499 19.235C3.47542 19.9454 4.38128 20.2684 5.5343 20.4234C6.67077 20.5762 8.13064 20.575 10 20.575V20ZM2 12H1.425C1.425 13.8694 1.42378 15.3292 1.57657 16.4657C1.73159 17.6187 2.05456 18.5246 2.76499 19.235L3.17157 18.8284L3.57816 18.4218C3.11702 17.9607 2.85419 17.338 2.71632 16.3125C2.57622 15.2704 2.575 13.9019 2.575 12H2ZM22 12H21.425C21.425 13.9019 21.4238 15.2704 21.2837 16.3125C21.1458 17.338 20.883 17.9607 20.4218 18.4218L20.8284 18.8284L21.235 19.235C21.9454 18.5246 22.2684 17.6187 22.4234 16.4657C22.5762 15.3292 22.575 13.8694 22.575 12H22ZM14 20V20.575C15.8694 20.575 17.3292 20.5762 18.4657 20.4234C19.6187 20.2684 20.5246 19.9454 21.235 19.235L20.8284 18.8284L20.4218 18.4218C19.9607 18.883 19.338 19.1458 18.3125 19.2837C17.2704 19.4238 15.9019 19.425 14 19.425V20ZM14 2V2.575C15.9019 2.575 17.2704 2.57622 18.3125 2.71632C19.338 2.85419 19.9607 3.11702 20.4218 3.57816L20.8284 3.17157L21.235 2.76499C20.5246 2.05456 19.6187 1.73159 18.4657 1.57657C17.3292 1.42378 15.8694 1.425 14 1.425V2ZM22 10H22.575C22.575 8.13064 22.5762 6.67077 22.4234 5.5343C22.2684 4.38128 21.9454 3.47542 21.235 2.76499L20.8284 3.17157L20.4218 3.57816C20.883 4.0393 21.1458 4.66204 21.2837 5.68753C21.4238 6.72957 21.425 8.09813 21.425 10H22ZM10 2V1.425C8.13064 1.425 6.67077 1.42378 5.5343 1.57657C4.38128 1.73159 3.47542 2.05456 2.76499 2.76499L3.17157 3.17157L3.57816 3.57816C4.0393 3.11702 4.66204 2.85419 5.68753 2.71632C6.72957 2.57622 8.09813 2.575 10 2.575V2ZM2 10H2.575C2.575 8.09813 2.57622 6.72957 2.71632 5.68753C2.85419 4.66204 3.11702 4.0393 3.57816 3.57816L3.17157 3.17157L2.76499 2.76499C2.05456 3.47542 1.73159 4.38128 1.57657 5.5343C1.42378 6.67077 1.425 8.13064 1.425 10H2Z" fill="#130E14"/>
</svg>
