<svg width="24" height="24" viewBox="0 0 24 24" fill="none" xmlns="http://www.w3.org/2000/svg">
<path d="M13.8876 9.93487C14.9625 10.8117 15.5 11.2502 15.5 12.0001C15.5 12.7499 14.9625 13.1884 13.8876 14.0653C13.5909 14.3073 13.2966 14.5352 13.0261 14.7251C12.7888 14.8918 12.5201 15.0641 12.2419 15.2333C11.1695 15.8854 10.6333 16.2115 10.1524 15.8505C9.6715 15.4895 9.62779 14.7337 9.54038 13.2222C9.51566 12.7948 9.5 12.3757 9.5 12.0001C9.5 11.6244 9.51566 11.2054 9.54038 10.7779C9.62779 9.26642 9.6715 8.51067 10.1524 8.14966C10.6333 7.78865 11.1695 8.11472 12.2419 8.76685C12.5201 8.93603 12.7888 9.10837 13.0261 9.27498C13.2966 9.46489 13.5909 9.6928 13.8876 9.93487Z" stroke="#130E14" stroke-width="1.15"/>
</svg>
