<svg width="24" height="24" viewBox="0 0 24 24" fill="none" xmlns="http://www.w3.org/2000/svg">
<path d="M3.01406 13.8977L3.5879 13.8612L3.01406 13.8977ZM9.90183 20.4555L9.92342 19.8809L9.90183 20.4555ZM9.29467 20.4186L9.35261 19.8466L9.29467 20.4186ZM20.9859 13.8977L20.4121 13.8612L20.9859 13.8977ZM14.0982 20.4555L14.0766 19.8809L14.0982 20.4555ZM14.7053 20.4186L14.6474 19.8466L14.7053 20.4186ZM20.0649 12.0021L20.1022 11.4283L20.0649 12.0021ZM20.9979 12.9351L21.5717 12.8978L20.9979 12.9351ZM3.93511 12.0021L3.8978 11.4283L3.93511 12.0021ZM3.00211 12.9351L2.42832 12.8978L3.00211 12.9351ZM2 11.425C1.68244 11.425 1.425 11.6824 1.425 12C1.425 12.3176 1.68244 12.575 2 12.575V11.425ZM22 12.575C22.3176 12.575 22.575 12.3176 22.575 12C22.575 11.6824 22.3176 11.425 22 11.425V12.575ZM7.97894 4.44719L8.23062 4.96419L7.97894 4.44719ZM6.3622 6.19238L6.89495 6.40873L6.3622 6.19238ZM10.5771 4.37789L10.3512 4.90666L10.5771 4.37789ZM6.34567 8.74162L5.81071 8.95241C5.86775 9.09719 5.98104 9.21266 6.12469 9.27246C6.26835 9.33226 6.43011 9.33129 6.57304 9.26976L6.34567 8.74162ZM12.3064 6.17554L12.5338 6.70368C12.8191 6.58087 12.9553 6.25371 12.8414 5.96475L12.3064 6.17554ZM4.08268 12V12.575H19.9173V12V11.425H4.08268V12ZM14.0982 20.4555L14.0766 19.8809C13.3471 19.9083 12.64 19.925 12 19.925V20.5V21.075C12.6587 21.075 13.3809 21.0579 14.1198 21.0301L14.0982 20.4555ZM12 20.5V19.925C11.36 19.925 10.6529 19.9083 9.92342 19.8809L9.90183 20.4555L9.88025 21.0301C10.6191 21.0579 11.3413 21.075 12 21.075V20.5ZM3 13.0827H2.425C2.425 13.473 2.42476 13.6907 2.44021 13.9341L3.01406 13.8977L3.5879 13.8612C3.57524 13.6617 3.575 13.4837 3.575 13.0827H3ZM9.90183 20.4555L9.92342 19.8809C9.66638 19.8713 9.55359 19.8669 9.35261 19.8466L9.29467 20.4186L9.23673 20.9907C9.47732 21.0151 9.62212 21.0204 9.88025 21.0301L9.90183 20.4555ZM3.01406 13.8977L2.44021 13.9341C2.66669 17.5025 5.67928 20.6304 9.23673 20.9907L9.29467 20.4186L9.35261 19.8466C6.35482 19.543 3.77875 16.8683 3.5879 13.8612L3.01406 13.8977ZM21 13.0827H20.425C20.425 13.4837 20.4248 13.6617 20.4121 13.8612L20.9859 13.8977L21.5598 13.9341C21.5752 13.6907 21.575 13.473 21.575 13.0827H21ZM14.0982 20.4555L14.1198 21.0301C14.3779 21.0204 14.5227 21.0151 14.7633 20.9907L14.7053 20.4186L14.6474 19.8466C14.4464 19.8669 14.3336 19.8713 14.0766 19.8809L14.0982 20.4555ZM20.9859 13.8977L20.4121 13.8612C20.2212 16.8683 17.6452 19.543 14.6474 19.8466L14.7053 20.4186L14.7633 20.9907C18.3207 20.6304 21.3333 17.5026 21.5598 13.9341L20.9859 13.8977ZM19.9173 12V12.575C20.0031 12.575 20.0185 12.5753 20.0276 12.5759L20.0649 12.0021L20.1022 11.4283C20.0465 11.4247 19.9851 11.425 19.9173 11.425V12ZM21 13.0827H21.575C21.575 13.0149 21.5753 12.9535 21.5717 12.8978L20.9979 12.9351L20.4241 12.9724C20.4247 12.9815 20.425 12.9969 20.425 13.0827H21ZM20.0649 12.0021L20.0276 12.5759C20.2406 12.5897 20.4103 12.7594 20.4241 12.9724L20.9979 12.9351L21.5717 12.8978C21.5204 12.1085 20.8915 11.4796 20.1022 11.4283L20.0649 12.0021ZM4.08268 12V11.425C4.01494 11.425 3.95354 11.4247 3.8978 11.4283L3.93511 12.0021L3.97242 12.5759C3.9815 12.5753 3.99687 12.575 4.08268 12.575V12ZM3 13.0827H3.575C3.575 12.9969 3.57531 12.9815 3.5759 12.9724L3.00211 12.9351L2.42832 12.8978C2.42469 12.9535 2.425 13.0149 2.425 13.0827H3ZM3.93511 12.0021L3.8978 11.4283C3.10847 11.4796 2.47965 12.1085 2.42832 12.8978L3.00211 12.9351L3.5759 12.9724C3.58975 12.7594 3.75943 12.5897 3.97242 12.5759L3.93511 12.0021ZM2 12V12.575H22V12V11.425H2V12ZM6.34567 8.74162L6.88064 8.53083C6.62302 7.87701 6.60686 7.11814 6.89495 6.40873L6.3622 6.19238L5.82946 5.97604C5.42661 6.96804 5.44842 8.03297 5.81071 8.95241L6.34567 8.74162ZM12.3064 6.17554L12.0791 5.6474L6.11831 8.21348L6.34567 8.74162L6.57304 9.26976L12.5338 6.70368L12.3064 6.17554ZM10.5771 4.37789L10.3512 4.90666C11.0187 5.19183 11.514 5.7328 11.7715 6.38633L12.3064 6.17554L12.8414 5.96475C12.479 5.04501 11.7724 4.26325 10.803 3.84912L10.5771 4.37789ZM6.3622 6.19238L6.89495 6.40873C7.16559 5.74227 7.65345 5.24516 8.23062 4.96419L7.97894 4.44719L7.72726 3.9302C6.89836 4.33372 6.20829 5.04316 5.82946 5.97604L6.3622 6.19238ZM7.97894 4.44719L8.23062 4.96419C8.88127 4.64744 9.64484 4.60489 10.3512 4.90666L10.5771 4.37789L10.803 3.84912C9.77425 3.40963 8.66217 3.47508 7.72726 3.9302L7.97894 4.44719Z" fill="#130E14"/>
</svg>
