<svg width="24" height="24" viewBox="0 0 24 24" fill="none" xmlns="http://www.w3.org/2000/svg">
<path d="M12.0013 10.9248C12.3188 10.9248 12.5765 11.1824 12.5765 11.5V13.9248H15.0013L15.1175 13.9365C15.3794 13.9902 15.5765 14.2222 15.5765 14.5C15.5765 14.7777 15.3794 15.0097 15.1175 15.0635L15.0013 15.0752H12.5765V17.5C12.5765 17.8175 12.3188 18.0752 12.0013 18.0752C11.6838 18.075 11.4261 17.8174 11.4261 17.5V15.0752H9.00128C8.68385 15.075 8.42608 14.8174 8.42608 14.5C8.42609 14.1825 8.68385 13.9249 9.00128 13.9248H11.4261V11.5C11.4261 11.1825 11.6838 10.9249 12.0013 10.9248Z" fill="#4958F2"/>
<path fill-rule="evenodd" clip-rule="evenodd" d="M15.263 1.42381C15.5077 1.4238 15.677 1.42295 15.8216 1.43846L16.0638 1.47654C17.2518 1.71924 18.1237 2.76903 18.1214 4.00388C19.4627 4.33666 20.3831 5.66575 20.1321 7.09861L20.1302 7.09763L18.9974 6.89939C19.1536 6.00633 18.5187 5.18341 17.6419 5.08396L17.4642 5.0742H6.5423C5.57504 5.0742 4.84143 5.94668 5.00812 6.89939L3.8753 7.09861L3.87433 7.09763L3.87335 7.09861C3.62231 5.66575 4.54279 4.33673 5.88409 4.00388C5.88162 2.68642 6.87489 1.5792 8.18487 1.43846L8.42608 1.42576C8.5168 1.42404 8.62129 1.42381 8.74347 1.42381H15.263ZM8.44952 2.57517L8.3089 2.58201C7.61002 2.65715 7.07568 3.2295 7.03937 3.92381H16.9671C16.9332 3.27447 16.4629 2.73155 15.8304 2.60252L15.6966 2.58201C15.6626 2.5784 15.6221 2.57622 15.556 2.57517L15.261 2.5742H8.74542C8.60814 2.5742 8.51543 2.57407 8.44952 2.57517Z" fill="#4958F2"/>
</svg>
