<svg width="24" height="24" viewBox="0 0 24 24" fill="none" xmlns="http://www.w3.org/2000/svg">
<path d="M10 17.075C10.3176 17.075 10.575 16.8176 10.575 16.5C10.575 16.1824 10.3176 15.925 10 15.925V17.075ZM6 15.925C5.68244 15.925 5.425 16.1824 5.425 16.5C5.425 16.8176 5.68244 17.075 6 17.075V15.925ZM8 14.075C8.31756 14.075 8.575 13.8176 8.575 13.5C8.575 13.1824 8.31756 12.925 8 12.925V14.075ZM6 12.925C5.68244 12.925 5.425 13.1824 5.425 13.5C5.425 13.8176 5.68244 14.075 6 14.075V12.925ZM2 9.425C1.68244 9.425 1.425 9.68244 1.425 10C1.425 10.3176 1.68244 10.575 2 10.575V9.425ZM22 10.575C22.3176 10.575 22.575 10.3176 22.575 10C22.575 9.68244 22.3176 9.425 22 9.425V10.575ZM10 16.5V15.925H6V16.5V17.075H10V16.5ZM8 13.5V12.925H6V13.5V14.075H8V13.5ZM2 10V10.575H22V10V9.425H2V10ZM16 17V16.425C15.5123 16.425 15.2044 16.4238 14.9793 16.3935C14.7708 16.3655 14.7213 16.3223 14.6995 16.3005L14.2929 16.7071L13.8863 17.1137C14.1574 17.3848 14.49 17.4881 14.8261 17.5333C15.1456 17.5762 15.5449 17.575 16 17.575V17ZM14 15H13.425C13.425 15.4551 13.4238 15.8544 13.4667 16.1739C13.5119 16.51 13.6152 16.8426 13.8863 17.1137L14.2929 16.7071L14.6995 16.3005C14.6777 16.2787 14.6345 16.2292 14.6065 16.0207C14.5762 15.7956 14.575 15.4877 14.575 15H14ZM18 15H17.425C17.425 15.4877 17.4238 15.7956 17.3935 16.0207C17.3655 16.2292 17.3223 16.2787 17.3005 16.3005L17.7071 16.7071L18.1137 17.1137C18.3848 16.8426 18.4881 16.51 18.5333 16.1739C18.5762 15.8544 18.575 15.4551 18.575 15H18ZM16 17V17.575C16.4551 17.575 16.8544 17.5762 17.1739 17.5333C17.51 17.4881 17.8426 17.3848 18.1137 17.1137L17.7071 16.7071L17.3005 16.3005C17.2787 16.3223 17.2292 16.3655 17.0207 16.3935C16.7956 16.4238 16.4877 16.425 16 16.425V17ZM16 13V13.575C16.4877 13.575 16.7956 13.5762 17.0207 13.6065C17.2292 13.6345 17.2787 13.6777 17.3005 13.6995L17.7071 13.2929L18.1137 12.8863C17.8426 12.6152 17.51 12.5119 17.1739 12.4667C16.8544 12.4238 16.4551 12.425 16 12.425V13ZM18 15H18.575C18.575 14.5449 18.5762 14.1456 18.5333 13.8261C18.4881 13.49 18.3848 13.1574 18.1137 12.8863L17.7071 13.2929L17.3005 13.6995C17.3223 13.7213 17.3655 13.7708 17.3935 13.9793C17.4238 14.2044 17.425 14.5123 17.425 15H18ZM16 13V12.425C15.5449 12.425 15.1456 12.4238 14.8261 12.4667C14.49 12.5119 14.1574 12.6152 13.8863 12.8863L14.2929 13.2929L14.6995 13.6995C14.7213 13.6777 14.7708 13.6345 14.9793 13.6065C15.2044 13.5762 15.5123 13.575 16 13.575V13ZM14 15H14.575C14.575 14.5123 14.5762 14.2044 14.6065 13.9793C14.6345 13.7708 14.6777 13.7213 14.6995 13.6995L14.2929 13.2929L13.8863 12.8863C13.6152 13.1574 13.5119 13.49 13.4667 13.8261C13.4238 14.1456 13.425 14.5449 13.425 15H14Z" fill="#4958F2"/>
</svg>
