<svg width="24" height="24" viewBox="0 0 24 24" fill="none" xmlns="http://www.w3.org/2000/svg">
<path d="M15.4286 4.28571L15.9741 4.10388V4.10388L15.4286 4.28571ZM15.5257 4.57697L14.9802 4.75881L14.9802 4.75881L15.5257 4.57697ZM8.47433 4.57697L7.92884 4.39514L7.92884 4.39515L8.47433 4.57697ZM8.57142 4.28571L8.02593 4.10388V4.10388L8.57142 4.28571ZM8.43921 4.68032L8.97992 4.87591L8.97992 4.87591L8.43921 4.68032ZM6.49999 5.425C6.18243 5.425 5.92499 5.68244 5.92499 6C5.92499 6.31756 6.18243 6.575 6.49999 6.575V5.425ZM6.60914 5.99936L6.62371 6.57417H6.62371L6.60914 5.99936ZM15.5608 4.68032L16.1015 4.48473L16.1015 4.48471L15.5608 4.68032ZM17.5 6.575C17.8176 6.575 18.075 6.31756 18.075 6C18.075 5.68244 17.8176 5.425 17.5 5.425V6.575ZM17.3908 5.99936L17.3763 6.57417H17.3763L17.3908 5.99936ZM14.1554 3.01877L14.2461 2.45096L14.1554 3.01877ZM15.2493 3.8072L15.7593 3.54163L15.7593 3.54163L15.2493 3.8072ZM9.8446 3.01877L9.75393 2.45096L9.8446 3.01877ZM8.75071 3.8072L8.24071 3.54163L8.24071 3.54163L8.75071 3.8072ZM20.5 6.575C20.8176 6.575 21.075 6.31756 21.075 6C21.075 5.68244 20.8176 5.425 20.5 5.425V6.575ZM3.49991 5.425C3.18234 5.425 2.92491 5.68244 2.92491 6C2.92491 6.31756 3.18234 6.575 3.49991 6.575V5.425ZM10.3553 3V3.575H13.6447V3V2.425H10.3553V3ZM15.4286 4.28571L14.8831 4.46755L14.9802 4.75881L15.5257 4.57697L16.0711 4.39514L15.9741 4.10388L15.4286 4.28571ZM8.47433 4.57697L9.01983 4.75881L9.11691 4.46755L8.57142 4.28571L8.02593 4.10388L7.92884 4.39514L8.47433 4.57697ZM8.47433 4.57697L7.92884 4.39515C7.91016 4.45119 7.90404 4.46941 7.8985 4.48473L8.43921 4.68032L8.97992 4.87591C8.99162 4.84357 9.00317 4.80879 9.01983 4.7588L8.47433 4.57697ZM6.49999 6V6.575C6.55268 6.575 6.58933 6.57504 6.62371 6.57417L6.60914 5.99936L6.59458 5.42454C6.57829 5.42496 6.55907 5.425 6.49999 5.425V6ZM8.43921 4.68032L7.8985 4.48473C7.69886 5.03662 7.18128 5.40967 6.59457 5.42454L6.60914 5.99936L6.62371 6.57417C7.68389 6.54731 8.61917 5.87319 8.97992 4.87591L8.43921 4.68032ZM15.5257 4.57697L14.9802 4.75881C14.9967 4.80845 15.0084 4.84365 15.0201 4.87593L15.5608 4.68032L16.1015 4.48471C16.096 4.46948 16.0897 4.4509 16.0711 4.39514L15.5257 4.57697ZM17.5 6V5.425C17.4409 5.425 17.4217 5.42496 17.4054 5.42454L17.3908 5.99936L17.3763 6.57417C17.4107 6.57504 17.4473 6.575 17.5 6.575V6ZM15.5608 4.68032L15.0201 4.87591C15.3808 5.87319 16.3161 6.54731 17.3763 6.57417L17.3908 5.99936L17.4054 5.42454C16.8187 5.40967 16.3011 5.03662 16.1015 4.48473L15.5608 4.68032ZM13.6447 3V3.575C13.9269 3.575 14.0032 3.57674 14.0647 3.58657L14.1554 3.01877L14.2461 2.45096C14.0726 2.42326 13.8867 2.425 13.6447 2.425V3ZM15.4286 4.28571L15.9741 4.10388C15.8975 3.87432 15.8404 3.69745 15.7593 3.54163L15.2493 3.8072L14.7393 4.07277C14.7681 4.12806 14.7938 4.19983 14.8831 4.46755L15.4286 4.28571ZM14.1554 3.01877L14.0647 3.58657C14.3538 3.63274 14.604 3.81308 14.7393 4.07277L15.2493 3.8072L15.7593 3.54163C15.4559 2.95907 14.8946 2.55453 14.2461 2.45096L14.1554 3.01877ZM10.3553 3V2.425C10.1133 2.425 9.92741 2.42326 9.75393 2.45096L9.8446 3.01877L9.93527 3.58657C9.99683 3.57674 10.0731 3.575 10.3553 3.575V3ZM8.57142 4.28571L9.11691 4.46755C9.20615 4.19984 9.23191 4.12806 9.2607 4.07277L8.75071 3.8072L8.24071 3.54163C8.15957 3.69745 8.10245 3.87433 8.02593 4.10388L8.57142 4.28571ZM9.8446 3.01877L9.75393 2.45096C9.10533 2.55453 8.54407 2.95907 8.24071 3.54163L8.75071 3.8072L9.2607 4.07277C9.39594 3.81308 9.64614 3.63274 9.93527 3.58657L9.8446 3.01877ZM20.5 6V5.425H3.49991V6V6.575H20.5V6Z" fill="#4958F2"/>
</svg>
