<svg width="16" height="16" viewBox="0 0 16 16" fill="none" xmlns="http://www.w3.org/2000/svg">
<rect width="16" height="16" rx="8" fill="#130E14"/>
<g clip-path="url(#clip0_3036_2696)">
<path fill-rule="evenodd" clip-rule="evenodd" d="M5.18748 7.36552V6.53538C5.18748 5.02915 6.44668 3.80811 7.99998 3.80811C9.55328 3.80811 10.8125 5.02915 10.8125 6.53538V7.36552C11.277 7.39916 11.5794 7.48408 11.8005 7.69848C12.1666 8.0535 12.1666 8.6249 12.1666 9.7677C12.1666 10.9105 12.1666 11.4819 11.8005 11.8369C11.4344 12.1919 10.8452 12.1919 9.66665 12.1919H6.33331C5.1548 12.1919 4.56555 12.1919 4.19943 11.8369C3.83331 11.4819 3.83331 10.9105 3.83331 9.7677C3.83331 8.6249 3.83331 8.0535 4.19943 7.69848C4.42053 7.48408 4.723 7.39916 5.18748 7.36552ZM5.81248 6.53538C5.81248 5.36387 6.79186 4.41417 7.99998 4.41417C9.2081 4.41417 10.1875 5.36387 10.1875 6.53538V7.3449C10.0279 7.34346 9.85478 7.34346 9.66665 7.34346H6.33331C6.14518 7.34346 5.97207 7.34346 5.81248 7.3449V6.53538ZM8.83331 9.7677C8.83331 10.214 8.46022 10.5758 7.99998 10.5758C7.53974 10.5758 7.16665 10.214 7.16665 9.7677C7.16665 9.32141 7.53974 8.95962 7.99998 8.95962C8.46022 8.95962 8.83331 9.32141 8.83331 9.7677Z" fill="white"/>
</g>
<defs>
<clipPath id="clip0_3036_2696">
<rect width="10" height="10" fill="white" transform="translate(3 3)"/>
</clipPath>
</defs>
</svg>
