<svg width="16" height="16" viewBox="0 0 16 16" fill="none" xmlns="http://www.w3.org/2000/svg">
<path fill-rule="evenodd" clip-rule="evenodd" d="M8 14C11.3137 14 14 11.3137 14 8C14 4.68629 11.3137 2 8 2C4.68629 2 2 4.68629 2 8C2 11.3137 4.68629 14 8 14Z" fill="white"/>
<path fill-rule="evenodd" clip-rule="evenodd" d="M8 14C11.3137 14 14 11.3137 14 8C14 4.68629 11.3137 2 8 2C4.68629 2 2 4.68629 2 8C2 11.3137 4.68629 14 8 14ZM6.925 7.5C6.925 7.18244 7.18244 6.925 7.5 6.925H8C8.31756 6.925 8.575 7.18244 8.575 7.5V10.4298C8.85713 10.4666 9.075 10.7079 9.075 11C9.075 11.3176 8.81756 11.575 8.5 11.575H8C7.68244 11.575 7.425 11.3176 7.425 11V8.07015C7.14287 8.0334 6.925 7.79214 6.925 7.5ZM8.625 5.25C8.625 5.66421 8.28921 6 7.875 6C7.46079 6 7.125 5.66421 7.125 5.25C7.125 4.83579 7.46079 4.5 7.875 4.5C8.28921 4.5 8.625 4.83579 8.625 5.25Z" fill="#FF5B30"/>
</svg>
