<svg width="17" height="16" viewBox="0 0 17 16" fill="none" xmlns="http://www.w3.org/2000/svg">
<path fill-rule="evenodd" clip-rule="evenodd" d="M8.5 14C11.8137 14 14.5 11.3137 14.5 8C14.5 4.68629 11.8137 2 8.5 2C5.18629 2 2.5 4.68629 2.5 8C2.5 11.3137 5.18629 14 8.5 14Z" fill="white"/>
<path d="M9.075 10.4298V7.5C9.075 7.18244 8.81756 6.925 8.5 6.925H8C7.68244 6.925 7.425 7.18244 7.425 7.5C7.425 7.79214 7.64287 8.0334 7.925 8.07015V11C7.925 11.3176 8.18244 11.575 8.5 11.575H9M8.375 6C7.96079 6 7.625 5.66421 7.625 5.25C7.625 4.83579 7.96079 4.5 8.375 4.5M14.5 8C14.5 11.3137 11.8137 14 8.5 14C5.18629 14 2.5 11.3137 2.5 8C2.5 4.68629 5.18629 2 8.5 2C11.8137 2 14.5 4.68629 14.5 8Z" stroke="#ECECEC" stroke-width="1.15" stroke-linecap="round" stroke-linejoin="round"/>
<path fill-rule="evenodd" clip-rule="evenodd" d="M8.5 14C11.8137 14 14.5 11.3137 14.5 8C14.5 4.68629 11.8137 2 8.5 2C5.18629 2 2.5 4.68629 2.5 8C2.5 11.3137 5.18629 14 8.5 14ZM7.425 7.5C7.425 7.18244 7.68244 6.925 8 6.925H8.5C8.81756 6.925 9.075 7.18244 9.075 7.5V10.4298C9.35713 10.4666 9.575 10.7079 9.575 11C9.575 11.3176 9.31756 11.575 9 11.575H8.5C8.18244 11.575 7.925 11.3176 7.925 11V8.07015C7.64287 8.0334 7.425 7.79214 7.425 7.5ZM9.125 5.25C9.125 5.66421 8.78921 6 8.375 6C7.96079 6 7.625 5.66421 7.625 5.25C7.625 4.83579 7.96079 4.5 8.375 4.5C8.78921 4.5 9.125 4.83579 9.125 5.25Z" fill="#FF5B30"/>
</svg>
