<svg width="24" height="24" viewBox="0 0 24 24" fill="none" xmlns="http://www.w3.org/2000/svg">
<path d="M17.9142 7.08579L17.5076 7.49237V7.49237L17.9142 7.08579ZM12.575 7C12.575 6.68244 12.3176 6.425 12 6.425C11.6824 6.425 11.425 6.68244 11.425 7H12.575ZM11.425 12C11.425 12.3176 11.6824 12.575 12 12.575C12.3176 12.575 12.575 12.3176 12.575 12H11.425ZM18.425 20C18.425 20.3176 18.6824 20.575 19 20.575C19.3176 20.575 19.575 20.3176 19.575 20H18.425ZM19.575 18.5C19.575 18.1824 19.3176 17.925 19 17.925C18.6824 17.925 18.425 18.1824 18.425 18.5H19.575ZM4.425 20C4.425 20.3176 4.68244 20.575 5 20.575C5.31756 20.575 5.575 20.3176 5.575 20H4.425ZM5.575 18.5C5.575 18.1824 5.31756 17.925 5 17.925C4.68244 17.925 4.425 18.1824 4.425 18.5H5.575ZM9.5 6.5V7.075H14.5V6.5V5.925H9.5V6.5ZM18.5 10.5H17.925V12H18.5H19.075V10.5H18.5ZM5.5 12H6.075V10.5H5.5H4.925V12H5.5ZM14.5 6.5V7.075C15.4591 7.075 16.1205 7.07622 16.6179 7.1431C17.0988 7.20775 17.3394 7.32412 17.5076 7.49237L17.9142 7.08579L18.3208 6.6792C17.9033 6.26166 17.3795 6.08515 16.7712 6.00335C16.1793 5.92378 15.4266 5.925 14.5 5.925V6.5ZM18.5 10.5H19.075C19.075 9.57345 19.0762 8.82069 18.9966 8.22884C18.9149 7.62045 18.7383 7.09674 18.3208 6.6792L17.9142 7.08579L17.5076 7.49237C17.6759 7.66062 17.7923 7.90121 17.8569 8.38207C17.9238 8.87948 17.925 9.54094 17.925 10.5H18.5ZM9.5 6.5V5.925C8.57345 5.925 7.82069 5.92378 7.22884 6.00335C6.62045 6.08515 6.09674 6.26166 5.6792 6.6792L6.08579 7.08579L6.49237 7.49237C6.66062 7.32412 6.90121 7.20775 7.38207 7.1431C7.87948 7.07622 8.54094 7.075 9.5 7.075V6.5ZM5.5 10.5H6.075C6.075 9.54094 6.07622 8.87948 6.1431 8.38207C6.20775 7.90121 6.32412 7.66062 6.49237 7.49237L6.08579 7.08579L5.6792 6.6792C5.26166 7.09674 5.08515 7.62045 5.00335 8.22884C4.92378 8.82069 4.925 9.57345 4.925 10.5H5.5ZM12 7H11.425V12H12H12.575V7H12ZM19 20H19.575V18.5H19H18.425V20H19ZM5 20H5.575V18.5H5H4.425V20H5Z" fill="#4958F2"/>
</svg>
