<svg width="24" height="24" viewBox="0 0 24 24" fill="none" xmlns="http://www.w3.org/2000/svg">
<path d="M18.54 10.1L13.24 4.80005M5.46 10.1L10.76 4.80005M10.37 4.41012C9.9 3.94012 9.9 3.18017 10.37 2.71017L11.15 1.93014C11.62 1.46014 12.38 1.46014 12.85 1.93014L13.63 2.71017C14.1 3.18017 14.1 3.94012 13.63 4.41012L12.85 5.19015C12.38 5.66015 11.62 5.66015 11.15 5.19015L10.37 4.41012ZM20.55 9.81006C21.21 9.81006 21.75 10.3501 21.75 11.0101V12.11C21.75 12.77 21.21 13.3101 20.55 13.3101H19.45C18.79 13.3101 18.25 12.77 18.25 12.11V11.0101C18.25 10.3501 18.79 9.81006 19.45 9.81006H20.55ZM3.45 9.81006C2.79 9.81006 2.25 10.3501 2.25 11.0101V12.11C2.25 12.77 2.79 13.3101 3.45 13.3101H4.55C5.21 13.3101 5.75 12.77 5.75 12.11V11.0101C5.75 10.3501 5.21 9.81006 4.55 9.81006H3.45Z" stroke="#4958F2" stroke-width="1.15" stroke-linecap="round" stroke-linejoin="round"/>
</svg>
