<svg width="24" height="24" viewBox="0 0 24 24" fill="none" xmlns="http://www.w3.org/2000/svg">
<path d="M22 4.23C22 2.64 21.36 2 19.77 2H15.73C14.14 2 13.5 2.64 13.5 4.23V8.27C13.5 9.86 14.14 10.5 15.73 10.5H19.77C21.36 10.5 22 9.86 22 8.27V4.23Z" stroke="#130E14" stroke-width="1.15" stroke-linecap="round" stroke-linejoin="round"/>
<path d="M10.5 15.73C10.5 14.14 9.86 13.5 8.27 13.5H4.23C2.64 13.5 2 14.14 2 15.73V19.77C2 21.36 2.64 22 4.23 22H8.27C9.86 22 10.5 21.36 10.5 19.77V15.73Z" stroke="#130E14" stroke-width="1.15" stroke-linecap="round" stroke-linejoin="round"/>
</svg>
