<svg width="24" height="24" viewBox="0 0 24 24" fill="none" xmlns="http://www.w3.org/2000/svg">
<path d="M20.1213 4.87868L19.7147 5.28527V5.28527L20.1213 4.87868ZM3.87868 4.87868L3.47209 4.47209L3.47209 4.47209L3.87868 4.87868ZM16.0032 3.42675C15.6856 3.42498 15.4268 3.68098 15.425 3.99854C15.4232 4.3161 15.6792 4.57496 15.9968 4.57673L16.0032 3.42675ZM8.0032 4.57673C8.32076 4.57496 8.57676 4.3161 8.57499 3.99854C8.57322 3.68098 8.31436 3.42498 7.9968 3.42675L8.0032 4.57673ZM7 17.425C6.68244 17.425 6.425 17.6824 6.425 18C6.425 18.3176 6.68244 18.575 7 18.575V17.425ZM12.5 18.575C12.8176 18.575 13.075 18.3176 13.075 18C13.075 17.6824 12.8176 17.425 12.5 17.425V18.575ZM21 10H20.425V16H21H21.575V10H21ZM15 22V21.425H9V22V22.575H15V22ZM3 16H3.575V10H3H2.425V16H3ZM9 22V21.425C7.56953 21.425 6.55452 21.4238 5.7848 21.3203C5.03162 21.219 4.59996 21.0294 4.28527 20.7147L3.87868 21.1213L3.47209 21.5279C4.03608 22.0919 4.75086 22.3416 5.63157 22.46C6.49573 22.5762 7.60204 22.575 9 22.575V22ZM3 16H2.425C2.425 17.398 2.42378 18.5043 2.53996 19.3684C2.65837 20.2491 2.90811 20.9639 3.47209 21.5279L3.87868 21.1213L4.28527 20.7147C3.97057 20.4 3.78097 19.9684 3.67971 19.2152C3.57622 18.4455 3.575 17.4305 3.575 16H3ZM21 16H20.425C20.425 17.4305 20.4238 18.4455 20.3203 19.2152C20.219 19.9684 20.0294 20.4 19.7147 20.7147L20.1213 21.1213L20.5279 21.5279C21.0919 20.9639 21.3416 20.2491 21.46 19.3684C21.5762 18.5043 21.575 17.398 21.575 16H21ZM15 22V22.575C16.398 22.575 17.5043 22.5762 18.3684 22.46C19.2491 22.3416 19.9639 22.0919 20.5279 21.5279L20.1213 21.1213L19.7147 20.7147C19.4 21.0294 18.9684 21.219 18.2152 21.3203C17.4455 21.4238 16.4305 21.425 15 21.425V22ZM21 10H21.575C21.575 8.60204 21.5762 7.49573 21.46 6.63157C21.3416 5.75087 21.0919 5.03608 20.5279 4.47209L20.1213 4.87868L19.7147 5.28527C20.0294 5.59997 20.219 6.03162 20.3203 6.7848C20.4238 7.55453 20.425 8.56953 20.425 10H21ZM3 10H3.575C3.575 8.56953 3.57622 7.55452 3.67971 6.7848C3.78097 6.03162 3.97057 5.59997 4.28527 5.28527L3.87868 4.87868L3.47209 4.47209C2.90811 5.03608 2.65837 5.75087 2.53996 6.63157C2.42378 7.49573 2.425 8.60204 2.425 10H3ZM16 4.00174L15.9968 4.57673C17.0889 4.58281 17.8787 4.61091 18.4843 4.72214C19.0734 4.83036 19.4384 5.00898 19.7147 5.28527L20.1213 4.87868L20.5279 4.4721C20.0358 3.98 19.4277 3.7262 18.692 3.59107C17.9728 3.45895 17.0861 3.43278 16.0032 3.42675L16 4.00174ZM8 4.00174L7.9968 3.42675C6.91387 3.43278 6.02722 3.45895 5.30797 3.59107C4.57228 3.7262 3.96418 3.98 3.47209 4.47209L3.87868 4.87868L4.28527 5.28527C4.56156 5.00898 4.92662 4.83036 5.51573 4.72214C6.12128 4.61091 6.9111 4.58281 8.0032 4.57673L8 4.00174ZM7 18V18.575H12.5V18V17.425H7V18Z" fill="#4958F2"/>
</svg>
