<svg width="24" height="24" viewBox="0 0 24 24" fill="none" xmlns="http://www.w3.org/2000/svg">
<path d="M12 3.575C11.6824 3.575 11.425 3.31756 11.425 3C11.425 2.68244 11.6824 2.425 12 2.425V3.575ZM12 21.575C11.6824 21.575 11.425 21.3176 11.425 21C11.425 20.6824 11.6824 20.425 12 20.425V21.575ZM19.8284 19.8284L19.4218 19.4218H19.4218L19.8284 19.8284ZM11.425 2C11.425 1.68244 11.6824 1.425 12 1.425C12.3176 1.425 12.575 1.68244 12.575 2H11.425ZM12.575 22C12.575 22.3176 12.3176 22.575 12 22.575C11.6824 22.575 11.425 22.3176 11.425 22H12.575ZM21 13H20.425V11H21H21.575V13H21ZM13 3V3.575H12V3V2.425H13V3ZM12 21V20.425H13V21V21.575H12V21ZM21 13H21.575C21.575 14.8694 21.5762 16.3292 21.4234 17.4657C21.2684 18.6187 20.9454 19.5246 20.235 20.235L19.8284 19.8284L19.4218 19.4218C19.883 18.9607 20.1458 18.338 20.2837 17.3125C20.4238 16.2704 20.425 14.9019 20.425 13H21ZM21 11H20.425C20.425 9.09813 20.4238 7.72957 20.2837 6.68753C20.1458 5.66204 19.883 5.0393 19.4218 4.57816L19.8284 4.17157L20.235 3.76499C20.9454 4.47542 21.2684 5.38128 21.4234 6.5343C21.5762 7.67077 21.575 9.13064 21.575 11H21ZM12 2H12.575V22H12H11.425V2H12ZM13 3V2.425C14.1659 2.425 15.1675 2.42489 16.0239 2.46046L16 3.03496L15.9761 3.60947C15.1487 3.57511 14.1737 3.575 13 3.575V3ZM16 3.03496L16.0239 2.46046C17.9032 2.53851 19.2577 2.78763 20.235 3.76499L19.8284 4.17157L19.4218 4.57816C18.7829 3.93917 17.8414 3.68693 15.9761 3.60947L16 3.03496ZM13 21V20.425C14.1737 20.425 15.1487 20.4249 15.9761 20.3905L16 20.965L16.0239 21.5395C15.1675 21.5751 14.1659 21.575 13 21.575V21ZM16 20.965L15.9761 20.3905C17.8414 20.3131 18.7829 20.0608 19.4218 19.4218L19.8284 19.8284L20.235 20.235C19.2577 21.2124 17.9032 21.4615 16.0239 21.5395L16 20.965ZM16 3.03496H16.575V20.965H16H15.425V3.03496H16Z" fill="#130E14"/>
</svg>
