<svg width="24" height="24" viewBox="0 0 24 24" fill="none" xmlns="http://www.w3.org/2000/svg">
<path d="M14.3009 3.80673L13.652 4.45555L7.68718 10.4204C7.28316 10.8244 7.08116 11.0264 6.90743 11.2492C6.70249 11.5119 6.52679 11.7962 6.38344 12.097C6.26191 12.352 6.17157 12.623 5.99089 13.1651L5.22527 15.4619L5.03811 16.0234C4.9492 16.2901 5.01862 16.5842 5.21744 16.783C5.41626 16.9819 5.71035 17.0513 5.97709 16.9624L6.53854 16.7752L8.83543 16.0096L8.83546 16.0096C9.37748 15.8289 9.64849 15.7386 9.90348 15.617C10.2043 15.4737 10.4886 15.298 10.7513 15.0931C10.974 14.9193 11.1761 14.7173 11.5801 14.3133L11.5801 14.3133L17.5449 8.34844L18.1938 7.69963C19.2687 6.62463 19.2687 4.88173 18.1938 3.80673C17.1188 2.73174 15.3759 2.73174 14.3009 3.80673Z" stroke="#130E14" stroke-width="1.15"/>
</svg>
