<svg width="24" height="24" viewBox="0 0 24 24" fill="none" xmlns="http://www.w3.org/2000/svg">
<path d="M5 20.4255C4.68244 20.4255 4.425 20.6829 4.425 21.0005C4.425 21.3181 4.68244 21.5755 5 21.5755V20.4255ZM14.9496 6.75026L15.3677 6.35559L14.9496 6.75026ZM5 21.0005V21.5755H19V21.0005V20.4255H5V21.0005ZM13.6519 4.00049C13.0778 4.03236 13.0778 4.03259 13.0778 4.03282C13.0779 4.0329 13.0779 4.03314 13.0779 4.03331C13.0779 4.03364 13.0779 4.03401 13.0779 4.03439C13.078 4.03516 13.078 4.03601 13.0781 4.03696C13.0782 4.03885 13.0784 4.04111 13.0785 4.04372C13.0789 4.04894 13.0794 4.05557 13.08 4.06357C13.0813 4.07958 13.0833 4.10106 13.0861 4.12762C13.0919 4.18071 13.1013 4.25425 13.1167 4.34492C13.1474 4.52602 13.2019 4.77702 13.2981 5.07095C13.4904 5.65818 13.8524 6.42546 14.5314 7.14492L14.9496 6.75026L15.3677 6.35559C14.8302 5.7861 14.5434 5.17849 14.391 4.71308C14.3149 4.48069 14.2731 4.28593 14.2505 4.15284C14.2393 4.08642 14.2329 4.03576 14.2295 4.00393C14.2277 3.98803 14.2268 3.97687 14.2263 3.97084C14.226 3.96783 14.2259 3.96611 14.2259 3.96572C14.2259 3.96552 14.2259 3.96566 14.2259 3.96614C14.2259 3.96638 14.2259 3.96671 14.226 3.96712C14.226 3.96733 14.226 3.96755 14.226 3.9678C14.226 3.96793 14.226 3.96813 14.226 3.96819C14.226 3.9684 14.2261 3.96861 13.6519 4.00049ZM14.9496 6.75026L14.5314 7.14492C15.2115 7.8655 15.9409 8.25337 16.505 8.46075C16.7867 8.56431 17.028 8.62317 17.203 8.65645C17.2906 8.67311 17.3619 8.68342 17.4139 8.68973C17.4399 8.69289 17.4611 8.69505 17.477 8.6965C17.485 8.69723 17.4917 8.69778 17.4971 8.69819C17.4998 8.69839 17.5021 8.69856 17.5041 8.6987C17.5051 8.69877 17.506 8.69883 17.5068 8.69888C17.5073 8.69891 17.5076 8.69894 17.508 8.69896C17.5082 8.69897 17.5085 8.69899 17.5086 8.69899C17.5088 8.69901 17.5091 8.69903 17.5448 8.12514C17.5806 7.55125 17.5808 7.55127 17.5811 7.55128C17.5811 7.55129 17.5814 7.5513 17.5815 7.55131C17.5818 7.55133 17.5821 7.55135 17.5823 7.55136C17.5828 7.55139 17.5832 7.55142 17.5836 7.55145C17.5842 7.55149 17.5846 7.55152 17.5846 7.55152C17.5847 7.55152 17.5835 7.55143 17.5811 7.55122C17.5762 7.55078 17.5666 7.54983 17.5525 7.54812C17.5243 7.5447 17.4785 7.53823 17.4178 7.5267C17.2963 7.50358 17.1168 7.4604 16.9018 7.38136C16.4724 7.22354 15.9042 6.92397 15.3677 6.35559L14.9496 6.75026ZM6.53844 17.0536L6.9566 16.6589L5.64332 15.2675L5.22516 15.6621L4.80699 16.0568L6.12027 17.4483L6.53844 17.0536Z" fill="#4958F2"/>
</svg>
