<svg width="24" height="24" viewBox="0 0 24 24" fill="none" xmlns="http://www.w3.org/2000/svg">
<path d="M12.934 17.164L13.1876 17.6801L12.934 17.164ZM11.066 17.164L10.8124 17.6801L11.066 17.164ZM13.66 7.90079L13.8667 7.3642V7.3642L13.66 7.90079ZM10.5945 7.80275L10.3879 7.26616V7.26616L10.5945 7.80275ZM13.4055 7.80275L13.1988 8.33934L13.4055 7.80275ZM10.34 7.90079L10.5466 8.43737L10.34 7.90079ZM11.2074 12.0934C10.9828 11.8689 10.6187 11.8689 10.3942 12.0934C10.1696 12.318 10.1696 12.682 10.3942 12.9066L11.2074 12.0934ZM11.8008 13.5L11.3942 13.9066C11.5121 14.0245 11.6753 14.0854 11.8415 14.0736C12.0078 14.0617 12.1608 13.9784 12.2608 13.845L11.8008 13.5ZM13.7608 11.845C13.9513 11.5909 13.8998 11.2305 13.6458 11.04C13.3917 10.8495 13.0313 10.9009 12.8408 11.155L13.7608 11.845ZM16 11.6087H15.425C15.425 11.6092 15.425 11.6097 15.425 11.6101C15.425 11.6106 15.425 11.6111 15.425 11.6115C15.425 11.612 15.425 11.6125 15.425 11.613C15.425 11.6134 15.425 11.6139 15.425 11.6144C15.425 11.6149 15.425 11.6153 15.425 11.6158C15.425 11.6163 15.425 11.6167 15.425 11.6172C15.425 11.6177 15.425 11.6182 15.425 11.6186C15.425 11.6191 15.425 11.6196 15.425 11.6201C15.425 11.6205 15.425 11.621 15.425 11.6215C15.425 11.6219 15.425 11.6224 15.425 11.6229C15.425 11.6234 15.425 11.6238 15.425 11.6243C15.425 11.6248 15.425 11.6253 15.425 11.6257C15.425 11.6262 15.425 11.6267 15.425 11.6272C15.425 11.6276 15.425 11.6281 15.425 11.6286C15.425 11.629 15.425 11.6295 15.425 11.63C15.425 11.6305 15.425 11.6309 15.425 11.6314C15.425 11.6319 15.425 11.6324 15.425 11.6328C15.425 11.6333 15.425 11.6338 15.425 11.6343C15.425 11.6347 15.425 11.6352 15.425 11.6357C15.425 11.6362 15.425 11.6366 15.425 11.6371C15.425 11.6376 15.425 11.6381 15.425 11.6385C15.425 11.639 15.425 11.6395 15.425 11.64C15.425 11.6404 15.425 11.6409 15.425 11.6414C15.425 11.6419 15.425 11.6423 15.425 11.6428C15.425 11.6433 15.425 11.6438 15.425 11.6442C15.425 11.6447 15.425 11.6452 15.425 11.6457C15.425 11.6461 15.425 11.6466 15.425 11.6471C15.425 11.6476 15.425 11.648 15.425 11.6485C15.425 11.649 15.425 11.6495 15.425 11.65C15.425 11.6504 15.425 11.6509 15.425 11.6514C15.425 11.6519 15.425 11.6523 15.425 11.6528C15.425 11.6533 15.425 11.6538 15.425 11.6542C15.425 11.6547 15.425 11.6552 15.425 11.6557C15.425 11.6561 15.425 11.6566 15.425 11.6571C15.425 11.6576 15.425 11.6581 15.425 11.6585C15.425 11.659 15.425 11.6595 15.425 11.66C15.425 11.6604 15.425 11.6609 15.425 11.6614C15.425 11.6619 15.425 11.6623 15.425 11.6628C15.425 11.6633 15.425 11.6638 15.425 11.6643C15.425 11.6647 15.425 11.6652 15.425 11.6657C15.425 11.6662 15.425 11.6666 15.425 11.6671C15.425 11.6676 15.425 11.6681 15.425 11.6686C15.425 11.669 15.425 11.6695 15.425 11.67C15.425 11.6705 15.425 11.671 15.425 11.6714C15.425 11.6719 15.425 11.6724 15.425 11.6729C15.425 11.6733 15.425 11.6738 15.425 11.6743C15.425 11.6748 15.425 11.6753 15.425 11.6757C15.425 11.6762 15.425 11.6767 15.425 11.6772C15.425 11.6777 15.425 11.6781 15.425 11.6786C15.425 11.6791 15.425 11.6796 15.425 11.6801C15.425 11.6805 15.425 11.681 15.425 11.6815C15.425 11.682 15.425 11.6825 15.425 11.6829C15.425 11.6834 15.425 11.6839 15.425 11.6844C15.425 11.6849 15.425 11.6853 15.425 11.6858C15.425 11.6863 15.425 11.6868 15.425 11.6873C15.425 11.6877 15.425 11.6882 15.425 11.6887C15.425 11.6892 15.425 11.6897 15.425 11.6901C15.425 11.6906 15.425 11.6911 15.425 11.6916C15.425 11.6921 15.425 11.6925 15.425 11.693C15.425 11.6935 15.425 11.694 15.425 11.6945C15.425 11.6949 15.425 11.6954 15.425 11.6959C15.425 11.6964 15.425 11.6969 15.425 11.6973C15.425 11.6978 15.425 11.6983 15.425 11.6988C15.425 11.6993 15.425 11.6998 15.425 11.7002C15.425 11.7007 15.425 11.7012 15.425 11.7017C15.425 11.7022 15.425 11.7026 15.425 11.7031C15.425 11.7036 15.425 11.7041 15.425 11.7046C15.425 11.7051 15.425 11.7055 15.425 11.706C15.425 11.7065 15.425 11.707 15.425 11.7075C15.425 11.708 15.425 11.7084 15.425 11.7089C15.425 11.7094 15.425 11.7099 15.425 11.7104C15.425 11.7108 15.425 11.7113 15.425 11.7118C15.425 11.7123 15.425 11.7128 15.425 11.7133C15.425 11.7137 15.425 11.7142 15.425 11.7147C15.425 11.7152 15.425 11.7157 15.425 11.7162C15.425 11.7166 15.425 11.7171 15.425 11.7176C15.425 11.7181 15.425 11.7186 15.425 11.7191C15.425 11.7195 15.425 11.72 15.425 11.7205C15.425 11.721 15.425 11.7215 15.425 11.722C15.425 11.7225 15.425 11.7229 15.425 11.7234C15.425 11.7239 15.425 11.7244 15.425 11.7249C15.425 11.7254 15.425 11.7258 15.425 11.7263C15.425 11.7268 15.425 11.7273 15.425 11.7278C15.425 11.7283 15.425 11.7287 15.425 11.7292C15.425 11.7297 15.425 11.7302 15.425 11.7307C15.425 11.7312 15.425 11.7317 15.425 11.7321C15.425 11.7326 15.425 11.7331 15.425 11.7336C15.425 11.7341 15.425 11.7346 15.425 11.7351C15.425 11.7355 15.425 11.736 15.425 11.7365C15.425 11.737 15.425 11.7375 15.425 11.738C15.425 11.7385 15.425 11.7389 15.425 11.7394C15.425 11.7399 15.425 11.7404 15.425 11.7409C15.425 11.7414 15.425 11.7419 15.425 11.7423C15.425 11.7428 15.425 11.7433 15.425 11.7438C15.425 11.7443 15.425 11.7448 15.425 11.7453C15.425 11.7457 15.425 11.7462 15.425 11.7467C15.425 11.7472 15.425 11.7477 15.425 11.7482C15.425 11.7487 15.425 11.7492 15.425 11.7496C15.425 11.7501 15.425 11.7506 15.425 11.7511C15.425 11.7516 15.425 11.7521 15.425 11.7526C15.425 11.7531 15.425 11.7535 15.425 11.754C15.425 11.7545 15.425 11.755 15.425 11.7555C15.425 11.756 15.425 11.7565 15.425 11.757C15.425 11.7574 15.425 11.7579 15.425 11.7584C15.425 11.7589 15.425 11.7594 15.425 11.7599C15.425 11.7604 15.425 11.7609 15.425 11.7613C15.425 11.7618 15.425 11.7623 15.425 11.7628C15.425 11.7633 15.425 11.7638 15.425 11.7643C15.425 11.7648 15.425 11.7653 15.425 11.7657C15.425 11.7662 15.425 11.7667 15.425 11.7672C15.425 11.7677 15.425 11.7682 15.425 11.7687C15.425 11.7692 15.425 11.7697 15.425 11.7701C15.425 11.7706 15.425 11.7711 15.425 11.7716C15.425 11.7721 15.425 11.7726 15.425 11.7731C15.425 11.7736 15.425 11.7741 15.425 11.7746C15.425 11.775 15.425 11.7755 15.425 11.776C15.425 11.7765 15.425 11.777 15.425 11.7775C15.425 11.778 15.425 11.7785 15.425 11.779C15.425 11.7794 15.425 11.7799 15.425 11.7804C15.425 11.7809 15.425 11.7814 15.425 11.7819C15.425 11.7824 15.425 11.7829 15.425 11.7834C15.425 11.7839 15.425 11.7844 15.425 11.7848C15.425 11.7853 15.425 11.7858 15.425 11.7863C15.425 11.7868 15.425 11.7873 15.425 11.7878C15.425 11.7883 15.425 11.7888 15.425 11.7893C15.425 11.7898 15.425 11.7902 15.425 11.7907C15.425 11.7912 15.425 11.7917 15.425 11.7922C15.425 11.7927 15.425 11.7932 15.425 11.7937C15.425 11.7942 15.425 11.7947 15.425 11.7952C15.425 11.7957 15.425 11.7961 15.425 11.7966C15.425 11.7971 15.425 11.7976 15.425 11.7981C15.425 11.7986 15.425 11.7991 15.425 11.7996C15.425 11.8001 15.425 11.8006 15.425 11.8011C15.425 11.8016 15.425 11.8021 15.425 11.8026C15.425 11.803 15.425 11.8035 15.425 11.804C15.425 11.8045 15.425 11.805 15.425 11.8055C15.425 11.806 15.425 11.8065 15.425 11.807C15.425 11.8075 15.425 11.808 15.425 11.8085C15.425 11.809 15.425 11.8095 15.425 11.8099C15.425 11.8104 15.425 11.8109 15.425 11.8114C15.425 11.8119 15.425 11.8124 15.425 11.8129C15.425 11.8134 15.425 11.8139 15.425 11.8144C15.425 11.8149 15.425 11.8154 15.425 11.8159C15.425 11.8164 15.425 11.8169 15.425 11.8174C15.425 11.8179 15.425 11.8183 15.425 11.8188C15.425 11.8193 15.425 11.8198 15.425 11.8203C15.425 11.8208 15.425 11.8213 15.425 11.8218C15.425 11.8223 15.425 11.8228 15.425 11.8233C15.425 11.8238 15.425 11.8243 15.425 11.8248C15.425 11.8253 15.425 11.8258 15.425 11.8263C15.425 11.8268 15.425 11.8273 15.425 11.8277C15.425 11.8282 15.425 11.8287 15.425 11.8292C15.425 11.8297 15.425 11.8302 15.425 11.8307C15.425 11.8312 15.425 11.8317 15.425 11.8322C15.425 11.8327 15.425 11.8332 15.425 11.8337C15.425 11.8342 15.425 11.8347 15.425 11.8352C15.425 11.8357 15.425 11.8362 15.425 11.8367C15.425 11.8372 15.425 11.8377 15.425 11.8382C15.425 11.8387 15.425 11.8392 15.425 11.8397C15.425 11.8402 15.425 11.8406 15.425 11.8411C15.425 11.8416 15.425 11.8421 15.425 11.8426C15.425 11.8431 15.425 11.8436 15.425 11.8441C15.425 11.8446 15.425 11.8451 15.425 11.8456C15.425 11.8461 15.425 11.8466 15.425 11.8471C15.425 11.8476 15.425 11.8481 15.425 11.8486C15.425 11.8491 15.425 11.8496 15.425 11.8501C15.425 11.8506 15.425 11.8511 15.425 11.8516C15.425 11.8521 15.425 11.8526 15.425 11.8531C15.425 11.8536 15.425 11.8541 15.425 11.8546C15.425 11.8551 15.425 11.8556 15.425 11.8561C15.425 11.8566 15.425 11.8571 15.425 11.8576C15.425 11.8581 15.425 11.8586 15.425 11.8591C15.425 11.8596 15.425 11.8601 15.425 11.8606C15.425 11.8611 15.425 11.8616 15.425 11.8621C15.425 11.8626 15.425 11.8631 15.425 11.8636C15.425 11.8641 15.425 11.8646 15.425 11.8651C15.425 11.8656 15.425 11.8661 15.425 11.8666C15.425 11.8671 15.425 11.8676 15.425 11.8681C15.425 11.8686 15.425 11.8691 15.425 11.8696C15.425 11.8701 15.425 11.8706 15.425 11.8711C15.425 11.8716 15.425 11.8721 15.425 11.8726C15.425 11.8731 15.425 11.8736 15.425 11.8741C15.425 11.8746 15.425 11.8751 15.425 11.8756C15.425 11.8761 15.425 11.8766 15.425 11.8771C15.425 11.8776 15.425 11.8781 15.425 11.8786C15.425 11.8791 15.425 11.8796 15.425 11.8801C15.425 11.8806 15.425 11.8811 15.425 11.8816C15.425 11.8821 15.425 11.8826 15.425 11.8831C15.425 11.8836 15.425 11.8841 15.425 11.8846C15.425 11.8851 15.425 11.8856 15.425 11.8861C15.425 11.8866 15.425 11.8871 15.425 11.8876C15.425 11.8881 15.425 11.8886 15.425 11.8891C15.425 11.8896 15.425 11.8901 15.425 11.8906C15.425 11.8911 15.425 11.8916 15.425 11.8921C15.425 11.8926 15.425 11.8931 15.425 11.8936C15.425 11.8941 15.425 11.8946 15.425 11.8951C15.425 11.8956 15.425 11.8961 15.425 11.8966C15.425 11.8971 15.425 11.8976 15.425 11.8981C15.425 11.8986 15.425 11.8991 15.425 11.8996C15.425 11.9001 15.425 11.9007 15.425 11.9012C15.425 11.9017 15.425 11.9022 15.425 11.9027C15.425 11.9032 15.425 11.9037 15.425 11.9042C15.425 11.9047 15.425 11.9052 15.425 11.9057C15.425 11.9062 15.425 11.9067 15.425 11.9072C15.425 11.9077 15.425 11.9082 15.425 11.9087C15.425 11.9092 15.425 11.9097 15.425 11.9102C15.425 11.9107 15.425 11.9112 15.425 11.9117C15.425 11.9122 15.425 11.9127 15.425 11.9133C15.425 11.9138 15.425 11.9143 15.425 11.9148C15.425 11.9153 15.425 11.9158 15.425 11.9163C15.425 11.9168 15.425 11.9173 15.425 11.9178C15.425 11.9183 15.425 11.9188 15.425 11.9193C15.425 11.9198 15.425 11.9203 15.425 11.9208C15.425 11.9213 15.425 11.9218 15.425 11.9223C15.425 11.9228 15.425 11.9234 15.425 11.9239C15.425 11.9244 15.425 11.9249 15.425 11.9254C15.425 11.9259 15.425 11.9264 15.425 11.9269C15.425 11.9274 15.425 11.9279 15.425 11.9284C15.425 11.9289 15.425 11.9294 15.425 11.9299C15.425 11.9304 15.425 11.9309 15.425 11.9314C15.425 11.932 15.425 11.9325 15.425 11.933C15.425 11.9335 15.425 11.934 15.425 11.9345C15.425 11.935 15.425 11.9355 15.425 11.936C15.425 11.9365 15.425 11.937 15.425 11.9375C15.425 11.938 15.425 11.9385 15.425 11.9391C15.425 11.9396 15.425 11.9401 15.425 11.9406C15.425 11.9411 15.425 11.9416 15.425 11.9421C15.425 11.9426 15.425 11.9431 15.425 11.9436C15.425 11.9441 15.425 11.9446 15.425 11.9451C15.425 11.9457 15.425 11.9462 15.425 11.9467C15.425 11.9472 15.425 11.9477 15.425 11.9482C15.425 11.9487 15.425 11.9492 15.425 11.9497C15.425 11.9502 15.425 11.9507 15.425 11.9512C15.425 11.9518 15.425 11.9523 15.425 11.9528C15.425 11.9533 15.425 11.9538 15.425 11.9543C15.425 11.9548 15.425 11.9553 15.425 11.9558C15.425 11.9563 15.425 11.9568 15.425 11.9574C15.425 11.9579 15.425 11.9584 15.425 11.9589C15.425 11.9594 15.425 11.9599 15.425 11.9604C15.425 11.9609 15.425 11.9614 15.425 11.9619C15.425 11.9624 15.425 11.963 15.425 11.9635C15.425 11.964 15.425 11.9645 15.425 11.965C15.425 11.9655 15.425 11.966 15.425 11.9665C15.425 11.967 15.425 11.9675 15.425 11.9681C15.425 11.9686 15.425 11.9691 15.425 11.9696C15.425 11.9701 15.425 11.9706 15.425 11.9711C15.425 11.9716 15.425 11.9721 15.425 11.9727C15.425 11.9732 15.425 11.9737 15.425 11.9742C15.425 11.9747 15.425 11.9752 15.425 11.9757C15.425 11.9762 15.425 11.9767 15.425 11.9773C15.425 11.9778 15.425 11.9783 15.425 11.9788C15.425 11.9793 15.425 11.9798 15.425 11.9803C15.425 11.9808 15.425 11.9813 15.425 11.9819C15.425 11.9824 15.425 11.9829 15.425 11.9834C15.425 11.9839 15.425 11.9844 15.425 11.9849C15.425 11.9854 15.425 11.986 15.425 11.9865C15.425 11.987 15.425 11.9875 15.425 11.988C15.425 11.9885 15.425 11.989 15.425 11.9895C15.425 11.9901 15.425 11.9906 15.425 11.9911C15.425 11.9916 15.425 11.9921 15.425 11.9926C15.425 11.9931 15.425 11.9936 15.425 11.9942C15.425 11.9947 15.425 11.9952 15.425 11.9957C15.425 11.9962 15.425 11.9967 15.425 11.9972C15.425 11.9978 15.425 11.9983 15.425 11.9988C15.425 11.9993 15.425 11.9998 15.425 12.0003C15.425 12.0008 15.425 12.0013 15.425 12.0019C15.425 12.0024 15.425 12.0029 15.425 12.0034C15.425 12.0039 15.425 12.0044 15.425 12.0049C15.425 12.0055 15.425 12.006 15.425 12.0065C15.425 12.007 15.425 12.0075 15.425 12.008C15.425 12.0085 15.425 12.0091 15.425 12.0096C15.425 12.0101 15.425 12.0106 15.425 12.0111C15.425 12.0116 15.425 12.0121 15.425 12.0127C15.425 12.0132 15.425 12.0137 15.425 12.0142C15.425 12.0147 15.425 12.0152 15.425 12.0158C15.425 12.0163 15.425 12.0168 15.425 12.0173C15.425 12.0178 15.425 12.0183 15.425 12.0188C15.425 12.0194 15.425 12.0199 15.425 12.0204C15.425 12.0209 15.425 12.0214 15.425 12.0219C15.425 12.0225 15.425 12.023 15.425 12.0235C15.425 12.024 15.425 12.0245 15.425 12.025C15.425 12.0256 15.425 12.0261 15.425 12.0266C15.425 12.0271 15.425 12.0276 15.425 12.0281C15.425 12.0287 15.425 12.0292 15.425 12.0297C15.425 12.0302 15.425 12.0307 15.425 12.0312C15.425 12.0318 15.425 12.0323 15.425 12.0328C15.425 12.0333 15.425 12.0338 15.425 12.0343C15.425 12.0349 15.425 12.0354 15.425 12.0359C15.425 12.0364 15.425 12.0369 15.425 12.0375C15.425 12.038 15.425 12.0385 15.425 12.039C15.425 12.0395 15.425 12.04 15.425 12.0406C15.425 12.0411 15.425 12.0416 15.425 12.0421C15.425 12.0426 15.425 12.0431 15.425 12.0437C15.425 12.0442 15.425 12.0447 15.425 12.0452C15.425 12.0457 15.425 12.0463 15.425 12.0468C15.425 12.0473 15.425 12.0478 15.425 12.0483C15.425 12.0489 15.425 12.0494 15.425 12.0499C15.425 12.0504 15.425 12.0509 15.425 12.0514C15.425 12.052 15.425 12.0525 15.425 12.053C15.425 12.0535 15.425 12.054 15.425 12.0546C15.425 12.0551 15.425 12.0556 15.425 12.0561C15.425 12.0566 15.425 12.0572 15.425 12.0577C15.425 12.0582 15.425 12.0587 15.425 12.0592C15.425 12.0598 15.425 12.0603 15.425 12.0608C15.425 12.0613 15.425 12.0618 15.425 12.0624C15.425 12.0629 15.425 12.0634 15.425 12.0639C15.425 12.0644 15.425 12.065 15.425 12.0655C15.425 12.066 15.425 12.0665 15.425 12.067C15.425 12.0676 15.425 12.0681 15.425 12.0686C15.425 12.0691 15.425 12.0697 15.425 12.0702C15.425 12.0707 15.425 12.0712 15.425 12.0717C15.425 12.0723 15.425 12.0728 15.425 12.0733C15.425 12.0738 15.425 12.0743 15.425 12.0749C15.425 12.0754 15.425 12.0759 15.425 12.0764C15.425 12.077 15.425 12.0775 15.425 12.078C15.425 12.0785 15.425 12.079 15.425 12.0796C15.425 12.0801 15.425 12.0806 15.425 12.0811C15.425 12.0817 15.425 12.0822 15.425 12.0827C15.425 12.0832 15.425 12.0837 15.425 12.0843C15.425 12.0848 15.425 12.0853 15.425 12.0858C15.425 12.0864 15.425 12.0869 15.425 12.0874C15.425 12.0879 15.425 12.0884 15.425 12.089C15.425 12.0895 15.425 12.09 15.425 12.0905C15.425 12.0911 15.425 12.0916 15.425 12.0921C15.425 12.0926 15.425 12.0932 15.425 12.0937C15.425 12.0942 15.425 12.0947 15.425 12.0952C15.425 12.0958 15.425 12.0963 15.425 12.0968C15.425 12.0973 15.425 12.0979 15.425 12.0984C15.425 12.0989 15.425 12.0994 15.425 12.1C15.425 12.1005 15.425 12.101 15.425 12.1015C15.425 12.1021 15.425 12.1026 15.425 12.1031C15.425 12.1036 15.425 12.1042 15.425 12.1047C15.425 12.1052 15.425 12.1057 15.425 12.1063C15.425 12.1068 15.425 12.1073 15.425 12.1078C15.425 12.1084 15.425 12.1089 15.425 12.1094C15.425 12.1099 15.425 12.1105 15.425 12.111C15.425 12.1115 15.425 12.112 15.425 12.1126C15.425 12.1131 15.425 12.1136 15.425 12.1141C15.425 12.1147 15.425 12.1152 15.425 12.1157C15.425 12.1162 15.425 12.1168 15.425 12.1173C15.425 12.1178 15.425 12.1183 15.425 12.1189C15.425 12.1194 15.425 12.1199 15.425 12.1205C15.425 12.121 15.425 12.1215 15.425 12.122C15.425 12.1226 15.425 12.1231 15.425 12.1236C15.425 12.1241 15.425 12.1247 15.425 12.1252C15.425 12.1257 15.425 12.1262 15.425 12.1268C15.425 12.1273 15.425 12.1278 15.425 12.1284C15.425 12.1289 15.425 12.1294 15.425 12.1299C15.425 12.1305 15.425 12.131 15.425 12.1315C15.425 12.132 15.425 12.1326 15.425 12.1331C15.425 12.1336 15.425 12.1342 15.425 12.1347C15.425 12.1352 15.425 12.1357 15.425 12.1363C15.425 12.1368 15.425 12.1373 15.425 12.1379C15.425 12.1384 15.425 12.1389 15.425 12.1394C15.425 12.14 15.425 12.1405 15.425 12.141C15.425 12.1415 15.425 12.1421 15.425 12.1426C15.425 12.1431 15.425 12.1437 15.425 12.1442C15.425 12.1447 15.425 12.1452 15.425 12.1458C15.425 12.1463 15.425 12.1468 15.425 12.1474C15.425 12.1479 15.425 12.1484 15.425 12.149C15.425 12.1495 15.425 12.15 15.425 12.1505C15.425 12.1511 15.425 12.1516 15.425 12.1521C15.425 12.1527 15.425 12.1532 15.425 12.1537C15.425 12.1542 15.425 12.1548 15.425 12.1553C15.425 12.1558 15.425 12.1564 15.425 12.1569C15.425 12.1574 15.425 12.158 15.425 12.1585C15.425 12.159 15.425 12.1596 15.425 12.1601C15.425 12.1606 15.425 12.1611 15.425 12.1617C15.425 12.1622 15.425 12.1627 15.425 12.1633C15.425 12.1638 15.425 12.1643 15.425 12.1649C15.425 12.1654 15.425 12.1659 15.425 12.1665C15.425 12.167 15.425 12.1675 15.425 12.168C15.425 12.1686 15.425 12.1691 15.425 12.1696C15.425 12.1702 15.425 12.1707 15.425 12.1712C15.425 12.1718 15.425 12.1723 15.425 12.1728C15.425 12.1734 15.425 12.1739 15.425 12.1744C15.425 12.175 15.425 12.1755 15.425 12.176C15.425 12.1766 15.425 12.1771 15.425 12.1776C15.425 12.1781 15.425 12.1787 15.425 12.1792C15.425 12.1797 15.425 12.1803 15.425 12.1808C15.425 12.1813 15.425 12.1819 15.425 12.1824C15.425 12.1829 15.425 12.1835 15.425 12.184C15.425 12.1845 15.425 12.1851 15.425 12.1856C15.425 12.1861 15.425 12.1867 15.425 12.1872C15.425 12.1877 15.425 12.1883 15.425 12.1888C15.425 12.1893 15.425 12.1899 15.425 12.1904C15.425 12.1909 15.425 12.1915 15.425 12.192C15.425 12.1925 15.425 12.1931 15.425 12.1936C15.425 12.1941 15.425 12.1947 15.425 12.1952C15.425 12.1957 15.425 12.1963 15.425 12.1968C15.425 12.1973 15.425 12.1979 15.425 12.1984C15.425 12.199 15.425 12.1995 15.425 12.2C15.425 12.2006 15.425 12.2011 15.425 12.2016C15.425 12.2022 15.425 12.2027 15.425 12.2032C15.425 12.2038 15.425 12.2043 15.425 12.2048C15.425 12.2054 15.425 12.2059 15.425 12.2064C15.425 12.207 15.425 12.2075 15.425 12.208C15.425 12.2086 15.425 12.2091 15.425 12.2097C15.425 12.2102 15.425 12.2107 15.425 12.2113C15.425 12.2118 15.425 12.2123 15.425 12.2129C15.425 12.2134 15.425 12.2139 15.425 12.2145C15.425 12.215 15.425 12.2155 15.425 12.2161C15.425 12.2166 15.425 12.2172 15.425 12.2177C15.425 12.2182 15.425 12.2188 15.425 12.2193C15.425 12.2198 15.425 12.2204 15.425 12.2209C15.425 12.2214 15.425 12.222 15.425 12.2225C15.425 12.2231 15.425 12.2236 15.425 12.2241C15.425 12.2247 15.425 12.2252 15.425 12.2257C15.425 12.2263 15.425 12.2268 15.425 12.2274C15.425 12.2279 15.425 12.2284 15.425 12.229C15.425 12.2295 15.425 12.23 15.425 12.2306C15.425 12.2311 15.425 12.2317 15.425 12.2322C15.425 12.2327 15.425 12.2333 15.425 12.2338C15.425 12.2343 15.425 12.2349 15.425 12.2354C15.425 12.236 15.425 12.2365 15.425 12.237C15.425 12.2376 15.425 12.2381 15.425 12.2387C15.425 12.2392 15.425 12.2397 15.425 12.2403C15.425 12.2408 15.425 12.2413 15.425 12.2419C15.425 12.2424 15.425 12.243 15.425 12.2435C15.425 12.244 15.425 12.2446 15.425 12.2451C15.425 12.2457 15.425 12.2462 15.425 12.2467C15.425 12.2473 15.425 12.2478 15.425 12.2484C15.425 12.2489 15.425 12.2494 15.425 12.25C15.425 12.2505 15.425 12.2511 15.425 12.2516C15.425 12.2521 15.425 12.2527 15.425 12.2532C15.425 12.2538 15.425 12.2543 15.425 12.2548C15.425 12.2554 15.425 12.2559 15.425 12.2565C15.425 12.257 15.425 12.2575 15.425 12.2581C15.425 12.2586 15.425 12.2592 15.425 12.2597C15.425 12.2602 15.425 12.2608 15.425 12.2613C15.425 12.2619 15.425 12.2624 15.425 12.2629C15.425 12.2635 15.425 12.264 15.425 12.2646C15.425 12.2651 15.425 12.2657 15.425 12.2662C15.425 12.2667 15.425 12.2673 15.425 12.2678C15.425 12.2684 15.425 12.2689 15.425 12.2694C15.425 12.27 15.425 12.2705 15.425 12.2711C15.425 12.2716 15.425 12.2722 15.425 12.2727C15.425 12.2732 15.425 12.2738 15.425 12.2743C15.425 12.2749 15.425 12.2754 15.425 12.2759C15.425 12.2765 15.425 12.277 15.425 12.2776C15.425 12.2781 15.425 12.2787 15.425 12.2792C15.425 12.2797 15.425 12.2803 15.425 12.2808C15.425 12.2814 15.425 12.2819 15.425 12.2825C15.425 12.283 15.425 12.2835 15.425 12.2841C15.425 12.2846 15.425 12.2852 15.425 12.2857C15.425 12.2863 15.425 12.2868 15.425 12.2874C15.425 12.2879 15.425 12.2884 15.425 12.289C15.425 12.2895 15.425 12.2901 15.425 12.2906C15.425 12.2912 15.425 12.2917 15.425 12.2922C15.425 12.2928 15.425 12.2933 15.425 12.2939C15.425 12.2944 15.425 12.295 15.425 12.2955C15.425 12.2961 15.425 12.2966 15.425 12.2971C15.425 12.2977 15.425 12.2982 15.425 12.2988C15.425 12.2993 15.425 12.2999 15.425 12.3004C15.425 12.301 15.425 12.3015 15.425 12.302C15.425 12.3026 15.425 12.3031 15.425 12.3037C15.425 12.3042 15.425 12.3048 15.425 12.3053C15.425 12.3059 15.425 12.3064 15.425 12.307C15.425 12.3075 15.425 12.308 15.425 12.3086C15.425 12.3091 15.425 12.3097 15.425 12.3102C15.425 12.3108 15.425 12.3113 15.425 12.3119C15.425 12.3124 15.425 12.313 15.425 12.3135C15.425 12.3141 15.425 12.3146 15.425 12.3151C15.425 12.3157 15.425 12.3162 15.425 12.3168C15.425 12.3173 15.425 12.3179 15.425 12.3184C15.425 12.319 15.425 12.3195 15.425 12.3201C15.425 12.3206 15.425 12.3212 15.425 12.3217C15.425 12.3223 15.425 12.3228 15.425 12.3233C15.425 12.3239 15.425 12.3244 15.425 12.325C15.425 12.3255 15.425 12.3261 15.425 12.3266C15.425 12.3272 15.425 12.3277 15.425 12.3283C15.425 12.3288 15.425 12.3294 15.425 12.3299C15.425 12.3305 15.425 12.331 15.425 12.3316C15.425 12.3321 15.425 12.3327 15.425 12.3332C15.425 12.3338 15.425 12.3343 15.425 12.3349C15.425 12.3354 15.425 12.3359 15.425 12.3365C15.425 12.337 15.425 12.3376 15.425 12.3381C15.425 12.3387 15.425 12.3392 15.425 12.3398C15.425 12.3403 15.425 12.3409 15.425 12.3414C15.425 12.342 15.425 12.3425 15.425 12.3431C15.425 12.3436 15.425 12.3442 15.425 12.3447C15.425 12.3453 15.425 12.3458 15.425 12.3464C15.425 12.3469 15.425 12.3475 15.425 12.348C15.425 12.3486 15.425 12.3491 15.425 12.3497C15.425 12.3502 15.425 12.3508 15.425 12.3513C15.425 12.3519 15.425 12.3524 15.425 12.353C15.425 12.3535 15.425 12.3541 15.425 12.3546C15.425 12.3552 15.425 12.3557 15.425 12.3563C15.425 12.3568 15.425 12.3574 15.425 12.3579C15.425 12.3585 15.425 12.359 15.425 12.3596C15.425 12.3601 15.425 12.3607 15.425 12.3612C15.425 12.3618 15.425 12.3623 15.425 12.3629C15.425 12.3634 15.425 12.364 15.425 12.3645C15.425 12.3651 15.425 12.3657 15.425 12.3662C15.425 12.3668 15.425 12.3673 15.425 12.3679C15.425 12.3684 15.425 12.369 15.425 12.3695C15.425 12.3701 15.425 12.3706 15.425 12.3712C15.425 12.3717 15.425 12.3723 15.425 12.3728C15.425 12.3734 15.425 12.3739 15.425 12.3745C15.425 12.375 15.425 12.3756 15.425 12.3761C15.425 12.3767 15.425 12.3772 15.425 12.3778C15.425 12.3784 15.425 12.3789 15.425 12.3795C15.425 12.38 15.425 12.3806 15.425 12.3811C15.425 12.3817 15.425 12.3822 15.425 12.3828C15.425 12.3833 15.425 12.3839 15.425 12.3844C15.425 12.385 15.425 12.3855 15.425 12.3861C15.425 12.3866 15.425 12.3872 15.425 12.3878C15.425 12.3883 15.425 12.3889 15.425 12.3894C15.425 12.39 15.425 12.3905 15.425 12.3911C15.425 12.3916 15.425 12.3922 15.425 12.3927C15.425 12.3933 15.425 12.3939 15.425 12.3944C15.425 12.395 15.425 12.3955 15.425 12.3961H16H16.575C16.575 12.3955 16.575 12.395 16.575 12.3944C16.575 12.3939 16.575 12.3933 16.575 12.3927C16.575 12.3922 16.575 12.3916 16.575 12.3911C16.575 12.3905 16.575 12.39 16.575 12.3894C16.575 12.3889 16.575 12.3883 16.575 12.3878C16.575 12.3872 16.575 12.3866 16.575 12.3861C16.575 12.3855 16.575 12.385 16.575 12.3844C16.575 12.3839 16.575 12.3833 16.575 12.3828C16.575 12.3822 16.575 12.3817 16.575 12.3811C16.575 12.3806 16.575 12.38 16.575 12.3795C16.575 12.3789 16.575 12.3784 16.575 12.3778C16.575 12.3772 16.575 12.3767 16.575 12.3761C16.575 12.3756 16.575 12.375 16.575 12.3745C16.575 12.3739 16.575 12.3734 16.575 12.3728C16.575 12.3723 16.575 12.3717 16.575 12.3712C16.575 12.3706 16.575 12.3701 16.575 12.3695C16.575 12.369 16.575 12.3684 16.575 12.3679C16.575 12.3673 16.575 12.3668 16.575 12.3662C16.575 12.3657 16.575 12.3651 16.575 12.3645C16.575 12.364 16.575 12.3634 16.575 12.3629C16.575 12.3623 16.575 12.3618 16.575 12.3612C16.575 12.3607 16.575 12.3601 16.575 12.3596C16.575 12.359 16.575 12.3585 16.575 12.3579C16.575 12.3574 16.575 12.3568 16.575 12.3563C16.575 12.3557 16.575 12.3552 16.575 12.3546C16.575 12.3541 16.575 12.3535 16.575 12.353C16.575 12.3524 16.575 12.3519 16.575 12.3513C16.575 12.3508 16.575 12.3502 16.575 12.3497C16.575 12.3491 16.575 12.3486 16.575 12.348C16.575 12.3475 16.575 12.3469 16.575 12.3464C16.575 12.3458 16.575 12.3453 16.575 12.3447C16.575 12.3442 16.575 12.3436 16.575 12.3431C16.575 12.3425 16.575 12.342 16.575 12.3414C16.575 12.3409 16.575 12.3403 16.575 12.3398C16.575 12.3392 16.575 12.3387 16.575 12.3381C16.575 12.3376 16.575 12.337 16.575 12.3365C16.575 12.3359 16.575 12.3354 16.575 12.3349C16.575 12.3343 16.575 12.3338 16.575 12.3332C16.575 12.3327 16.575 12.3321 16.575 12.3316C16.575 12.331 16.575 12.3305 16.575 12.3299C16.575 12.3294 16.575 12.3288 16.575 12.3283C16.575 12.3277 16.575 12.3272 16.575 12.3266C16.575 12.3261 16.575 12.3255 16.575 12.325C16.575 12.3244 16.575 12.3239 16.575 12.3233C16.575 12.3228 16.575 12.3223 16.575 12.3217C16.575 12.3212 16.575 12.3206 16.575 12.3201C16.575 12.3195 16.575 12.319 16.575 12.3184C16.575 12.3179 16.575 12.3173 16.575 12.3168C16.575 12.3162 16.575 12.3157 16.575 12.3151C16.575 12.3146 16.575 12.3141 16.575 12.3135C16.575 12.313 16.575 12.3124 16.575 12.3119C16.575 12.3113 16.575 12.3108 16.575 12.3102C16.575 12.3097 16.575 12.3091 16.575 12.3086C16.575 12.308 16.575 12.3075 16.575 12.307C16.575 12.3064 16.575 12.3059 16.575 12.3053C16.575 12.3048 16.575 12.3042 16.575 12.3037C16.575 12.3031 16.575 12.3026 16.575 12.302C16.575 12.3015 16.575 12.301 16.575 12.3004C16.575 12.2999 16.575 12.2993 16.575 12.2988C16.575 12.2982 16.575 12.2977 16.575 12.2971C16.575 12.2966 16.575 12.2961 16.575 12.2955C16.575 12.295 16.575 12.2944 16.575 12.2939C16.575 12.2933 16.575 12.2928 16.575 12.2922C16.575 12.2917 16.575 12.2912 16.575 12.2906C16.575 12.2901 16.575 12.2895 16.575 12.289C16.575 12.2884 16.575 12.2879 16.575 12.2874C16.575 12.2868 16.575 12.2863 16.575 12.2857C16.575 12.2852 16.575 12.2846 16.575 12.2841C16.575 12.2835 16.575 12.283 16.575 12.2825C16.575 12.2819 16.575 12.2814 16.575 12.2808C16.575 12.2803 16.575 12.2797 16.575 12.2792C16.575 12.2787 16.575 12.2781 16.575 12.2776C16.575 12.277 16.575 12.2765 16.575 12.2759C16.575 12.2754 16.575 12.2749 16.575 12.2743C16.575 12.2738 16.575 12.2732 16.575 12.2727C16.575 12.2722 16.575 12.2716 16.575 12.2711C16.575 12.2705 16.575 12.27 16.575 12.2694C16.575 12.2689 16.575 12.2684 16.575 12.2678C16.575 12.2673 16.575 12.2667 16.575 12.2662C16.575 12.2657 16.575 12.2651 16.575 12.2646C16.575 12.264 16.575 12.2635 16.575 12.2629C16.575 12.2624 16.575 12.2619 16.575 12.2613C16.575 12.2608 16.575 12.2602 16.575 12.2597C16.575 12.2592 16.575 12.2586 16.575 12.2581C16.575 12.2575 16.575 12.257 16.575 12.2565C16.575 12.2559 16.575 12.2554 16.575 12.2548C16.575 12.2543 16.575 12.2538 16.575 12.2532C16.575 12.2527 16.575 12.2521 16.575 12.2516C16.575 12.2511 16.575 12.2505 16.575 12.25C16.575 12.2494 16.575 12.2489 16.575 12.2484C16.575 12.2478 16.575 12.2473 16.575 12.2467C16.575 12.2462 16.575 12.2457 16.575 12.2451C16.575 12.2446 16.575 12.244 16.575 12.2435C16.575 12.243 16.575 12.2424 16.575 12.2419C16.575 12.2413 16.575 12.2408 16.575 12.2403C16.575 12.2397 16.575 12.2392 16.575 12.2387C16.575 12.2381 16.575 12.2376 16.575 12.237C16.575 12.2365 16.575 12.236 16.575 12.2354C16.575 12.2349 16.575 12.2343 16.575 12.2338C16.575 12.2333 16.575 12.2327 16.575 12.2322C16.575 12.2317 16.575 12.2311 16.575 12.2306C16.575 12.23 16.575 12.2295 16.575 12.229C16.575 12.2284 16.575 12.2279 16.575 12.2274C16.575 12.2268 16.575 12.2263 16.575 12.2257C16.575 12.2252 16.575 12.2247 16.575 12.2241C16.575 12.2236 16.575 12.2231 16.575 12.2225C16.575 12.222 16.575 12.2214 16.575 12.2209C16.575 12.2204 16.575 12.2198 16.575 12.2193C16.575 12.2188 16.575 12.2182 16.575 12.2177C16.575 12.2172 16.575 12.2166 16.575 12.2161C16.575 12.2155 16.575 12.215 16.575 12.2145C16.575 12.2139 16.575 12.2134 16.575 12.2129C16.575 12.2123 16.575 12.2118 16.575 12.2113C16.575 12.2107 16.575 12.2102 16.575 12.2097C16.575 12.2091 16.575 12.2086 16.575 12.208C16.575 12.2075 16.575 12.207 16.575 12.2064C16.575 12.2059 16.575 12.2054 16.575 12.2048C16.575 12.2043 16.575 12.2038 16.575 12.2032C16.575 12.2027 16.575 12.2022 16.575 12.2016C16.575 12.2011 16.575 12.2006 16.575 12.2C16.575 12.1995 16.575 12.199 16.575 12.1984C16.575 12.1979 16.575 12.1973 16.575 12.1968C16.575 12.1963 16.575 12.1957 16.575 12.1952C16.575 12.1947 16.575 12.1941 16.575 12.1936C16.575 12.1931 16.575 12.1925 16.575 12.192C16.575 12.1915 16.575 12.1909 16.575 12.1904C16.575 12.1899 16.575 12.1893 16.575 12.1888C16.575 12.1883 16.575 12.1877 16.575 12.1872C16.575 12.1867 16.575 12.1861 16.575 12.1856C16.575 12.1851 16.575 12.1845 16.575 12.184C16.575 12.1835 16.575 12.1829 16.575 12.1824C16.575 12.1819 16.575 12.1813 16.575 12.1808C16.575 12.1803 16.575 12.1797 16.575 12.1792C16.575 12.1787 16.575 12.1781 16.575 12.1776C16.575 12.1771 16.575 12.1766 16.575 12.176C16.575 12.1755 16.575 12.175 16.575 12.1744C16.575 12.1739 16.575 12.1734 16.575 12.1728C16.575 12.1723 16.575 12.1718 16.575 12.1712C16.575 12.1707 16.575 12.1702 16.575 12.1696C16.575 12.1691 16.575 12.1686 16.575 12.168C16.575 12.1675 16.575 12.167 16.575 12.1665C16.575 12.1659 16.575 12.1654 16.575 12.1649C16.575 12.1643 16.575 12.1638 16.575 12.1633C16.575 12.1627 16.575 12.1622 16.575 12.1617C16.575 12.1611 16.575 12.1606 16.575 12.1601C16.575 12.1596 16.575 12.159 16.575 12.1585C16.575 12.158 16.575 12.1574 16.575 12.1569C16.575 12.1564 16.575 12.1558 16.575 12.1553C16.575 12.1548 16.575 12.1542 16.575 12.1537C16.575 12.1532 16.575 12.1527 16.575 12.1521C16.575 12.1516 16.575 12.1511 16.575 12.1505C16.575 12.15 16.575 12.1495 16.575 12.149C16.575 12.1484 16.575 12.1479 16.575 12.1474C16.575 12.1468 16.575 12.1463 16.575 12.1458C16.575 12.1452 16.575 12.1447 16.575 12.1442C16.575 12.1437 16.575 12.1431 16.575 12.1426C16.575 12.1421 16.575 12.1415 16.575 12.141C16.575 12.1405 16.575 12.14 16.575 12.1394C16.575 12.1389 16.575 12.1384 16.575 12.1379C16.575 12.1373 16.575 12.1368 16.575 12.1363C16.575 12.1357 16.575 12.1352 16.575 12.1347C16.575 12.1342 16.575 12.1336 16.575 12.1331C16.575 12.1326 16.575 12.132 16.575 12.1315C16.575 12.131 16.575 12.1305 16.575 12.1299C16.575 12.1294 16.575 12.1289 16.575 12.1284C16.575 12.1278 16.575 12.1273 16.575 12.1268C16.575 12.1262 16.575 12.1257 16.575 12.1252C16.575 12.1247 16.575 12.1241 16.575 12.1236C16.575 12.1231 16.575 12.1226 16.575 12.122C16.575 12.1215 16.575 12.121 16.575 12.1205C16.575 12.1199 16.575 12.1194 16.575 12.1189C16.575 12.1183 16.575 12.1178 16.575 12.1173C16.575 12.1168 16.575 12.1162 16.575 12.1157C16.575 12.1152 16.575 12.1147 16.575 12.1141C16.575 12.1136 16.575 12.1131 16.575 12.1126C16.575 12.112 16.575 12.1115 16.575 12.111C16.575 12.1105 16.575 12.1099 16.575 12.1094C16.575 12.1089 16.575 12.1084 16.575 12.1078C16.575 12.1073 16.575 12.1068 16.575 12.1063C16.575 12.1057 16.575 12.1052 16.575 12.1047C16.575 12.1042 16.575 12.1036 16.575 12.1031C16.575 12.1026 16.575 12.1021 16.575 12.1015C16.575 12.101 16.575 12.1005 16.575 12.1C16.575 12.0994 16.575 12.0989 16.575 12.0984C16.575 12.0979 16.575 12.0973 16.575 12.0968C16.575 12.0963 16.575 12.0958 16.575 12.0952C16.575 12.0947 16.575 12.0942 16.575 12.0937C16.575 12.0932 16.575 12.0926 16.575 12.0921C16.575 12.0916 16.575 12.0911 16.575 12.0905C16.575 12.09 16.575 12.0895 16.575 12.089C16.575 12.0884 16.575 12.0879 16.575 12.0874C16.575 12.0869 16.575 12.0864 16.575 12.0858C16.575 12.0853 16.575 12.0848 16.575 12.0843C16.575 12.0837 16.575 12.0832 16.575 12.0827C16.575 12.0822 16.575 12.0817 16.575 12.0811C16.575 12.0806 16.575 12.0801 16.575 12.0796C16.575 12.079 16.575 12.0785 16.575 12.078C16.575 12.0775 16.575 12.077 16.575 12.0764C16.575 12.0759 16.575 12.0754 16.575 12.0749C16.575 12.0743 16.575 12.0738 16.575 12.0733C16.575 12.0728 16.575 12.0723 16.575 12.0717C16.575 12.0712 16.575 12.0707 16.575 12.0702C16.575 12.0697 16.575 12.0691 16.575 12.0686C16.575 12.0681 16.575 12.0676 16.575 12.067C16.575 12.0665 16.575 12.066 16.575 12.0655C16.575 12.065 16.575 12.0644 16.575 12.0639C16.575 12.0634 16.575 12.0629 16.575 12.0624C16.575 12.0618 16.575 12.0613 16.575 12.0608C16.575 12.0603 16.575 12.0598 16.575 12.0592C16.575 12.0587 16.575 12.0582 16.575 12.0577C16.575 12.0572 16.575 12.0566 16.575 12.0561C16.575 12.0556 16.575 12.0551 16.575 12.0546C16.575 12.054 16.575 12.0535 16.575 12.053C16.575 12.0525 16.575 12.052 16.575 12.0514C16.575 12.0509 16.575 12.0504 16.575 12.0499C16.575 12.0494 16.575 12.0489 16.575 12.0483C16.575 12.0478 16.575 12.0473 16.575 12.0468C16.575 12.0463 16.575 12.0457 16.575 12.0452C16.575 12.0447 16.575 12.0442 16.575 12.0437C16.575 12.0431 16.575 12.0426 16.575 12.0421C16.575 12.0416 16.575 12.0411 16.575 12.0406C16.575 12.04 16.575 12.0395 16.575 12.039C16.575 12.0385 16.575 12.038 16.575 12.0375C16.575 12.0369 16.575 12.0364 16.575 12.0359C16.575 12.0354 16.575 12.0349 16.575 12.0343C16.575 12.0338 16.575 12.0333 16.575 12.0328C16.575 12.0323 16.575 12.0318 16.575 12.0312C16.575 12.0307 16.575 12.0302 16.575 12.0297C16.575 12.0292 16.575 12.0287 16.575 12.0281C16.575 12.0276 16.575 12.0271 16.575 12.0266C16.575 12.0261 16.575 12.0256 16.575 12.025C16.575 12.0245 16.575 12.024 16.575 12.0235C16.575 12.023 16.575 12.0225 16.575 12.0219C16.575 12.0214 16.575 12.0209 16.575 12.0204C16.575 12.0199 16.575 12.0194 16.575 12.0188C16.575 12.0183 16.575 12.0178 16.575 12.0173C16.575 12.0168 16.575 12.0163 16.575 12.0158C16.575 12.0152 16.575 12.0147 16.575 12.0142C16.575 12.0137 16.575 12.0132 16.575 12.0127C16.575 12.0121 16.575 12.0116 16.575 12.0111C16.575 12.0106 16.575 12.0101 16.575 12.0096C16.575 12.0091 16.575 12.0085 16.575 12.008C16.575 12.0075 16.575 12.007 16.575 12.0065C16.575 12.006 16.575 12.0055 16.575 12.0049C16.575 12.0044 16.575 12.0039 16.575 12.0034C16.575 12.0029 16.575 12.0024 16.575 12.0019C16.575 12.0013 16.575 12.0008 16.575 12.0003C16.575 11.9998 16.575 11.9993 16.575 11.9988C16.575 11.9983 16.575 11.9978 16.575 11.9972C16.575 11.9967 16.575 11.9962 16.575 11.9957C16.575 11.9952 16.575 11.9947 16.575 11.9942C16.575 11.9936 16.575 11.9931 16.575 11.9926C16.575 11.9921 16.575 11.9916 16.575 11.9911C16.575 11.9906 16.575 11.9901 16.575 11.9895C16.575 11.989 16.575 11.9885 16.575 11.988C16.575 11.9875 16.575 11.987 16.575 11.9865C16.575 11.986 16.575 11.9854 16.575 11.9849C16.575 11.9844 16.575 11.9839 16.575 11.9834C16.575 11.9829 16.575 11.9824 16.575 11.9819C16.575 11.9813 16.575 11.9808 16.575 11.9803C16.575 11.9798 16.575 11.9793 16.575 11.9788C16.575 11.9783 16.575 11.9778 16.575 11.9773C16.575 11.9767 16.575 11.9762 16.575 11.9757C16.575 11.9752 16.575 11.9747 16.575 11.9742C16.575 11.9737 16.575 11.9732 16.575 11.9727C16.575 11.9721 16.575 11.9716 16.575 11.9711C16.575 11.9706 16.575 11.9701 16.575 11.9696C16.575 11.9691 16.575 11.9686 16.575 11.9681C16.575 11.9675 16.575 11.967 16.575 11.9665C16.575 11.966 16.575 11.9655 16.575 11.965C16.575 11.9645 16.575 11.964 16.575 11.9635C16.575 11.963 16.575 11.9624 16.575 11.9619C16.575 11.9614 16.575 11.9609 16.575 11.9604C16.575 11.9599 16.575 11.9594 16.575 11.9589C16.575 11.9584 16.575 11.9579 16.575 11.9574C16.575 11.9568 16.575 11.9563 16.575 11.9558C16.575 11.9553 16.575 11.9548 16.575 11.9543C16.575 11.9538 16.575 11.9533 16.575 11.9528C16.575 11.9523 16.575 11.9518 16.575 11.9512C16.575 11.9507 16.575 11.9502 16.575 11.9497C16.575 11.9492 16.575 11.9487 16.575 11.9482C16.575 11.9477 16.575 11.9472 16.575 11.9467C16.575 11.9462 16.575 11.9457 16.575 11.9451C16.575 11.9446 16.575 11.9441 16.575 11.9436C16.575 11.9431 16.575 11.9426 16.575 11.9421C16.575 11.9416 16.575 11.9411 16.575 11.9406C16.575 11.9401 16.575 11.9396 16.575 11.9391C16.575 11.9385 16.575 11.938 16.575 11.9375C16.575 11.937 16.575 11.9365 16.575 11.936C16.575 11.9355 16.575 11.935 16.575 11.9345C16.575 11.934 16.575 11.9335 16.575 11.933C16.575 11.9325 16.575 11.932 16.575 11.9314C16.575 11.9309 16.575 11.9304 16.575 11.9299C16.575 11.9294 16.575 11.9289 16.575 11.9284C16.575 11.9279 16.575 11.9274 16.575 11.9269C16.575 11.9264 16.575 11.9259 16.575 11.9254C16.575 11.9249 16.575 11.9244 16.575 11.9239C16.575 11.9234 16.575 11.9228 16.575 11.9223C16.575 11.9218 16.575 11.9213 16.575 11.9208C16.575 11.9203 16.575 11.9198 16.575 11.9193C16.575 11.9188 16.575 11.9183 16.575 11.9178C16.575 11.9173 16.575 11.9168 16.575 11.9163C16.575 11.9158 16.575 11.9153 16.575 11.9148C16.575 11.9143 16.575 11.9138 16.575 11.9133C16.575 11.9127 16.575 11.9122 16.575 11.9117C16.575 11.9112 16.575 11.9107 16.575 11.9102C16.575 11.9097 16.575 11.9092 16.575 11.9087C16.575 11.9082 16.575 11.9077 16.575 11.9072C16.575 11.9067 16.575 11.9062 16.575 11.9057C16.575 11.9052 16.575 11.9047 16.575 11.9042C16.575 11.9037 16.575 11.9032 16.575 11.9027C16.575 11.9022 16.575 11.9017 16.575 11.9012C16.575 11.9007 16.575 11.9001 16.575 11.8996C16.575 11.8991 16.575 11.8986 16.575 11.8981C16.575 11.8976 16.575 11.8971 16.575 11.8966C16.575 11.8961 16.575 11.8956 16.575 11.8951C16.575 11.8946 16.575 11.8941 16.575 11.8936C16.575 11.8931 16.575 11.8926 16.575 11.8921C16.575 11.8916 16.575 11.8911 16.575 11.8906C16.575 11.8901 16.575 11.8896 16.575 11.8891C16.575 11.8886 16.575 11.8881 16.575 11.8876C16.575 11.8871 16.575 11.8866 16.575 11.8861C16.575 11.8856 16.575 11.8851 16.575 11.8846C16.575 11.8841 16.575 11.8836 16.575 11.8831C16.575 11.8826 16.575 11.8821 16.575 11.8816C16.575 11.8811 16.575 11.8806 16.575 11.8801C16.575 11.8796 16.575 11.8791 16.575 11.8786C16.575 11.8781 16.575 11.8776 16.575 11.8771C16.575 11.8766 16.575 11.8761 16.575 11.8756C16.575 11.8751 16.575 11.8746 16.575 11.8741C16.575 11.8736 16.575 11.8731 16.575 11.8726C16.575 11.8721 16.575 11.8716 16.575 11.8711C16.575 11.8706 16.575 11.8701 16.575 11.8696C16.575 11.8691 16.575 11.8686 16.575 11.8681C16.575 11.8676 16.575 11.8671 16.575 11.8666C16.575 11.8661 16.575 11.8656 16.575 11.8651C16.575 11.8646 16.575 11.8641 16.575 11.8636C16.575 11.8631 16.575 11.8626 16.575 11.8621C16.575 11.8616 16.575 11.8611 16.575 11.8606C16.575 11.8601 16.575 11.8596 16.575 11.8591C16.575 11.8586 16.575 11.8581 16.575 11.8576C16.575 11.8571 16.575 11.8566 16.575 11.8561C16.575 11.8556 16.575 11.8551 16.575 11.8546C16.575 11.8541 16.575 11.8536 16.575 11.8531C16.575 11.8526 16.575 11.8521 16.575 11.8516C16.575 11.8511 16.575 11.8506 16.575 11.8501C16.575 11.8496 16.575 11.8491 16.575 11.8486C16.575 11.8481 16.575 11.8476 16.575 11.8471C16.575 11.8466 16.575 11.8461 16.575 11.8456C16.575 11.8451 16.575 11.8446 16.575 11.8441C16.575 11.8436 16.575 11.8431 16.575 11.8426C16.575 11.8421 16.575 11.8416 16.575 11.8411C16.575 11.8406 16.575 11.8402 16.575 11.8397C16.575 11.8392 16.575 11.8387 16.575 11.8382C16.575 11.8377 16.575 11.8372 16.575 11.8367C16.575 11.8362 16.575 11.8357 16.575 11.8352C16.575 11.8347 16.575 11.8342 16.575 11.8337C16.575 11.8332 16.575 11.8327 16.575 11.8322C16.575 11.8317 16.575 11.8312 16.575 11.8307C16.575 11.8302 16.575 11.8297 16.575 11.8292C16.575 11.8287 16.575 11.8282 16.575 11.8277C16.575 11.8273 16.575 11.8268 16.575 11.8263C16.575 11.8258 16.575 11.8253 16.575 11.8248C16.575 11.8243 16.575 11.8238 16.575 11.8233C16.575 11.8228 16.575 11.8223 16.575 11.8218C16.575 11.8213 16.575 11.8208 16.575 11.8203C16.575 11.8198 16.575 11.8193 16.575 11.8188C16.575 11.8183 16.575 11.8179 16.575 11.8174C16.575 11.8169 16.575 11.8164 16.575 11.8159C16.575 11.8154 16.575 11.8149 16.575 11.8144C16.575 11.8139 16.575 11.8134 16.575 11.8129C16.575 11.8124 16.575 11.8119 16.575 11.8114C16.575 11.8109 16.575 11.8104 16.575 11.8099C16.575 11.8095 16.575 11.809 16.575 11.8085C16.575 11.808 16.575 11.8075 16.575 11.807C16.575 11.8065 16.575 11.806 16.575 11.8055C16.575 11.805 16.575 11.8045 16.575 11.804C16.575 11.8035 16.575 11.803 16.575 11.8026C16.575 11.8021 16.575 11.8016 16.575 11.8011C16.575 11.8006 16.575 11.8001 16.575 11.7996C16.575 11.7991 16.575 11.7986 16.575 11.7981C16.575 11.7976 16.575 11.7971 16.575 11.7966C16.575 11.7961 16.575 11.7957 16.575 11.7952C16.575 11.7947 16.575 11.7942 16.575 11.7937C16.575 11.7932 16.575 11.7927 16.575 11.7922C16.575 11.7917 16.575 11.7912 16.575 11.7907C16.575 11.7902 16.575 11.7898 16.575 11.7893C16.575 11.7888 16.575 11.7883 16.575 11.7878C16.575 11.7873 16.575 11.7868 16.575 11.7863C16.575 11.7858 16.575 11.7853 16.575 11.7848C16.575 11.7844 16.575 11.7839 16.575 11.7834C16.575 11.7829 16.575 11.7824 16.575 11.7819C16.575 11.7814 16.575 11.7809 16.575 11.7804C16.575 11.7799 16.575 11.7794 16.575 11.779C16.575 11.7785 16.575 11.778 16.575 11.7775C16.575 11.777 16.575 11.7765 16.575 11.776C16.575 11.7755 16.575 11.775 16.575 11.7746C16.575 11.7741 16.575 11.7736 16.575 11.7731C16.575 11.7726 16.575 11.7721 16.575 11.7716C16.575 11.7711 16.575 11.7706 16.575 11.7701C16.575 11.7697 16.575 11.7692 16.575 11.7687C16.575 11.7682 16.575 11.7677 16.575 11.7672C16.575 11.7667 16.575 11.7662 16.575 11.7657C16.575 11.7653 16.575 11.7648 16.575 11.7643C16.575 11.7638 16.575 11.7633 16.575 11.7628C16.575 11.7623 16.575 11.7618 16.575 11.7613C16.575 11.7609 16.575 11.7604 16.575 11.7599C16.575 11.7594 16.575 11.7589 16.575 11.7584C16.575 11.7579 16.575 11.7574 16.575 11.757C16.575 11.7565 16.575 11.756 16.575 11.7555C16.575 11.755 16.575 11.7545 16.575 11.754C16.575 11.7535 16.575 11.7531 16.575 11.7526C16.575 11.7521 16.575 11.7516 16.575 11.7511C16.575 11.7506 16.575 11.7501 16.575 11.7496C16.575 11.7492 16.575 11.7487 16.575 11.7482C16.575 11.7477 16.575 11.7472 16.575 11.7467C16.575 11.7462 16.575 11.7457 16.575 11.7453C16.575 11.7448 16.575 11.7443 16.575 11.7438C16.575 11.7433 16.575 11.7428 16.575 11.7423C16.575 11.7419 16.575 11.7414 16.575 11.7409C16.575 11.7404 16.575 11.7399 16.575 11.7394C16.575 11.7389 16.575 11.7385 16.575 11.738C16.575 11.7375 16.575 11.737 16.575 11.7365C16.575 11.736 16.575 11.7355 16.575 11.7351C16.575 11.7346 16.575 11.7341 16.575 11.7336C16.575 11.7331 16.575 11.7326 16.575 11.7321C16.575 11.7317 16.575 11.7312 16.575 11.7307C16.575 11.7302 16.575 11.7297 16.575 11.7292C16.575 11.7287 16.575 11.7283 16.575 11.7278C16.575 11.7273 16.575 11.7268 16.575 11.7263C16.575 11.7258 16.575 11.7254 16.575 11.7249C16.575 11.7244 16.575 11.7239 16.575 11.7234C16.575 11.7229 16.575 11.7225 16.575 11.722C16.575 11.7215 16.575 11.721 16.575 11.7205C16.575 11.72 16.575 11.7195 16.575 11.7191C16.575 11.7186 16.575 11.7181 16.575 11.7176C16.575 11.7171 16.575 11.7166 16.575 11.7162C16.575 11.7157 16.575 11.7152 16.575 11.7147C16.575 11.7142 16.575 11.7137 16.575 11.7133C16.575 11.7128 16.575 11.7123 16.575 11.7118C16.575 11.7113 16.575 11.7108 16.575 11.7104C16.575 11.7099 16.575 11.7094 16.575 11.7089C16.575 11.7084 16.575 11.708 16.575 11.7075C16.575 11.707 16.575 11.7065 16.575 11.706C16.575 11.7055 16.575 11.7051 16.575 11.7046C16.575 11.7041 16.575 11.7036 16.575 11.7031C16.575 11.7026 16.575 11.7022 16.575 11.7017C16.575 11.7012 16.575 11.7007 16.575 11.7002C16.575 11.6998 16.575 11.6993 16.575 11.6988C16.575 11.6983 16.575 11.6978 16.575 11.6973C16.575 11.6969 16.575 11.6964 16.575 11.6959C16.575 11.6954 16.575 11.6949 16.575 11.6945C16.575 11.694 16.575 11.6935 16.575 11.693C16.575 11.6925 16.575 11.6921 16.575 11.6916C16.575 11.6911 16.575 11.6906 16.575 11.6901C16.575 11.6897 16.575 11.6892 16.575 11.6887C16.575 11.6882 16.575 11.6877 16.575 11.6873C16.575 11.6868 16.575 11.6863 16.575 11.6858C16.575 11.6853 16.575 11.6849 16.575 11.6844C16.575 11.6839 16.575 11.6834 16.575 11.6829C16.575 11.6825 16.575 11.682 16.575 11.6815C16.575 11.681 16.575 11.6805 16.575 11.6801C16.575 11.6796 16.575 11.6791 16.575 11.6786C16.575 11.6781 16.575 11.6777 16.575 11.6772C16.575 11.6767 16.575 11.6762 16.575 11.6757C16.575 11.6753 16.575 11.6748 16.575 11.6743C16.575 11.6738 16.575 11.6733 16.575 11.6729C16.575 11.6724 16.575 11.6719 16.575 11.6714C16.575 11.671 16.575 11.6705 16.575 11.67C16.575 11.6695 16.575 11.669 16.575 11.6686C16.575 11.6681 16.575 11.6676 16.575 11.6671C16.575 11.6666 16.575 11.6662 16.575 11.6657C16.575 11.6652 16.575 11.6647 16.575 11.6643C16.575 11.6638 16.575 11.6633 16.575 11.6628C16.575 11.6623 16.575 11.6619 16.575 11.6614C16.575 11.6609 16.575 11.6604 16.575 11.66C16.575 11.6595 16.575 11.659 16.575 11.6585C16.575 11.6581 16.575 11.6576 16.575 11.6571C16.575 11.6566 16.575 11.6561 16.575 11.6557C16.575 11.6552 16.575 11.6547 16.575 11.6542C16.575 11.6538 16.575 11.6533 16.575 11.6528C16.575 11.6523 16.575 11.6519 16.575 11.6514C16.575 11.6509 16.575 11.6504 16.575 11.65C16.575 11.6495 16.575 11.649 16.575 11.6485C16.575 11.648 16.575 11.6476 16.575 11.6471C16.575 11.6466 16.575 11.6461 16.575 11.6457C16.575 11.6452 16.575 11.6447 16.575 11.6442C16.575 11.6438 16.575 11.6433 16.575 11.6428C16.575 11.6423 16.575 11.6419 16.575 11.6414C16.575 11.6409 16.575 11.6404 16.575 11.64C16.575 11.6395 16.575 11.639 16.575 11.6385C16.575 11.6381 16.575 11.6376 16.575 11.6371C16.575 11.6366 16.575 11.6362 16.575 11.6357C16.575 11.6352 16.575 11.6347 16.575 11.6343C16.575 11.6338 16.575 11.6333 16.575 11.6328C16.575 11.6324 16.575 11.6319 16.575 11.6314C16.575 11.6309 16.575 11.6305 16.575 11.63C16.575 11.6295 16.575 11.629 16.575 11.6286C16.575 11.6281 16.575 11.6276 16.575 11.6272C16.575 11.6267 16.575 11.6262 16.575 11.6257C16.575 11.6253 16.575 11.6248 16.575 11.6243C16.575 11.6238 16.575 11.6234 16.575 11.6229C16.575 11.6224 16.575 11.6219 16.575 11.6215C16.575 11.621 16.575 11.6205 16.575 11.6201C16.575 11.6196 16.575 11.6191 16.575 11.6186C16.575 11.6182 16.575 11.6177 16.575 11.6172C16.575 11.6167 16.575 11.6163 16.575 11.6158C16.575 11.6153 16.575 11.6149 16.575 11.6144C16.575 11.6139 16.575 11.6134 16.575 11.613C16.575 11.6125 16.575 11.612 16.575 11.6115C16.575 11.6111 16.575 11.6106 16.575 11.6101C16.575 11.6097 16.575 11.6092 16.575 11.6087H16ZM16 12.3961H15.425C15.425 14.8969 13.7738 16.1106 12.6804 16.648L12.934 17.164L13.1876 17.6801C14.4582 17.0556 16.575 15.5333 16.575 12.3961H16ZM11.066 17.164L11.3196 16.648C10.2262 16.1106 8.575 14.8969 8.575 12.3961H8H7.425C7.425 15.5333 9.54177 17.0556 10.8124 17.6801L11.066 17.164ZM8 12.3961H8.575C8.575 12.3955 8.575 12.395 8.575 12.3944C8.575 12.3939 8.575 12.3933 8.575 12.3927C8.575 12.3922 8.575 12.3916 8.575 12.3911C8.575 12.3905 8.575 12.39 8.575 12.3894C8.575 12.3889 8.575 12.3883 8.575 12.3878C8.575 12.3872 8.575 12.3866 8.575 12.3861C8.575 12.3855 8.575 12.385 8.575 12.3844C8.575 12.3839 8.575 12.3833 8.575 12.3828C8.575 12.3822 8.575 12.3817 8.575 12.3811C8.575 12.3806 8.575 12.38 8.575 12.3795C8.575 12.3789 8.575 12.3784 8.575 12.3778C8.575 12.3772 8.575 12.3767 8.575 12.3761C8.575 12.3756 8.575 12.375 8.575 12.3745C8.575 12.3739 8.575 12.3734 8.575 12.3728C8.575 12.3723 8.575 12.3717 8.575 12.3712C8.575 12.3706 8.575 12.3701 8.575 12.3695C8.575 12.369 8.575 12.3684 8.575 12.3679C8.575 12.3673 8.575 12.3668 8.575 12.3662C8.575 12.3657 8.575 12.3651 8.575 12.3645C8.575 12.364 8.575 12.3634 8.575 12.3629C8.575 12.3623 8.575 12.3618 8.575 12.3612C8.575 12.3607 8.575 12.3601 8.575 12.3596C8.575 12.359 8.575 12.3585 8.575 12.3579C8.575 12.3574 8.575 12.3568 8.575 12.3563C8.575 12.3557 8.575 12.3552 8.575 12.3546C8.575 12.3541 8.575 12.3535 8.575 12.353C8.575 12.3524 8.575 12.3519 8.575 12.3513C8.575 12.3508 8.575 12.3502 8.575 12.3497C8.575 12.3491 8.575 12.3486 8.575 12.348C8.575 12.3475 8.575 12.3469 8.575 12.3464C8.575 12.3458 8.575 12.3453 8.575 12.3447C8.575 12.3442 8.575 12.3436 8.575 12.3431C8.575 12.3425 8.575 12.342 8.575 12.3414C8.575 12.3409 8.575 12.3403 8.575 12.3398C8.575 12.3392 8.575 12.3387 8.575 12.3381C8.575 12.3376 8.575 12.337 8.575 12.3365C8.575 12.3359 8.575 12.3354 8.575 12.3349C8.575 12.3343 8.575 12.3338 8.575 12.3332C8.575 12.3327 8.575 12.3321 8.575 12.3316C8.575 12.331 8.575 12.3305 8.575 12.3299C8.575 12.3294 8.575 12.3288 8.575 12.3283C8.575 12.3277 8.575 12.3272 8.575 12.3266C8.575 12.3261 8.575 12.3255 8.575 12.325C8.575 12.3244 8.575 12.3239 8.575 12.3233C8.575 12.3228 8.575 12.3223 8.575 12.3217C8.575 12.3212 8.575 12.3206 8.575 12.3201C8.575 12.3195 8.575 12.319 8.575 12.3184C8.575 12.3179 8.575 12.3173 8.575 12.3168C8.575 12.3162 8.575 12.3157 8.575 12.3151C8.575 12.3146 8.575 12.3141 8.575 12.3135C8.575 12.313 8.575 12.3124 8.575 12.3119C8.575 12.3113 8.575 12.3108 8.575 12.3102C8.575 12.3097 8.575 12.3091 8.575 12.3086C8.575 12.308 8.575 12.3075 8.575 12.307C8.575 12.3064 8.575 12.3059 8.575 12.3053C8.575 12.3048 8.575 12.3042 8.575 12.3037C8.575 12.3031 8.575 12.3026 8.575 12.302C8.575 12.3015 8.575 12.301 8.575 12.3004C8.575 12.2999 8.575 12.2993 8.575 12.2988C8.575 12.2982 8.575 12.2977 8.575 12.2971C8.575 12.2966 8.575 12.2961 8.575 12.2955C8.575 12.295 8.575 12.2944 8.575 12.2939C8.575 12.2933 8.575 12.2928 8.575 12.2922C8.575 12.2917 8.575 12.2912 8.575 12.2906C8.575 12.2901 8.575 12.2895 8.575 12.289C8.575 12.2884 8.575 12.2879 8.575 12.2874C8.575 12.2868 8.575 12.2863 8.575 12.2857C8.575 12.2852 8.575 12.2846 8.575 12.2841C8.575 12.2835 8.575 12.283 8.575 12.2825C8.575 12.2819 8.575 12.2814 8.575 12.2808C8.575 12.2803 8.575 12.2797 8.575 12.2792C8.575 12.2787 8.575 12.2781 8.575 12.2776C8.575 12.277 8.575 12.2765 8.575 12.2759C8.575 12.2754 8.575 12.2749 8.575 12.2743C8.575 12.2738 8.575 12.2732 8.575 12.2727C8.575 12.2722 8.575 12.2716 8.575 12.2711C8.575 12.2705 8.575 12.27 8.575 12.2694C8.575 12.2689 8.575 12.2684 8.575 12.2678C8.575 12.2673 8.575 12.2667 8.575 12.2662C8.575 12.2657 8.575 12.2651 8.575 12.2646C8.575 12.264 8.575 12.2635 8.575 12.2629C8.575 12.2624 8.575 12.2619 8.575 12.2613C8.575 12.2608 8.575 12.2602 8.575 12.2597C8.575 12.2592 8.575 12.2586 8.575 12.2581C8.575 12.2575 8.575 12.257 8.575 12.2565C8.575 12.2559 8.575 12.2554 8.575 12.2548C8.575 12.2543 8.575 12.2538 8.575 12.2532C8.575 12.2527 8.575 12.2521 8.575 12.2516C8.575 12.2511 8.575 12.2505 8.575 12.25C8.575 12.2494 8.575 12.2489 8.575 12.2484C8.575 12.2478 8.575 12.2473 8.575 12.2467C8.575 12.2462 8.575 12.2457 8.575 12.2451C8.575 12.2446 8.575 12.244 8.575 12.2435C8.575 12.243 8.575 12.2424 8.575 12.2419C8.575 12.2413 8.575 12.2408 8.575 12.2403C8.575 12.2397 8.575 12.2392 8.575 12.2387C8.575 12.2381 8.575 12.2376 8.575 12.237C8.575 12.2365 8.575 12.236 8.575 12.2354C8.575 12.2349 8.575 12.2343 8.575 12.2338C8.575 12.2333 8.575 12.2327 8.575 12.2322C8.575 12.2317 8.575 12.2311 8.575 12.2306C8.575 12.23 8.575 12.2295 8.575 12.229C8.575 12.2284 8.575 12.2279 8.575 12.2274C8.575 12.2268 8.575 12.2263 8.575 12.2257C8.575 12.2252 8.575 12.2247 8.575 12.2241C8.575 12.2236 8.575 12.2231 8.575 12.2225C8.575 12.222 8.575 12.2214 8.575 12.2209C8.575 12.2204 8.575 12.2198 8.575 12.2193C8.575 12.2188 8.575 12.2182 8.575 12.2177C8.575 12.2172 8.575 12.2166 8.575 12.2161C8.575 12.2155 8.575 12.215 8.575 12.2145C8.575 12.2139 8.575 12.2134 8.575 12.2129C8.575 12.2123 8.575 12.2118 8.575 12.2113C8.575 12.2107 8.575 12.2102 8.575 12.2097C8.575 12.2091 8.575 12.2086 8.575 12.208C8.575 12.2075 8.575 12.207 8.575 12.2064C8.575 12.2059 8.575 12.2054 8.575 12.2048C8.575 12.2043 8.575 12.2038 8.575 12.2032C8.575 12.2027 8.575 12.2022 8.575 12.2016C8.575 12.2011 8.575 12.2006 8.575 12.2C8.575 12.1995 8.575 12.199 8.575 12.1984C8.575 12.1979 8.575 12.1973 8.575 12.1968C8.575 12.1963 8.575 12.1957 8.575 12.1952C8.575 12.1947 8.575 12.1941 8.575 12.1936C8.575 12.1931 8.575 12.1925 8.575 12.192C8.575 12.1915 8.575 12.1909 8.575 12.1904C8.575 12.1899 8.575 12.1893 8.575 12.1888C8.575 12.1883 8.575 12.1877 8.575 12.1872C8.575 12.1867 8.575 12.1861 8.575 12.1856C8.575 12.1851 8.575 12.1845 8.575 12.184C8.575 12.1835 8.575 12.1829 8.575 12.1824C8.575 12.1819 8.575 12.1813 8.575 12.1808C8.575 12.1803 8.575 12.1797 8.575 12.1792C8.575 12.1787 8.575 12.1781 8.575 12.1776C8.575 12.1771 8.575 12.1766 8.575 12.176C8.575 12.1755 8.575 12.175 8.575 12.1744C8.575 12.1739 8.575 12.1734 8.575 12.1728C8.575 12.1723 8.575 12.1718 8.575 12.1712C8.575 12.1707 8.575 12.1702 8.575 12.1696C8.575 12.1691 8.575 12.1686 8.575 12.168C8.575 12.1675 8.575 12.167 8.575 12.1665C8.575 12.1659 8.575 12.1654 8.575 12.1649C8.575 12.1643 8.575 12.1638 8.575 12.1633C8.575 12.1627 8.575 12.1622 8.575 12.1617C8.575 12.1611 8.575 12.1606 8.575 12.1601C8.575 12.1596 8.575 12.159 8.575 12.1585C8.575 12.158 8.575 12.1574 8.575 12.1569C8.575 12.1564 8.575 12.1558 8.575 12.1553C8.575 12.1548 8.575 12.1542 8.575 12.1537C8.575 12.1532 8.575 12.1527 8.575 12.1521C8.575 12.1516 8.575 12.1511 8.575 12.1505C8.575 12.15 8.575 12.1495 8.575 12.149C8.575 12.1484 8.575 12.1479 8.575 12.1474C8.575 12.1468 8.575 12.1463 8.575 12.1458C8.575 12.1452 8.575 12.1447 8.575 12.1442C8.575 12.1437 8.575 12.1431 8.575 12.1426C8.575 12.1421 8.575 12.1415 8.575 12.141C8.575 12.1405 8.575 12.14 8.575 12.1394C8.575 12.1389 8.575 12.1384 8.575 12.1379C8.575 12.1373 8.575 12.1368 8.575 12.1363C8.575 12.1357 8.575 12.1352 8.575 12.1347C8.575 12.1342 8.575 12.1336 8.575 12.1331C8.575 12.1326 8.575 12.132 8.575 12.1315C8.575 12.131 8.575 12.1305 8.575 12.1299C8.575 12.1294 8.575 12.1289 8.575 12.1284C8.575 12.1278 8.575 12.1273 8.575 12.1268C8.575 12.1262 8.575 12.1257 8.575 12.1252C8.575 12.1247 8.575 12.1241 8.575 12.1236C8.575 12.1231 8.575 12.1226 8.575 12.122C8.575 12.1215 8.575 12.121 8.575 12.1205C8.575 12.1199 8.575 12.1194 8.575 12.1189C8.575 12.1183 8.575 12.1178 8.575 12.1173C8.575 12.1168 8.575 12.1162 8.575 12.1157C8.575 12.1152 8.575 12.1147 8.575 12.1141C8.575 12.1136 8.575 12.1131 8.575 12.1126C8.575 12.112 8.575 12.1115 8.575 12.111C8.575 12.1105 8.575 12.1099 8.575 12.1094C8.575 12.1089 8.575 12.1084 8.575 12.1078C8.575 12.1073 8.575 12.1068 8.575 12.1063C8.575 12.1057 8.575 12.1052 8.575 12.1047C8.575 12.1042 8.575 12.1036 8.575 12.1031C8.575 12.1026 8.575 12.1021 8.575 12.1015C8.575 12.101 8.575 12.1005 8.575 12.1C8.575 12.0994 8.575 12.0989 8.575 12.0984C8.575 12.0979 8.575 12.0973 8.575 12.0968C8.575 12.0963 8.575 12.0958 8.575 12.0952C8.575 12.0947 8.575 12.0942 8.575 12.0937C8.575 12.0932 8.575 12.0926 8.575 12.0921C8.575 12.0916 8.575 12.0911 8.575 12.0905C8.575 12.09 8.575 12.0895 8.575 12.089C8.575 12.0884 8.575 12.0879 8.575 12.0874C8.575 12.0869 8.575 12.0864 8.575 12.0858C8.575 12.0853 8.575 12.0848 8.575 12.0843C8.575 12.0837 8.575 12.0832 8.575 12.0827C8.575 12.0822 8.575 12.0817 8.575 12.0811C8.575 12.0806 8.575 12.0801 8.575 12.0796C8.575 12.079 8.575 12.0785 8.575 12.078C8.575 12.0775 8.575 12.077 8.575 12.0764C8.575 12.0759 8.575 12.0754 8.575 12.0749C8.575 12.0743 8.575 12.0738 8.575 12.0733C8.575 12.0728 8.575 12.0723 8.575 12.0717C8.575 12.0712 8.575 12.0707 8.575 12.0702C8.575 12.0697 8.575 12.0691 8.575 12.0686C8.575 12.0681 8.575 12.0676 8.575 12.067C8.575 12.0665 8.575 12.066 8.575 12.0655C8.575 12.065 8.575 12.0644 8.575 12.0639C8.575 12.0634 8.575 12.0629 8.575 12.0624C8.575 12.0618 8.575 12.0613 8.575 12.0608C8.575 12.0603 8.575 12.0598 8.575 12.0592C8.575 12.0587 8.575 12.0582 8.575 12.0577C8.575 12.0572 8.575 12.0566 8.575 12.0561C8.575 12.0556 8.575 12.0551 8.575 12.0546C8.575 12.054 8.575 12.0535 8.575 12.053C8.575 12.0525 8.575 12.052 8.575 12.0514C8.575 12.0509 8.575 12.0504 8.575 12.0499C8.575 12.0494 8.575 12.0489 8.575 12.0483C8.575 12.0478 8.575 12.0473 8.575 12.0468C8.575 12.0463 8.575 12.0457 8.575 12.0452C8.575 12.0447 8.575 12.0442 8.575 12.0437C8.575 12.0431 8.575 12.0426 8.575 12.0421C8.575 12.0416 8.575 12.0411 8.575 12.0406C8.575 12.04 8.575 12.0395 8.575 12.039C8.575 12.0385 8.575 12.038 8.575 12.0375C8.575 12.0369 8.575 12.0364 8.575 12.0359C8.575 12.0354 8.575 12.0349 8.575 12.0343C8.575 12.0338 8.575 12.0333 8.575 12.0328C8.575 12.0323 8.575 12.0318 8.575 12.0312C8.575 12.0307 8.575 12.0302 8.575 12.0297C8.575 12.0292 8.575 12.0287 8.575 12.0281C8.575 12.0276 8.575 12.0271 8.575 12.0266C8.575 12.0261 8.575 12.0256 8.575 12.025C8.575 12.0245 8.575 12.024 8.575 12.0235C8.575 12.023 8.575 12.0225 8.575 12.0219C8.575 12.0214 8.575 12.0209 8.575 12.0204C8.575 12.0199 8.575 12.0194 8.575 12.0188C8.575 12.0183 8.575 12.0178 8.575 12.0173C8.575 12.0168 8.575 12.0163 8.575 12.0158C8.575 12.0152 8.575 12.0147 8.575 12.0142C8.575 12.0137 8.575 12.0132 8.575 12.0127C8.575 12.0121 8.575 12.0116 8.575 12.0111C8.575 12.0106 8.575 12.0101 8.575 12.0096C8.575 12.0091 8.575 12.0085 8.575 12.008C8.575 12.0075 8.575 12.007 8.575 12.0065C8.575 12.006 8.575 12.0055 8.575 12.0049C8.575 12.0044 8.575 12.0039 8.575 12.0034C8.575 12.0029 8.575 12.0024 8.575 12.0019C8.575 12.0013 8.575 12.0008 8.575 12.0003C8.575 11.9998 8.575 11.9993 8.575 11.9988C8.575 11.9983 8.575 11.9978 8.575 11.9972C8.575 11.9967 8.575 11.9962 8.575 11.9957C8.575 11.9952 8.575 11.9947 8.575 11.9942C8.575 11.9936 8.575 11.9931 8.575 11.9926C8.575 11.9921 8.575 11.9916 8.575 11.9911C8.575 11.9906 8.575 11.9901 8.575 11.9895C8.575 11.989 8.575 11.9885 8.575 11.988C8.575 11.9875 8.575 11.987 8.575 11.9865C8.575 11.986 8.575 11.9854 8.575 11.9849C8.575 11.9844 8.575 11.9839 8.575 11.9834C8.575 11.9829 8.575 11.9824 8.575 11.9819C8.575 11.9813 8.575 11.9808 8.575 11.9803C8.575 11.9798 8.575 11.9793 8.575 11.9788C8.575 11.9783 8.575 11.9778 8.575 11.9773C8.575 11.9767 8.575 11.9762 8.575 11.9757C8.575 11.9752 8.575 11.9747 8.575 11.9742C8.575 11.9737 8.575 11.9732 8.575 11.9727C8.575 11.9721 8.575 11.9716 8.575 11.9711C8.575 11.9706 8.575 11.9701 8.575 11.9696C8.575 11.9691 8.575 11.9686 8.575 11.9681C8.575 11.9675 8.575 11.967 8.575 11.9665C8.575 11.966 8.575 11.9655 8.575 11.965C8.575 11.9645 8.575 11.964 8.575 11.9635C8.575 11.963 8.575 11.9624 8.575 11.9619C8.575 11.9614 8.575 11.9609 8.575 11.9604C8.575 11.9599 8.575 11.9594 8.575 11.9589C8.575 11.9584 8.575 11.9579 8.575 11.9574C8.575 11.9568 8.575 11.9563 8.575 11.9558C8.575 11.9553 8.575 11.9548 8.575 11.9543C8.575 11.9538 8.575 11.9533 8.575 11.9528C8.575 11.9523 8.575 11.9518 8.575 11.9512C8.575 11.9507 8.575 11.9502 8.575 11.9497C8.575 11.9492 8.575 11.9487 8.575 11.9482C8.575 11.9477 8.575 11.9472 8.575 11.9467C8.575 11.9462 8.575 11.9457 8.575 11.9451C8.575 11.9446 8.575 11.9441 8.575 11.9436C8.575 11.9431 8.575 11.9426 8.575 11.9421C8.575 11.9416 8.575 11.9411 8.575 11.9406C8.575 11.9401 8.575 11.9396 8.575 11.9391C8.575 11.9385 8.575 11.938 8.575 11.9375C8.575 11.937 8.575 11.9365 8.575 11.936C8.575 11.9355 8.575 11.935 8.575 11.9345C8.575 11.934 8.575 11.9335 8.575 11.933C8.575 11.9325 8.575 11.932 8.575 11.9314C8.575 11.9309 8.575 11.9304 8.575 11.9299C8.575 11.9294 8.575 11.9289 8.575 11.9284C8.575 11.9279 8.575 11.9274 8.575 11.9269C8.575 11.9264 8.575 11.9259 8.575 11.9254C8.575 11.9249 8.575 11.9244 8.575 11.9239C8.575 11.9234 8.575 11.9228 8.575 11.9223C8.575 11.9218 8.575 11.9213 8.575 11.9208C8.575 11.9203 8.575 11.9198 8.575 11.9193C8.575 11.9188 8.575 11.9183 8.575 11.9178C8.575 11.9173 8.575 11.9168 8.575 11.9163C8.575 11.9158 8.575 11.9153 8.575 11.9148C8.575 11.9143 8.575 11.9138 8.575 11.9133C8.575 11.9127 8.575 11.9122 8.575 11.9117C8.575 11.9112 8.575 11.9107 8.575 11.9102C8.575 11.9097 8.575 11.9092 8.575 11.9087C8.575 11.9082 8.575 11.9077 8.575 11.9072C8.575 11.9067 8.575 11.9062 8.575 11.9057C8.575 11.9052 8.575 11.9047 8.575 11.9042C8.575 11.9037 8.575 11.9032 8.575 11.9027C8.575 11.9022 8.575 11.9017 8.575 11.9012C8.575 11.9007 8.575 11.9001 8.575 11.8996C8.575 11.8991 8.575 11.8986 8.575 11.8981C8.575 11.8976 8.575 11.8971 8.575 11.8966C8.575 11.8961 8.575 11.8956 8.575 11.8951C8.575 11.8946 8.575 11.8941 8.575 11.8936C8.575 11.8931 8.575 11.8926 8.575 11.8921C8.575 11.8916 8.575 11.8911 8.575 11.8906C8.575 11.8901 8.575 11.8896 8.575 11.8891C8.575 11.8886 8.575 11.8881 8.575 11.8876C8.575 11.8871 8.575 11.8866 8.575 11.8861C8.575 11.8856 8.575 11.8851 8.575 11.8846C8.575 11.8841 8.575 11.8836 8.575 11.8831C8.575 11.8826 8.575 11.8821 8.575 11.8816C8.575 11.8811 8.575 11.8806 8.575 11.8801C8.575 11.8796 8.575 11.8791 8.575 11.8786C8.575 11.8781 8.575 11.8776 8.575 11.8771C8.575 11.8766 8.575 11.8761 8.575 11.8756C8.575 11.8751 8.575 11.8746 8.575 11.8741C8.575 11.8736 8.575 11.8731 8.575 11.8726C8.575 11.8721 8.575 11.8716 8.575 11.8711C8.575 11.8706 8.575 11.8701 8.575 11.8696C8.575 11.8691 8.575 11.8686 8.575 11.8681C8.575 11.8676 8.575 11.8671 8.575 11.8666C8.575 11.8661 8.575 11.8656 8.575 11.8651C8.575 11.8646 8.575 11.8641 8.575 11.8636C8.575 11.8631 8.575 11.8626 8.575 11.8621C8.575 11.8616 8.575 11.8611 8.575 11.8606C8.575 11.8601 8.575 11.8596 8.575 11.8591C8.575 11.8586 8.575 11.8581 8.575 11.8576C8.575 11.8571 8.575 11.8566 8.575 11.8561C8.575 11.8556 8.575 11.8551 8.575 11.8546C8.575 11.8541 8.575 11.8536 8.575 11.8531C8.575 11.8526 8.575 11.8521 8.575 11.8516C8.575 11.8511 8.575 11.8506 8.575 11.8501C8.575 11.8496 8.575 11.8491 8.575 11.8486C8.575 11.8481 8.575 11.8476 8.575 11.8471C8.575 11.8466 8.575 11.8461 8.575 11.8456C8.575 11.8451 8.575 11.8446 8.575 11.8441C8.575 11.8436 8.575 11.8431 8.575 11.8426C8.575 11.8421 8.575 11.8416 8.575 11.8411C8.575 11.8406 8.575 11.8402 8.575 11.8397C8.575 11.8392 8.575 11.8387 8.575 11.8382C8.575 11.8377 8.575 11.8372 8.575 11.8367C8.575 11.8362 8.575 11.8357 8.575 11.8352C8.575 11.8347 8.575 11.8342 8.575 11.8337C8.575 11.8332 8.575 11.8327 8.575 11.8322C8.575 11.8317 8.575 11.8312 8.575 11.8307C8.575 11.8302 8.575 11.8297 8.575 11.8292C8.575 11.8287 8.575 11.8282 8.575 11.8277C8.575 11.8273 8.575 11.8268 8.575 11.8263C8.575 11.8258 8.575 11.8253 8.575 11.8248C8.575 11.8243 8.575 11.8238 8.575 11.8233C8.575 11.8228 8.575 11.8223 8.575 11.8218C8.575 11.8213 8.575 11.8208 8.575 11.8203C8.575 11.8198 8.575 11.8193 8.575 11.8188C8.575 11.8183 8.575 11.8179 8.575 11.8174C8.575 11.8169 8.575 11.8164 8.575 11.8159C8.575 11.8154 8.575 11.8149 8.575 11.8144C8.575 11.8139 8.575 11.8134 8.575 11.8129C8.575 11.8124 8.575 11.8119 8.575 11.8114C8.575 11.8109 8.575 11.8104 8.575 11.8099C8.575 11.8095 8.575 11.809 8.575 11.8085C8.575 11.808 8.575 11.8075 8.575 11.807C8.575 11.8065 8.575 11.806 8.575 11.8055C8.575 11.805 8.575 11.8045 8.575 11.804C8.575 11.8035 8.575 11.803 8.575 11.8026C8.575 11.8021 8.575 11.8016 8.575 11.8011C8.575 11.8006 8.575 11.8001 8.575 11.7996C8.575 11.7991 8.575 11.7986 8.575 11.7981C8.575 11.7976 8.575 11.7971 8.575 11.7966C8.575 11.7961 8.575 11.7957 8.575 11.7952C8.575 11.7947 8.575 11.7942 8.575 11.7937C8.575 11.7932 8.575 11.7927 8.575 11.7922C8.575 11.7917 8.575 11.7912 8.575 11.7907C8.575 11.7902 8.575 11.7898 8.575 11.7893C8.575 11.7888 8.575 11.7883 8.575 11.7878C8.575 11.7873 8.575 11.7868 8.575 11.7863C8.575 11.7858 8.575 11.7853 8.575 11.7848C8.575 11.7844 8.575 11.7839 8.575 11.7834C8.575 11.7829 8.575 11.7824 8.575 11.7819C8.575 11.7814 8.575 11.7809 8.575 11.7804C8.575 11.7799 8.575 11.7794 8.575 11.779C8.575 11.7785 8.575 11.778 8.575 11.7775C8.575 11.777 8.575 11.7765 8.575 11.776C8.575 11.7755 8.575 11.775 8.575 11.7746C8.575 11.7741 8.575 11.7736 8.575 11.7731C8.575 11.7726 8.575 11.7721 8.575 11.7716C8.575 11.7711 8.575 11.7706 8.575 11.7701C8.575 11.7697 8.575 11.7692 8.575 11.7687C8.575 11.7682 8.575 11.7677 8.575 11.7672C8.575 11.7667 8.575 11.7662 8.575 11.7657C8.575 11.7653 8.575 11.7648 8.575 11.7643C8.575 11.7638 8.575 11.7633 8.575 11.7628C8.575 11.7623 8.575 11.7618 8.575 11.7613C8.575 11.7609 8.575 11.7604 8.575 11.7599C8.575 11.7594 8.575 11.7589 8.575 11.7584C8.575 11.7579 8.575 11.7574 8.575 11.757C8.575 11.7565 8.575 11.756 8.575 11.7555C8.575 11.755 8.575 11.7545 8.575 11.754C8.575 11.7535 8.575 11.7531 8.575 11.7526C8.575 11.7521 8.575 11.7516 8.575 11.7511C8.575 11.7506 8.575 11.7501 8.575 11.7496C8.575 11.7492 8.575 11.7487 8.575 11.7482C8.575 11.7477 8.575 11.7472 8.575 11.7467C8.575 11.7462 8.575 11.7457 8.575 11.7453C8.575 11.7448 8.575 11.7443 8.575 11.7438C8.575 11.7433 8.575 11.7428 8.575 11.7423C8.575 11.7419 8.575 11.7414 8.575 11.7409C8.575 11.7404 8.575 11.7399 8.575 11.7394C8.575 11.7389 8.575 11.7385 8.575 11.738C8.575 11.7375 8.575 11.737 8.575 11.7365C8.575 11.736 8.575 11.7355 8.575 11.7351C8.575 11.7346 8.575 11.7341 8.575 11.7336C8.575 11.7331 8.575 11.7326 8.575 11.7321C8.575 11.7317 8.575 11.7312 8.575 11.7307C8.575 11.7302 8.575 11.7297 8.575 11.7292C8.575 11.7287 8.575 11.7283 8.575 11.7278C8.575 11.7273 8.575 11.7268 8.575 11.7263C8.575 11.7258 8.575 11.7254 8.575 11.7249C8.575 11.7244 8.575 11.7239 8.575 11.7234C8.575 11.7229 8.575 11.7225 8.575 11.722C8.575 11.7215 8.575 11.721 8.575 11.7205C8.575 11.72 8.575 11.7195 8.575 11.7191C8.575 11.7186 8.575 11.7181 8.575 11.7176C8.575 11.7171 8.575 11.7166 8.575 11.7162C8.575 11.7157 8.575 11.7152 8.575 11.7147C8.575 11.7142 8.575 11.7137 8.575 11.7133C8.575 11.7128 8.575 11.7123 8.575 11.7118C8.575 11.7113 8.575 11.7108 8.575 11.7104C8.575 11.7099 8.575 11.7094 8.575 11.7089C8.575 11.7084 8.575 11.708 8.575 11.7075C8.575 11.707 8.575 11.7065 8.575 11.706C8.575 11.7055 8.575 11.7051 8.575 11.7046C8.575 11.7041 8.575 11.7036 8.575 11.7031C8.575 11.7026 8.575 11.7022 8.575 11.7017C8.575 11.7012 8.575 11.7007 8.575 11.7002C8.575 11.6998 8.575 11.6993 8.575 11.6988C8.575 11.6983 8.575 11.6978 8.575 11.6973C8.575 11.6969 8.575 11.6964 8.575 11.6959C8.575 11.6954 8.575 11.6949 8.575 11.6945C8.575 11.694 8.575 11.6935 8.575 11.693C8.575 11.6925 8.575 11.6921 8.575 11.6916C8.575 11.6911 8.575 11.6906 8.575 11.6901C8.575 11.6897 8.575 11.6892 8.575 11.6887C8.575 11.6882 8.575 11.6877 8.575 11.6873C8.575 11.6868 8.575 11.6863 8.575 11.6858C8.575 11.6853 8.575 11.6849 8.575 11.6844C8.575 11.6839 8.575 11.6834 8.575 11.6829C8.575 11.6825 8.575 11.682 8.575 11.6815C8.575 11.681 8.575 11.6805 8.575 11.6801C8.575 11.6796 8.575 11.6791 8.575 11.6786C8.575 11.6781 8.575 11.6777 8.575 11.6772C8.575 11.6767 8.575 11.6762 8.575 11.6757C8.575 11.6753 8.575 11.6748 8.575 11.6743C8.575 11.6738 8.575 11.6733 8.575 11.6729C8.575 11.6724 8.575 11.6719 8.575 11.6714C8.575 11.671 8.575 11.6705 8.575 11.67C8.575 11.6695 8.575 11.669 8.575 11.6686C8.575 11.6681 8.575 11.6676 8.575 11.6671C8.575 11.6666 8.575 11.6662 8.575 11.6657C8.575 11.6652 8.575 11.6647 8.575 11.6643C8.575 11.6638 8.575 11.6633 8.575 11.6628C8.575 11.6623 8.575 11.6619 8.575 11.6614C8.575 11.6609 8.575 11.6604 8.575 11.66C8.575 11.6595 8.575 11.659 8.575 11.6585C8.575 11.6581 8.575 11.6576 8.575 11.6571C8.575 11.6566 8.575 11.6561 8.575 11.6557C8.575 11.6552 8.575 11.6547 8.575 11.6542C8.575 11.6538 8.575 11.6533 8.575 11.6528C8.575 11.6523 8.575 11.6519 8.575 11.6514C8.575 11.6509 8.575 11.6504 8.575 11.65C8.575 11.6495 8.575 11.649 8.575 11.6485C8.575 11.648 8.575 11.6476 8.575 11.6471C8.575 11.6466 8.575 11.6461 8.575 11.6457C8.575 11.6452 8.575 11.6447 8.575 11.6442C8.575 11.6438 8.575 11.6433 8.575 11.6428C8.575 11.6423 8.575 11.6419 8.575 11.6414C8.575 11.6409 8.575 11.6404 8.575 11.64C8.575 11.6395 8.575 11.639 8.575 11.6385C8.575 11.6381 8.575 11.6376 8.575 11.6371C8.575 11.6366 8.575 11.6362 8.575 11.6357C8.575 11.6352 8.575 11.6347 8.575 11.6343C8.575 11.6338 8.575 11.6333 8.575 11.6328C8.575 11.6324 8.575 11.6319 8.575 11.6314C8.575 11.6309 8.575 11.6305 8.575 11.63C8.575 11.6295 8.575 11.629 8.575 11.6286C8.575 11.6281 8.575 11.6276 8.575 11.6272C8.575 11.6267 8.575 11.6262 8.575 11.6257C8.575 11.6253 8.575 11.6248 8.575 11.6243C8.575 11.6238 8.575 11.6234 8.575 11.6229C8.575 11.6224 8.575 11.6219 8.575 11.6215C8.575 11.621 8.575 11.6205 8.575 11.6201C8.575 11.6196 8.575 11.6191 8.575 11.6186C8.575 11.6182 8.575 11.6177 8.575 11.6172C8.575 11.6167 8.575 11.6163 8.575 11.6158C8.575 11.6153 8.575 11.6149 8.575 11.6144C8.575 11.6139 8.575 11.6134 8.575 11.613C8.575 11.6125 8.575 11.612 8.575 11.6115C8.575 11.6111 8.575 11.6106 8.575 11.6101C8.575 11.6097 8.575 11.6092 8.575 11.6087H8H7.425C7.425 11.6092 7.425 11.6097 7.425 11.6101C7.425 11.6106 7.425 11.6111 7.425 11.6115C7.425 11.612 7.425 11.6125 7.425 11.613C7.425 11.6134 7.425 11.6139 7.425 11.6144C7.425 11.6149 7.425 11.6153 7.425 11.6158C7.425 11.6163 7.425 11.6167 7.425 11.6172C7.425 11.6177 7.425 11.6182 7.425 11.6186C7.425 11.6191 7.425 11.6196 7.425 11.6201C7.425 11.6205 7.425 11.621 7.425 11.6215C7.425 11.6219 7.425 11.6224 7.425 11.6229C7.425 11.6234 7.425 11.6238 7.425 11.6243C7.425 11.6248 7.425 11.6253 7.425 11.6257C7.425 11.6262 7.425 11.6267 7.425 11.6272C7.425 11.6276 7.425 11.6281 7.425 11.6286C7.425 11.629 7.425 11.6295 7.425 11.63C7.425 11.6305 7.425 11.6309 7.425 11.6314C7.425 11.6319 7.425 11.6324 7.425 11.6328C7.425 11.6333 7.425 11.6338 7.425 11.6343C7.425 11.6347 7.425 11.6352 7.425 11.6357C7.425 11.6362 7.425 11.6366 7.425 11.6371C7.425 11.6376 7.425 11.6381 7.425 11.6385C7.425 11.639 7.425 11.6395 7.425 11.64C7.425 11.6404 7.425 11.6409 7.425 11.6414C7.425 11.6419 7.425 11.6423 7.425 11.6428C7.425 11.6433 7.425 11.6438 7.425 11.6442C7.425 11.6447 7.425 11.6452 7.425 11.6457C7.425 11.6461 7.425 11.6466 7.425 11.6471C7.425 11.6476 7.425 11.648 7.425 11.6485C7.425 11.649 7.425 11.6495 7.425 11.65C7.425 11.6504 7.425 11.6509 7.425 11.6514C7.425 11.6519 7.425 11.6523 7.425 11.6528C7.425 11.6533 7.425 11.6538 7.425 11.6542C7.425 11.6547 7.425 11.6552 7.425 11.6557C7.425 11.6561 7.425 11.6566 7.425 11.6571C7.425 11.6576 7.425 11.6581 7.425 11.6585C7.425 11.659 7.425 11.6595 7.425 11.66C7.425 11.6604 7.425 11.6609 7.425 11.6614C7.425 11.6619 7.425 11.6623 7.425 11.6628C7.425 11.6633 7.425 11.6638 7.425 11.6643C7.425 11.6647 7.425 11.6652 7.425 11.6657C7.425 11.6662 7.425 11.6666 7.425 11.6671C7.425 11.6676 7.425 11.6681 7.425 11.6686C7.425 11.669 7.425 11.6695 7.425 11.67C7.425 11.6705 7.425 11.671 7.425 11.6714C7.425 11.6719 7.425 11.6724 7.425 11.6729C7.425 11.6733 7.425 11.6738 7.425 11.6743C7.425 11.6748 7.425 11.6753 7.425 11.6757C7.425 11.6762 7.425 11.6767 7.425 11.6772C7.425 11.6777 7.425 11.6781 7.425 11.6786C7.425 11.6791 7.425 11.6796 7.425 11.6801C7.425 11.6805 7.425 11.681 7.425 11.6815C7.425 11.682 7.425 11.6825 7.425 11.6829C7.425 11.6834 7.425 11.6839 7.425 11.6844C7.425 11.6849 7.425 11.6853 7.425 11.6858C7.425 11.6863 7.425 11.6868 7.425 11.6873C7.425 11.6877 7.425 11.6882 7.425 11.6887C7.425 11.6892 7.425 11.6897 7.425 11.6901C7.425 11.6906 7.425 11.6911 7.425 11.6916C7.425 11.6921 7.425 11.6925 7.425 11.693C7.425 11.6935 7.425 11.694 7.425 11.6945C7.425 11.6949 7.425 11.6954 7.425 11.6959C7.425 11.6964 7.425 11.6969 7.425 11.6973C7.425 11.6978 7.425 11.6983 7.425 11.6988C7.425 11.6993 7.425 11.6998 7.425 11.7002C7.425 11.7007 7.425 11.7012 7.425 11.7017C7.425 11.7022 7.425 11.7026 7.425 11.7031C7.425 11.7036 7.425 11.7041 7.425 11.7046C7.425 11.7051 7.425 11.7055 7.425 11.706C7.425 11.7065 7.425 11.707 7.425 11.7075C7.425 11.708 7.425 11.7084 7.425 11.7089C7.425 11.7094 7.425 11.7099 7.425 11.7104C7.425 11.7108 7.425 11.7113 7.425 11.7118C7.425 11.7123 7.425 11.7128 7.425 11.7133C7.425 11.7137 7.425 11.7142 7.425 11.7147C7.425 11.7152 7.425 11.7157 7.425 11.7162C7.425 11.7166 7.425 11.7171 7.425 11.7176C7.425 11.7181 7.425 11.7186 7.425 11.7191C7.425 11.7195 7.425 11.72 7.425 11.7205C7.425 11.721 7.425 11.7215 7.425 11.722C7.425 11.7225 7.425 11.7229 7.425 11.7234C7.425 11.7239 7.425 11.7244 7.425 11.7249C7.425 11.7254 7.425 11.7258 7.425 11.7263C7.425 11.7268 7.425 11.7273 7.425 11.7278C7.425 11.7283 7.425 11.7287 7.425 11.7292C7.425 11.7297 7.425 11.7302 7.425 11.7307C7.425 11.7312 7.425 11.7317 7.425 11.7321C7.425 11.7326 7.425 11.7331 7.425 11.7336C7.425 11.7341 7.425 11.7346 7.425 11.7351C7.425 11.7355 7.425 11.736 7.425 11.7365C7.425 11.737 7.425 11.7375 7.425 11.738C7.425 11.7385 7.425 11.7389 7.425 11.7394C7.425 11.7399 7.425 11.7404 7.425 11.7409C7.425 11.7414 7.425 11.7419 7.425 11.7423C7.425 11.7428 7.425 11.7433 7.425 11.7438C7.425 11.7443 7.425 11.7448 7.425 11.7453C7.425 11.7457 7.425 11.7462 7.425 11.7467C7.425 11.7472 7.425 11.7477 7.425 11.7482C7.425 11.7487 7.425 11.7492 7.425 11.7496C7.425 11.7501 7.425 11.7506 7.425 11.7511C7.425 11.7516 7.425 11.7521 7.425 11.7526C7.425 11.7531 7.425 11.7535 7.425 11.754C7.425 11.7545 7.425 11.755 7.425 11.7555C7.425 11.756 7.425 11.7565 7.425 11.757C7.425 11.7574 7.425 11.7579 7.425 11.7584C7.425 11.7589 7.425 11.7594 7.425 11.7599C7.425 11.7604 7.425 11.7609 7.425 11.7613C7.425 11.7618 7.425 11.7623 7.425 11.7628C7.425 11.7633 7.425 11.7638 7.425 11.7643C7.425 11.7648 7.425 11.7653 7.425 11.7657C7.425 11.7662 7.425 11.7667 7.425 11.7672C7.425 11.7677 7.425 11.7682 7.425 11.7687C7.425 11.7692 7.425 11.7697 7.425 11.7701C7.425 11.7706 7.425 11.7711 7.425 11.7716C7.425 11.7721 7.425 11.7726 7.425 11.7731C7.425 11.7736 7.425 11.7741 7.425 11.7746C7.425 11.775 7.425 11.7755 7.425 11.776C7.425 11.7765 7.425 11.777 7.425 11.7775C7.425 11.778 7.425 11.7785 7.425 11.779C7.425 11.7794 7.425 11.7799 7.425 11.7804C7.425 11.7809 7.425 11.7814 7.425 11.7819C7.425 11.7824 7.425 11.7829 7.425 11.7834C7.425 11.7839 7.425 11.7844 7.425 11.7848C7.425 11.7853 7.425 11.7858 7.425 11.7863C7.425 11.7868 7.425 11.7873 7.425 11.7878C7.425 11.7883 7.425 11.7888 7.425 11.7893C7.425 11.7898 7.425 11.7902 7.425 11.7907C7.425 11.7912 7.425 11.7917 7.425 11.7922C7.425 11.7927 7.425 11.7932 7.425 11.7937C7.425 11.7942 7.425 11.7947 7.425 11.7952C7.425 11.7957 7.425 11.7961 7.425 11.7966C7.425 11.7971 7.425 11.7976 7.425 11.7981C7.425 11.7986 7.425 11.7991 7.425 11.7996C7.425 11.8001 7.425 11.8006 7.425 11.8011C7.425 11.8016 7.425 11.8021 7.425 11.8026C7.425 11.803 7.425 11.8035 7.425 11.804C7.425 11.8045 7.425 11.805 7.425 11.8055C7.425 11.806 7.425 11.8065 7.425 11.807C7.425 11.8075 7.425 11.808 7.425 11.8085C7.425 11.809 7.425 11.8095 7.425 11.8099C7.425 11.8104 7.425 11.8109 7.425 11.8114C7.425 11.8119 7.425 11.8124 7.425 11.8129C7.425 11.8134 7.425 11.8139 7.425 11.8144C7.425 11.8149 7.425 11.8154 7.425 11.8159C7.425 11.8164 7.425 11.8169 7.425 11.8174C7.425 11.8179 7.425 11.8183 7.425 11.8188C7.425 11.8193 7.425 11.8198 7.425 11.8203C7.425 11.8208 7.425 11.8213 7.425 11.8218C7.425 11.8223 7.425 11.8228 7.425 11.8233C7.425 11.8238 7.425 11.8243 7.425 11.8248C7.425 11.8253 7.425 11.8258 7.425 11.8263C7.425 11.8268 7.425 11.8273 7.425 11.8277C7.425 11.8282 7.425 11.8287 7.425 11.8292C7.425 11.8297 7.425 11.8302 7.425 11.8307C7.425 11.8312 7.425 11.8317 7.425 11.8322C7.425 11.8327 7.425 11.8332 7.425 11.8337C7.425 11.8342 7.425 11.8347 7.425 11.8352C7.425 11.8357 7.425 11.8362 7.425 11.8367C7.425 11.8372 7.425 11.8377 7.425 11.8382C7.425 11.8387 7.425 11.8392 7.425 11.8397C7.425 11.8402 7.425 11.8406 7.425 11.8411C7.425 11.8416 7.425 11.8421 7.425 11.8426C7.425 11.8431 7.425 11.8436 7.425 11.8441C7.425 11.8446 7.425 11.8451 7.425 11.8456C7.425 11.8461 7.425 11.8466 7.425 11.8471C7.425 11.8476 7.425 11.8481 7.425 11.8486C7.425 11.8491 7.425 11.8496 7.425 11.8501C7.425 11.8506 7.425 11.8511 7.425 11.8516C7.425 11.8521 7.425 11.8526 7.425 11.8531C7.425 11.8536 7.425 11.8541 7.425 11.8546C7.425 11.8551 7.425 11.8556 7.425 11.8561C7.425 11.8566 7.425 11.8571 7.425 11.8576C7.425 11.8581 7.425 11.8586 7.425 11.8591C7.425 11.8596 7.425 11.8601 7.425 11.8606C7.425 11.8611 7.425 11.8616 7.425 11.8621C7.425 11.8626 7.425 11.8631 7.425 11.8636C7.425 11.8641 7.425 11.8646 7.425 11.8651C7.425 11.8656 7.425 11.8661 7.425 11.8666C7.425 11.8671 7.425 11.8676 7.425 11.8681C7.425 11.8686 7.425 11.8691 7.425 11.8696C7.425 11.8701 7.425 11.8706 7.425 11.8711C7.425 11.8716 7.425 11.8721 7.425 11.8726C7.425 11.8731 7.425 11.8736 7.425 11.8741C7.425 11.8746 7.425 11.8751 7.425 11.8756C7.425 11.8761 7.425 11.8766 7.425 11.8771C7.425 11.8776 7.425 11.8781 7.425 11.8786C7.425 11.8791 7.425 11.8796 7.425 11.8801C7.425 11.8806 7.425 11.8811 7.425 11.8816C7.425 11.8821 7.425 11.8826 7.425 11.8831C7.425 11.8836 7.425 11.8841 7.425 11.8846C7.425 11.8851 7.425 11.8856 7.425 11.8861C7.425 11.8866 7.425 11.8871 7.425 11.8876C7.425 11.8881 7.425 11.8886 7.425 11.8891C7.425 11.8896 7.425 11.8901 7.425 11.8906C7.425 11.8911 7.425 11.8916 7.425 11.8921C7.425 11.8926 7.425 11.8931 7.425 11.8936C7.425 11.8941 7.425 11.8946 7.425 11.8951C7.425 11.8956 7.425 11.8961 7.425 11.8966C7.425 11.8971 7.425 11.8976 7.425 11.8981C7.425 11.8986 7.425 11.8991 7.425 11.8996C7.425 11.9001 7.425 11.9007 7.425 11.9012C7.425 11.9017 7.425 11.9022 7.425 11.9027C7.425 11.9032 7.425 11.9037 7.425 11.9042C7.425 11.9047 7.425 11.9052 7.425 11.9057C7.425 11.9062 7.425 11.9067 7.425 11.9072C7.425 11.9077 7.425 11.9082 7.425 11.9087C7.425 11.9092 7.425 11.9097 7.425 11.9102C7.425 11.9107 7.425 11.9112 7.425 11.9117C7.425 11.9122 7.425 11.9127 7.425 11.9133C7.425 11.9138 7.425 11.9143 7.425 11.9148C7.425 11.9153 7.425 11.9158 7.425 11.9163C7.425 11.9168 7.425 11.9173 7.425 11.9178C7.425 11.9183 7.425 11.9188 7.425 11.9193C7.425 11.9198 7.425 11.9203 7.425 11.9208C7.425 11.9213 7.425 11.9218 7.425 11.9223C7.425 11.9228 7.425 11.9234 7.425 11.9239C7.425 11.9244 7.425 11.9249 7.425 11.9254C7.425 11.9259 7.425 11.9264 7.425 11.9269C7.425 11.9274 7.425 11.9279 7.425 11.9284C7.425 11.9289 7.425 11.9294 7.425 11.9299C7.425 11.9304 7.425 11.9309 7.425 11.9314C7.425 11.932 7.425 11.9325 7.425 11.933C7.425 11.9335 7.425 11.934 7.425 11.9345C7.425 11.935 7.425 11.9355 7.425 11.936C7.425 11.9365 7.425 11.937 7.425 11.9375C7.425 11.938 7.425 11.9385 7.425 11.9391C7.425 11.9396 7.425 11.9401 7.425 11.9406C7.425 11.9411 7.425 11.9416 7.425 11.9421C7.425 11.9426 7.425 11.9431 7.425 11.9436C7.425 11.9441 7.425 11.9446 7.425 11.9451C7.425 11.9457 7.425 11.9462 7.425 11.9467C7.425 11.9472 7.425 11.9477 7.425 11.9482C7.425 11.9487 7.425 11.9492 7.425 11.9497C7.425 11.9502 7.425 11.9507 7.425 11.9512C7.425 11.9518 7.425 11.9523 7.425 11.9528C7.425 11.9533 7.425 11.9538 7.425 11.9543C7.425 11.9548 7.425 11.9553 7.425 11.9558C7.425 11.9563 7.425 11.9568 7.425 11.9574C7.425 11.9579 7.425 11.9584 7.425 11.9589C7.425 11.9594 7.425 11.9599 7.425 11.9604C7.425 11.9609 7.425 11.9614 7.425 11.9619C7.425 11.9624 7.425 11.963 7.425 11.9635C7.425 11.964 7.425 11.9645 7.425 11.965C7.425 11.9655 7.425 11.966 7.425 11.9665C7.425 11.967 7.425 11.9675 7.425 11.9681C7.425 11.9686 7.425 11.9691 7.425 11.9696C7.425 11.9701 7.425 11.9706 7.425 11.9711C7.425 11.9716 7.425 11.9721 7.425 11.9727C7.425 11.9732 7.425 11.9737 7.425 11.9742C7.425 11.9747 7.425 11.9752 7.425 11.9757C7.425 11.9762 7.425 11.9767 7.425 11.9773C7.425 11.9778 7.425 11.9783 7.425 11.9788C7.425 11.9793 7.425 11.9798 7.425 11.9803C7.425 11.9808 7.425 11.9813 7.425 11.9819C7.425 11.9824 7.425 11.9829 7.425 11.9834C7.425 11.9839 7.425 11.9844 7.425 11.9849C7.425 11.9854 7.425 11.986 7.425 11.9865C7.425 11.987 7.425 11.9875 7.425 11.988C7.425 11.9885 7.425 11.989 7.425 11.9895C7.425 11.9901 7.425 11.9906 7.425 11.9911C7.425 11.9916 7.425 11.9921 7.425 11.9926C7.425 11.9931 7.425 11.9936 7.425 11.9942C7.425 11.9947 7.425 11.9952 7.425 11.9957C7.425 11.9962 7.425 11.9967 7.425 11.9972C7.425 11.9978 7.425 11.9983 7.425 11.9988C7.425 11.9993 7.425 11.9998 7.425 12.0003C7.425 12.0008 7.425 12.0013 7.425 12.0019C7.425 12.0024 7.425 12.0029 7.425 12.0034C7.425 12.0039 7.425 12.0044 7.425 12.0049C7.425 12.0055 7.425 12.006 7.425 12.0065C7.425 12.007 7.425 12.0075 7.425 12.008C7.425 12.0085 7.425 12.0091 7.425 12.0096C7.425 12.0101 7.425 12.0106 7.425 12.0111C7.425 12.0116 7.425 12.0121 7.425 12.0127C7.425 12.0132 7.425 12.0137 7.425 12.0142C7.425 12.0147 7.425 12.0152 7.425 12.0158C7.425 12.0163 7.425 12.0168 7.425 12.0173C7.425 12.0178 7.425 12.0183 7.425 12.0188C7.425 12.0194 7.425 12.0199 7.425 12.0204C7.425 12.0209 7.425 12.0214 7.425 12.0219C7.425 12.0225 7.425 12.023 7.425 12.0235C7.425 12.024 7.425 12.0245 7.425 12.025C7.425 12.0256 7.425 12.0261 7.425 12.0266C7.425 12.0271 7.425 12.0276 7.425 12.0281C7.425 12.0287 7.425 12.0292 7.425 12.0297C7.425 12.0302 7.425 12.0307 7.425 12.0312C7.425 12.0318 7.425 12.0323 7.425 12.0328C7.425 12.0333 7.425 12.0338 7.425 12.0343C7.425 12.0349 7.425 12.0354 7.425 12.0359C7.425 12.0364 7.425 12.0369 7.425 12.0375C7.425 12.038 7.425 12.0385 7.425 12.039C7.425 12.0395 7.425 12.04 7.425 12.0406C7.425 12.0411 7.425 12.0416 7.425 12.0421C7.425 12.0426 7.425 12.0431 7.425 12.0437C7.425 12.0442 7.425 12.0447 7.425 12.0452C7.425 12.0457 7.425 12.0463 7.425 12.0468C7.425 12.0473 7.425 12.0478 7.425 12.0483C7.425 12.0489 7.425 12.0494 7.425 12.0499C7.425 12.0504 7.425 12.0509 7.425 12.0514C7.425 12.052 7.425 12.0525 7.425 12.053C7.425 12.0535 7.425 12.054 7.425 12.0546C7.425 12.0551 7.425 12.0556 7.425 12.0561C7.425 12.0566 7.425 12.0572 7.425 12.0577C7.425 12.0582 7.425 12.0587 7.425 12.0592C7.425 12.0598 7.425 12.0603 7.425 12.0608C7.425 12.0613 7.425 12.0618 7.425 12.0624C7.425 12.0629 7.425 12.0634 7.425 12.0639C7.425 12.0644 7.425 12.065 7.425 12.0655C7.425 12.066 7.425 12.0665 7.425 12.067C7.425 12.0676 7.425 12.0681 7.425 12.0686C7.425 12.0691 7.425 12.0697 7.425 12.0702C7.425 12.0707 7.425 12.0712 7.425 12.0717C7.425 12.0723 7.425 12.0728 7.425 12.0733C7.425 12.0738 7.425 12.0743 7.425 12.0749C7.425 12.0754 7.425 12.0759 7.425 12.0764C7.425 12.077 7.425 12.0775 7.425 12.078C7.425 12.0785 7.425 12.079 7.425 12.0796C7.425 12.0801 7.425 12.0806 7.425 12.0811C7.425 12.0817 7.425 12.0822 7.425 12.0827C7.425 12.0832 7.425 12.0837 7.425 12.0843C7.425 12.0848 7.425 12.0853 7.425 12.0858C7.425 12.0864 7.425 12.0869 7.425 12.0874C7.425 12.0879 7.425 12.0884 7.425 12.089C7.425 12.0895 7.425 12.09 7.425 12.0905C7.425 12.0911 7.425 12.0916 7.425 12.0921C7.425 12.0926 7.425 12.0932 7.425 12.0937C7.425 12.0942 7.425 12.0947 7.425 12.0952C7.425 12.0958 7.425 12.0963 7.425 12.0968C7.425 12.0973 7.425 12.0979 7.425 12.0984C7.425 12.0989 7.425 12.0994 7.425 12.1C7.425 12.1005 7.425 12.101 7.425 12.1015C7.425 12.1021 7.425 12.1026 7.425 12.1031C7.425 12.1036 7.425 12.1042 7.425 12.1047C7.425 12.1052 7.425 12.1057 7.425 12.1063C7.425 12.1068 7.425 12.1073 7.425 12.1078C7.425 12.1084 7.425 12.1089 7.425 12.1094C7.425 12.1099 7.425 12.1105 7.425 12.111C7.425 12.1115 7.425 12.112 7.425 12.1126C7.425 12.1131 7.425 12.1136 7.425 12.1141C7.425 12.1147 7.425 12.1152 7.425 12.1157C7.425 12.1162 7.425 12.1168 7.425 12.1173C7.425 12.1178 7.425 12.1183 7.425 12.1189C7.425 12.1194 7.425 12.1199 7.425 12.1205C7.425 12.121 7.425 12.1215 7.425 12.122C7.425 12.1226 7.425 12.1231 7.425 12.1236C7.425 12.1241 7.425 12.1247 7.425 12.1252C7.425 12.1257 7.425 12.1262 7.425 12.1268C7.425 12.1273 7.425 12.1278 7.425 12.1284C7.425 12.1289 7.425 12.1294 7.425 12.1299C7.425 12.1305 7.425 12.131 7.425 12.1315C7.425 12.132 7.425 12.1326 7.425 12.1331C7.425 12.1336 7.425 12.1342 7.425 12.1347C7.425 12.1352 7.425 12.1357 7.425 12.1363C7.425 12.1368 7.425 12.1373 7.425 12.1379C7.425 12.1384 7.425 12.1389 7.425 12.1394C7.425 12.14 7.425 12.1405 7.425 12.141C7.425 12.1415 7.425 12.1421 7.425 12.1426C7.425 12.1431 7.425 12.1437 7.425 12.1442C7.425 12.1447 7.425 12.1452 7.425 12.1458C7.425 12.1463 7.425 12.1468 7.425 12.1474C7.425 12.1479 7.425 12.1484 7.425 12.149C7.425 12.1495 7.425 12.15 7.425 12.1505C7.425 12.1511 7.425 12.1516 7.425 12.1521C7.425 12.1527 7.425 12.1532 7.425 12.1537C7.425 12.1542 7.425 12.1548 7.425 12.1553C7.425 12.1558 7.425 12.1564 7.425 12.1569C7.425 12.1574 7.425 12.158 7.425 12.1585C7.425 12.159 7.425 12.1596 7.425 12.1601C7.425 12.1606 7.425 12.1611 7.425 12.1617C7.425 12.1622 7.425 12.1627 7.425 12.1633C7.425 12.1638 7.425 12.1643 7.425 12.1649C7.425 12.1654 7.425 12.1659 7.425 12.1665C7.425 12.167 7.425 12.1675 7.425 12.168C7.425 12.1686 7.425 12.1691 7.425 12.1696C7.425 12.1702 7.425 12.1707 7.425 12.1712C7.425 12.1718 7.425 12.1723 7.425 12.1728C7.425 12.1734 7.425 12.1739 7.425 12.1744C7.425 12.175 7.425 12.1755 7.425 12.176C7.425 12.1766 7.425 12.1771 7.425 12.1776C7.425 12.1781 7.425 12.1787 7.425 12.1792C7.425 12.1797 7.425 12.1803 7.425 12.1808C7.425 12.1813 7.425 12.1819 7.425 12.1824C7.425 12.1829 7.425 12.1835 7.425 12.184C7.425 12.1845 7.425 12.1851 7.425 12.1856C7.425 12.1861 7.425 12.1867 7.425 12.1872C7.425 12.1877 7.425 12.1883 7.425 12.1888C7.425 12.1893 7.425 12.1899 7.425 12.1904C7.425 12.1909 7.425 12.1915 7.425 12.192C7.425 12.1925 7.425 12.1931 7.425 12.1936C7.425 12.1941 7.425 12.1947 7.425 12.1952C7.425 12.1957 7.425 12.1963 7.425 12.1968C7.425 12.1973 7.425 12.1979 7.425 12.1984C7.425 12.199 7.425 12.1995 7.425 12.2C7.425 12.2006 7.425 12.2011 7.425 12.2016C7.425 12.2022 7.425 12.2027 7.425 12.2032C7.425 12.2038 7.425 12.2043 7.425 12.2048C7.425 12.2054 7.425 12.2059 7.425 12.2064C7.425 12.207 7.425 12.2075 7.425 12.208C7.425 12.2086 7.425 12.2091 7.425 12.2097C7.425 12.2102 7.425 12.2107 7.425 12.2113C7.425 12.2118 7.425 12.2123 7.425 12.2129C7.425 12.2134 7.425 12.2139 7.425 12.2145C7.425 12.215 7.425 12.2155 7.425 12.2161C7.425 12.2166 7.425 12.2172 7.425 12.2177C7.425 12.2182 7.425 12.2188 7.425 12.2193C7.425 12.2198 7.425 12.2204 7.425 12.2209C7.425 12.2214 7.425 12.222 7.425 12.2225C7.425 12.2231 7.425 12.2236 7.425 12.2241C7.425 12.2247 7.425 12.2252 7.425 12.2257C7.425 12.2263 7.425 12.2268 7.425 12.2274C7.425 12.2279 7.425 12.2284 7.425 12.229C7.425 12.2295 7.425 12.23 7.425 12.2306C7.425 12.2311 7.425 12.2317 7.425 12.2322C7.425 12.2327 7.425 12.2333 7.425 12.2338C7.425 12.2343 7.425 12.2349 7.425 12.2354C7.425 12.236 7.425 12.2365 7.425 12.237C7.425 12.2376 7.425 12.2381 7.425 12.2387C7.425 12.2392 7.425 12.2397 7.425 12.2403C7.425 12.2408 7.425 12.2413 7.425 12.2419C7.425 12.2424 7.425 12.243 7.425 12.2435C7.425 12.244 7.425 12.2446 7.425 12.2451C7.425 12.2457 7.425 12.2462 7.425 12.2467C7.425 12.2473 7.425 12.2478 7.425 12.2484C7.425 12.2489 7.425 12.2494 7.425 12.25C7.425 12.2505 7.425 12.2511 7.425 12.2516C7.425 12.2521 7.425 12.2527 7.425 12.2532C7.425 12.2538 7.425 12.2543 7.425 12.2548C7.425 12.2554 7.425 12.2559 7.425 12.2565C7.425 12.257 7.425 12.2575 7.425 12.2581C7.425 12.2586 7.425 12.2592 7.425 12.2597C7.425 12.2602 7.425 12.2608 7.425 12.2613C7.425 12.2619 7.425 12.2624 7.425 12.2629C7.425 12.2635 7.425 12.264 7.425 12.2646C7.425 12.2651 7.425 12.2657 7.425 12.2662C7.425 12.2667 7.425 12.2673 7.425 12.2678C7.425 12.2684 7.425 12.2689 7.425 12.2694C7.425 12.27 7.425 12.2705 7.425 12.2711C7.425 12.2716 7.425 12.2722 7.425 12.2727C7.425 12.2732 7.425 12.2738 7.425 12.2743C7.425 12.2749 7.425 12.2754 7.425 12.2759C7.425 12.2765 7.425 12.277 7.425 12.2776C7.425 12.2781 7.425 12.2787 7.425 12.2792C7.425 12.2797 7.425 12.2803 7.425 12.2808C7.425 12.2814 7.425 12.2819 7.425 12.2825C7.425 12.283 7.425 12.2835 7.425 12.2841C7.425 12.2846 7.425 12.2852 7.425 12.2857C7.425 12.2863 7.425 12.2868 7.425 12.2874C7.425 12.2879 7.425 12.2884 7.425 12.289C7.425 12.2895 7.425 12.2901 7.425 12.2906C7.425 12.2912 7.425 12.2917 7.425 12.2922C7.425 12.2928 7.425 12.2933 7.425 12.2939C7.425 12.2944 7.425 12.295 7.425 12.2955C7.425 12.2961 7.425 12.2966 7.425 12.2971C7.425 12.2977 7.425 12.2982 7.425 12.2988C7.425 12.2993 7.425 12.2999 7.425 12.3004C7.425 12.301 7.425 12.3015 7.425 12.302C7.425 12.3026 7.425 12.3031 7.425 12.3037C7.425 12.3042 7.425 12.3048 7.425 12.3053C7.425 12.3059 7.425 12.3064 7.425 12.307C7.425 12.3075 7.425 12.308 7.425 12.3086C7.425 12.3091 7.425 12.3097 7.425 12.3102C7.425 12.3108 7.425 12.3113 7.425 12.3119C7.425 12.3124 7.425 12.313 7.425 12.3135C7.425 12.3141 7.425 12.3146 7.425 12.3151C7.425 12.3157 7.425 12.3162 7.425 12.3168C7.425 12.3173 7.425 12.3179 7.425 12.3184C7.425 12.319 7.425 12.3195 7.425 12.3201C7.425 12.3206 7.425 12.3212 7.425 12.3217C7.425 12.3223 7.425 12.3228 7.425 12.3233C7.425 12.3239 7.425 12.3244 7.425 12.325C7.425 12.3255 7.425 12.3261 7.425 12.3266C7.425 12.3272 7.425 12.3277 7.425 12.3283C7.425 12.3288 7.425 12.3294 7.425 12.3299C7.425 12.3305 7.425 12.331 7.425 12.3316C7.425 12.3321 7.425 12.3327 7.425 12.3332C7.425 12.3338 7.425 12.3343 7.425 12.3349C7.425 12.3354 7.425 12.3359 7.425 12.3365C7.425 12.337 7.425 12.3376 7.425 12.3381C7.425 12.3387 7.425 12.3392 7.425 12.3398C7.425 12.3403 7.425 12.3409 7.425 12.3414C7.425 12.342 7.425 12.3425 7.425 12.3431C7.425 12.3436 7.425 12.3442 7.425 12.3447C7.425 12.3453 7.425 12.3458 7.425 12.3464C7.425 12.3469 7.425 12.3475 7.425 12.348C7.425 12.3486 7.425 12.3491 7.425 12.3497C7.425 12.3502 7.425 12.3508 7.425 12.3513C7.425 12.3519 7.425 12.3524 7.425 12.353C7.425 12.3535 7.425 12.3541 7.425 12.3546C7.425 12.3552 7.425 12.3557 7.425 12.3563C7.425 12.3568 7.425 12.3574 7.425 12.3579C7.425 12.3585 7.425 12.359 7.425 12.3596C7.425 12.3601 7.425 12.3607 7.425 12.3612C7.425 12.3618 7.425 12.3623 7.425 12.3629C7.425 12.3634 7.425 12.364 7.425 12.3645C7.425 12.3651 7.425 12.3657 7.425 12.3662C7.425 12.3668 7.425 12.3673 7.425 12.3679C7.425 12.3684 7.425 12.369 7.425 12.3695C7.425 12.3701 7.425 12.3706 7.425 12.3712C7.425 12.3717 7.425 12.3723 7.425 12.3728C7.425 12.3734 7.425 12.3739 7.425 12.3745C7.425 12.375 7.425 12.3756 7.425 12.3761C7.425 12.3767 7.425 12.3772 7.425 12.3778C7.425 12.3784 7.425 12.3789 7.425 12.3795C7.425 12.38 7.425 12.3806 7.425 12.3811C7.425 12.3817 7.425 12.3822 7.425 12.3828C7.425 12.3833 7.425 12.3839 7.425 12.3844C7.425 12.385 7.425 12.3855 7.425 12.3861C7.425 12.3866 7.425 12.3872 7.425 12.3878C7.425 12.3883 7.425 12.3889 7.425 12.3894C7.425 12.39 7.425 12.3905 7.425 12.3911C7.425 12.3916 7.425 12.3922 7.425 12.3927C7.425 12.3933 7.425 12.3939 7.425 12.3944C7.425 12.395 7.425 12.3955 7.425 12.3961H8ZM10.34 7.90079L10.5466 8.43737L10.8012 8.33934L10.5945 7.80275L10.3879 7.26616L10.1333 7.3642L10.34 7.90079ZM13.4055 7.80275L13.1988 8.33934L13.4534 8.43738L13.66 7.90079L13.8667 7.3642L13.6121 7.26616L13.4055 7.80275ZM12.934 17.164L12.6804 16.648C12.5108 16.7313 12.4367 16.7659 12.3575 16.7888C12.2882 16.8087 12.1921 16.8254 12 16.8254V17.4004V17.9754C12.261 17.9754 12.4714 17.9527 12.6757 17.8938C12.8701 17.8379 13.0365 17.7543 13.1876 17.6801L12.934 17.164ZM11.066 17.164L10.8124 17.6801C10.9635 17.7543 11.1299 17.8379 11.3242 17.8938C11.5286 17.9527 11.739 17.9754 12 17.9754V17.4004V16.8254C11.8079 16.8254 11.7118 16.8087 11.6425 16.7888C11.5633 16.7659 11.4892 16.7313 11.3196 16.648L11.066 17.164ZM16 11.6087H16.575C16.575 10.8158 16.5752 10.1993 16.5534 9.74866C16.5424 9.52292 16.5253 9.3212 16.496 9.14988C16.4684 8.98892 16.4217 8.80013 16.3201 8.63724L15.8322 8.9416L15.3444 9.24595C15.3266 9.21753 15.3429 9.22951 15.3625 9.34404C15.3803 9.44821 15.3947 9.59669 15.4047 9.80426C15.4248 10.2202 15.425 10.8028 15.425 11.6087H16ZM13.66 7.90079L13.4534 8.43738C14.1291 8.6976 14.6102 8.88313 14.9453 9.03628C15.1121 9.1125 15.2233 9.17214 15.2954 9.21924C15.3733 9.27012 15.3667 9.28172 15.3444 9.24595L15.8322 8.9416L16.3201 8.63724C16.2139 8.46701 16.0608 8.34559 15.9244 8.25651C15.7823 8.16365 15.6116 8.07638 15.4233 7.99034C15.0483 7.81896 14.5272 7.61856 13.8667 7.3642L13.66 7.90079ZM10.5945 7.80275L10.8012 8.33934C11.5389 8.05524 11.7712 7.97539 12 7.97539V7.40039V6.82539C11.5075 6.82539 11.0433 7.01378 10.3879 7.26616L10.5945 7.80275ZM13.4055 7.80275L13.6121 7.26616C12.9567 7.01378 12.4925 6.82539 12 6.82539V7.40039V7.97539C12.2288 7.97539 12.4611 8.05524 13.1988 8.33934L13.4055 7.80275ZM8 11.6087H8.575C8.575 10.8028 8.57517 10.2202 8.5953 9.80426C8.60535 9.59669 8.61969 9.44821 8.63753 9.34404C8.65715 9.22951 8.67336 9.21753 8.65563 9.24595L8.16778 8.9416L7.67994 8.63724C7.57832 8.80013 7.53161 8.98892 7.50404 9.14988C7.47469 9.3212 7.45757 9.52292 7.44665 9.74866C7.42483 10.1993 7.425 10.8158 7.425 11.6087H8ZM10.34 7.90079L10.1333 7.3642C9.47281 7.61856 8.95166 7.81896 8.57668 7.99034C8.38841 8.07638 8.21769 8.16365 8.07556 8.25651C7.93921 8.34559 7.78615 8.46701 7.67994 8.63724L8.16778 8.9416L8.65563 9.24595C8.63332 9.28172 8.62669 9.27012 8.70456 9.21924C8.77665 9.17214 8.88794 9.1125 9.05471 9.03628C9.3898 8.88313 9.87085 8.6976 10.5466 8.43737L10.34 7.90079ZM10.8008 12.5L10.3942 12.9066L11.3942 13.9066L11.8008 13.5L12.2074 13.0934L11.2074 12.0934L10.8008 12.5ZM11.8008 13.5L12.2608 13.845L13.7608 11.845L13.3008 11.5L12.8408 11.155L11.3408 13.155L11.8008 13.5Z" fill="#130E14"/>
</svg>
