<svg width="24" height="24" viewBox="0 0 24 24" fill="none" xmlns="http://www.w3.org/2000/svg">
<path d="M6 15.5C6 14.9477 6.44772 14.5 7 14.5H17C17.5523 14.5 18 14.9477 18 15.5C18 16.6046 17.1046 17.5 16 17.5H8C6.89543 17.5 6 16.6046 6 15.5Z" stroke="#130E14" stroke-width="1.15"/>
<path d="M6.6281 6.76581C6.86947 4.75442 6.99015 3.74872 7.57184 3.06161C7.75644 2.84355 7.97125 2.65298 8.20975 2.49567C8.96126 2 9.97418 2 12 2C14.0258 2 15.0387 2 15.7902 2.49567C16.0288 2.65298 16.2436 2.84355 16.4282 3.06161C17.0098 3.74872 17.1305 4.75442 17.3719 6.76581L17.4628 7.52342C17.7133 9.61087 17.8386 10.6546 17.2417 11.3273C16.6449 12 15.5937 12 13.4913 12H10.5087C8.40628 12 7.35506 12 6.75826 11.3273C6.16145 10.6546 6.2867 9.61087 6.53719 7.52342L6.6281 6.76581Z" stroke="#130E14" stroke-width="1.15"/>
</svg>
