<svg width="24" height="24" viewBox="0 0 24 24" fill="none" xmlns="http://www.w3.org/2000/svg">
<path d="M11.425 22C11.425 22.3176 11.6824 22.575 12 22.575C12.3176 22.575 12.575 22.3176 12.575 22H11.425ZM12.575 17.5C12.575 17.1824 12.3176 16.925 12 16.925C11.6824 16.925 11.425 17.1824 11.425 17.5H12.575ZM5.13484 13.4045L4.58935 13.5864L5.13484 13.4045ZM5.45451 16.1818C5.55493 16.4831 5.88056 16.6459 6.18183 16.5455C6.4831 16.4451 6.64592 16.1194 6.54549 15.8182L5.45451 16.1818ZM2 10.925C1.68244 10.925 1.425 11.1824 1.425 11.5C1.425 11.8176 1.68244 12.075 2 12.075V10.925ZM4.79579 12.6256L4.30451 12.9244V12.9244L4.79579 12.6256ZM12.4661 20.1165L12.3266 20.6743H12.3266L12.4661 20.1165ZM11.5339 20.1165L11.6734 20.6743H11.6734L11.5339 20.1165ZM8.95451 21.8182C8.85408 22.1194 9.0169 22.4451 9.31817 22.5455C9.61944 22.6459 9.94507 22.4831 10.0455 22.1818L8.95451 21.8182ZM13.9545 22.1818C14.0549 22.4831 14.3806 22.6459 14.6818 22.5455C14.9831 22.4451 15.1459 22.1194 15.0455 21.8182L13.9545 22.1818ZM18.8652 13.4045L18.3197 13.2227V13.2227L18.8652 13.4045ZM17.4545 15.8182C17.3541 16.1194 17.5169 16.4451 17.8182 16.5455C18.1194 16.6459 18.4451 16.4831 18.5455 16.1818L17.4545 15.8182ZM22 12.075C22.3176 12.075 22.575 11.8176 22.575 11.5C22.575 11.1824 22.3176 10.925 22 10.925V12.075ZM19.2042 12.6256L19.6955 12.9244L19.6955 12.9244L19.2042 12.6256ZM12 12H11.425V14H12H12.575V12H12ZM12 22H12.575V20H12H11.425V22H12ZM12 20H12.575V17.5H12H11.425V20H12ZM5.13484 13.4045L4.58935 13.5864L5.45451 16.1818L6 16L6.54549 15.8182L5.68033 13.2227L5.13484 13.4045ZM2 11.5V12.075C2.83645 12.075 3.32719 12.1676 3.6444 12.3075C3.93475 12.4356 4.11982 12.6207 4.30451 12.9244L4.79579 12.6256L5.28707 12.3268C5.01539 11.8801 4.66881 11.5024 4.10849 11.2553C3.57503 11.02 2.89606 10.925 2 10.925V11.5ZM12.4661 20.1165L12.6055 19.5587L12.1395 19.4422L12 20L11.8605 20.5578L12.3266 20.6743L12.4661 20.1165ZM12 20L11.8605 19.4422L11.3945 19.5587L11.5339 20.1165L11.6734 20.6743L12.1395 20.5578L12 20ZM11.5339 20.1165L11.3945 19.5587C10.2484 19.8452 9.32809 20.6974 8.95451 21.8182L9.5 22L10.0455 22.1818C10.2947 21.4341 10.9087 20.8655 11.6734 20.6743L11.5339 20.1165ZM14.5 22L15.0455 21.8182C14.6719 20.6974 13.7516 19.8452 12.6055 19.5587L12.4661 20.1165L12.3266 20.6743C13.0913 20.8655 13.7053 21.4341 13.9545 22.1818L14.5 22ZM18.8652 13.4045L18.3197 13.2227L17.4545 15.8182L18 16L18.5455 16.1818L19.4107 13.5864L18.8652 13.4045ZM22 11.5V10.925C21.1039 10.925 20.425 11.02 19.8915 11.2553C19.3312 11.5024 18.9846 11.8801 18.7129 12.3268L19.2042 12.6256L19.6955 12.9244C19.8802 12.6207 20.0652 12.4356 20.3556 12.3075C20.6728 12.1676 21.1636 12.075 22 12.075V11.5ZM18.8652 13.4045L19.4107 13.5864C19.4848 13.364 19.512 13.2838 19.5674 13.1643L19.0458 12.9225L18.5241 12.6807C18.4376 12.8672 18.3918 13.0064 18.3197 13.2227L18.8652 13.4045ZM19.2042 12.6256L18.7129 12.3268C18.6468 12.4355 18.6065 12.5029 18.5241 12.6807L19.0458 12.9225L19.5674 13.1643C19.6269 13.036 19.6449 13.0075 19.6955 12.9244L19.2042 12.6256ZM5.13484 13.4045L5.68033 13.2227C5.60825 13.0064 5.56239 12.8672 5.47591 12.6807L4.95424 12.9225L4.43257 13.1643C4.48797 13.2838 4.51522 13.364 4.58935 13.5864L5.13484 13.4045ZM4.79579 12.6256L4.30451 12.9244C4.35508 13.0075 4.37308 13.036 4.43257 13.1643L4.95424 12.9225L5.47591 12.6807C5.39352 12.5029 5.35318 12.4355 5.28707 12.3268L4.79579 12.6256Z" fill="#4958F2"/>
</svg>
