<svg width="52" height="21" viewBox="0 0 52 21" fill="none" xmlns="http://www.w3.org/2000/svg">
<path d="M30.0244 10.9668C32.795 10.9668 35.041 13.2128 35.041 15.9834C35.041 18.754 32.795 21 30.0244 21C27.2538 21 25.0078 18.754 25.0078 15.9834C25.0078 13.2128 27.2538 10.9668 30.0244 10.9668ZM19.4082 11.3164C21.9853 11.3166 24.0742 13.4062 24.0742 15.9834C24.074 18.5604 21.9852 20.6492 19.4082 20.6494H0.507812V11.3164H19.4082ZM43.7354 17.499L47.0605 11.3145H51.4922V20.6475H48.459V15.0049L45.4268 20.6465L45.4277 20.6475H42.043V20.6465L39.0078 14.999V20.6475H35.9746V11.3145H40.4111L43.7354 17.499ZM30.0244 14C28.9291 14 28.041 14.8881 28.041 15.9834C28.041 17.0787 28.9291 17.9668 30.0244 17.9668C31.1198 17.9668 32.0078 17.0788 32.0078 15.9834C32.0078 14.8881 31.1198 14 30.0244 14ZM3.54102 17.6162H19.4082C20.31 17.616 21.0408 16.8852 21.041 15.9834C21.041 15.0815 20.3101 14.3498 19.4082 14.3496H3.54102V17.6162ZM46.4756 0C49.2462 0 51.4922 2.246 51.4922 5.0166C51.4922 7.78723 49.2462 10.0332 46.4756 10.0332C43.705 10.0332 41.459 7.78721 41.459 5.0166C41.459 2.24602 43.705 2.75746e-05 46.4756 0ZM24.3057 0.349609C26.883 0.349609 28.9727 2.43927 28.9727 5.0166C28.9725 7.59378 26.8829 9.68262 24.3057 9.68262H16.6064C14.0292 9.68262 11.9396 7.59378 11.9395 5.0166C11.9395 2.43927 14.0291 0.349609 16.6064 0.349609H24.3057ZM35.2158 6.53418L38.541 0.349609H41.9238L36.9072 9.68164L36.9082 9.68262H33.5234V9.68164L28.5078 0.349609H31.8916L35.2158 6.53418ZM7.97461 5.98828V0.347656H11.0078V9.68066H6.5752L3.54102 4.03516V9.68066H0.507812V0.347656H4.94238L7.97461 5.98828ZM46.4756 3.0332C45.3802 3.0332 44.4922 3.92124 44.4922 5.0166C44.4922 6.11196 45.3802 7 46.4756 7C47.5709 6.99999 48.459 6.11196 48.459 5.0166C48.459 3.92124 47.5709 3.03321 46.4756 3.0332ZM16.6064 3.38281C15.7044 3.38281 14.9727 4.11454 14.9727 5.0166C14.9728 5.91852 15.7045 6.64941 16.6064 6.64941H24.3057C25.2076 6.64941 25.9393 5.91852 25.9395 5.0166C25.9395 4.11454 25.2077 3.38281 24.3057 3.38281H16.6064Z" fill="white"/>
</svg>
