<svg width="181" height="21" viewBox="0 0 181 21" fill="none" xmlns="http://www.w3.org/2000/svg">
<path d="M139.292 0.952026C144.552 0.952026 148.817 5.21578 148.817 10.4755C148.817 15.7353 144.552 19.9999 139.292 19.9999C134.033 19.9996 129.769 15.7352 129.769 10.4755C129.769 5.21593 134.033 0.952277 139.292 0.952026ZM119.138 1.61609C124.031 1.61612 127.998 5.58259 127.998 10.4755C127.998 15.3683 124.031 19.3348 119.138 19.3348H98.5601V1.61609H119.138ZM165.317 13.3583L171.629 1.61511H180.045V19.3339H174.288V8.61902L168.529 19.3339H162.105L156.348 8.62292V19.3339H150.589V1.61511H159.004L165.317 13.3583ZM139.292 6.71082C137.213 6.71107 135.528 8.39631 135.528 10.4755C135.528 12.5548 137.213 14.2408 139.292 14.2411C141.372 14.2411 143.058 12.5549 143.058 10.4755C143.058 8.39616 141.372 6.71082 139.292 6.71082ZM104.319 13.576H119.138C120.851 13.576 122.239 12.1879 122.239 10.4755C122.239 8.76297 120.851 7.37491 119.138 7.37488H104.319V13.576Z" fill="#4958F2"/>
<path d="M87.2627 0.953857C92.5226 0.953857 96.7871 5.22795 96.7871 10.4998C96.7869 15.7714 92.5224 20.0447 87.2627 20.0447C82.0033 20.0443 77.7395 15.7711 77.7393 10.4998C77.7393 5.22821 82.0032 0.954282 87.2627 0.953857ZM45.1826 1.61597C50.0755 1.61597 54.0419 5.58252 54.042 10.4753C54.042 15.3682 50.0755 19.3347 45.1826 19.3347H30.5654C25.6725 19.3347 21.7061 15.3682 21.7061 10.4753C21.7061 5.58252 25.6726 1.61597 30.5654 1.61597H45.1826ZM65.8926 13.3591L72.2051 1.61597H78.6279L69.1045 19.3347H62.6807L53.1572 1.61597H59.5801L65.8926 13.3591ZM14.1738 12.324V1.61499H19.9326V19.3337H11.5176L5.75879 8.6189V19.3337H0V1.61499H8.41699L14.1738 12.324ZM87.2637 6.72632C85.1844 6.72654 83.498 8.41569 83.498 10.4998C83.4981 12.5838 85.1844 14.273 87.2637 14.2732C89.343 14.2731 91.0283 12.5838 91.0283 10.4998C91.0283 8.41564 89.343 6.72646 87.2637 6.72632ZM30.5654 7.37476C28.853 7.37476 27.4639 8.7629 27.4639 10.4753C27.4639 12.1879 28.8529 13.5759 30.5654 13.5759H45.1826C46.8951 13.5759 48.2842 12.1879 48.2842 10.4753C48.2841 8.7629 46.8951 7.37476 45.1826 7.37476H30.5654Z" fill="#4958F2"/>
</svg>
