<svg width="24" height="24" viewBox="0 0 24 24" fill="none" xmlns="http://www.w3.org/2000/svg">
<path d="M12 3.575C12.3176 3.575 12.575 3.31756 12.575 3C12.575 2.68244 12.3176 2.425 12 2.425V3.575ZM12 21.575C12.3176 21.575 12.575 21.3176 12.575 21C12.575 20.6824 12.3176 20.425 12 20.425V21.575ZM4.17157 19.8284L4.57816 19.4218H4.57816L4.17157 19.8284ZM12.575 2C12.575 1.68244 12.3176 1.425 12 1.425C11.6824 1.425 11.425 1.68244 11.425 2H12.575ZM11.425 22C11.425 22.3176 11.6824 22.575 12 22.575C12.3176 22.575 12.575 22.3176 12.575 22H11.425ZM3 13H3.575V11H3H2.425V13H3ZM11 3V3.575H12V3V2.425H11V3ZM12 21V20.425H11V21V21.575H12V21ZM3 13H2.425C2.425 14.8694 2.42378 16.3292 2.57657 17.4657C2.73159 18.6187 3.05456 19.5246 3.76499 20.235L4.17157 19.8284L4.57816 19.4218C4.11702 18.9607 3.85419 18.338 3.71632 17.3125C3.57622 16.2704 3.575 14.9019 3.575 13H3ZM11 21V20.425C9.09813 20.425 7.72957 20.4238 6.68753 20.2837C5.66204 20.1458 5.0393 19.883 4.57816 19.4218L4.17157 19.8284L3.76499 20.235C4.47541 20.9454 5.38128 21.2684 6.5343 21.4234C7.67077 21.5762 9.13064 21.575 11 21.575V21ZM3 11H3.575C3.575 9.09813 3.57622 7.72957 3.71632 6.68753C3.85419 5.66204 4.11702 5.0393 4.57816 4.57816L4.17157 4.17157L3.76499 3.76499C3.05456 4.47542 2.73159 5.38128 2.57657 6.5343C2.42378 7.67077 2.425 9.13064 2.425 11H3ZM11 3V2.425C9.13064 2.425 7.67077 2.42378 6.5343 2.57657C5.38128 2.73159 4.47542 3.05456 3.76499 3.76499L4.17157 4.17157L4.57816 4.57816C5.0393 4.11702 5.66204 3.85419 6.68753 3.71632C7.72957 3.57622 9.09813 3.575 11 3.575V3ZM12 2H11.425V22H12H12.575V2H12Z" fill="#130E14"/>
</svg>
